<?xml version="1.0" encoding="UTF-8" standalone="no"?>
<!-- Created by Vectric (http://www.vectric.com/) -->

<svg
   xmlns:dc="http://purl.org/dc/elements/1.1/"
   xmlns:cc="http://creativecommons.org/ns#"
   xmlns:rdf="http://www.w3.org/1999/02/22-rdf-syntax-ns#"
   xmlns:svg="http://www.w3.org/2000/svg"
   xmlns="http://www.w3.org/2000/svg"
   xmlns:sodipodi="http://sodipodi.sourceforge.net/DTD/sodipodi-0.dtd"
   xmlns:inkscape="http://www.inkscape.org/namespaces/inkscape"
   width="6.58226999mm"
   height="5.71547537mm"
   viewBox="0 0 6.58226999 5.71547537"
   id="svg2"
   version="1.1"
   inkscape:version="0.91 r13725"
   sodipodi:docname="1 Hinder Lina.svg">
  <metadata
     id="metadata4294">
    <rdf:RDF>
      <cc:Work
         rdf:about="">
        <dc:format>image/svg+xml</dc:format>
        <dc:type
           rdf:resource="http://purl.org/dc/dcmitype/StillImage" />
      </cc:Work>
    </rdf:RDF>
  </metadata>
  <defs
     id="defs4292" />
  <sodipodi:namedview
     pagecolor="#ffffff"
     bordercolor="#666666"
     borderopacity="1"
     objecttolerance="10"
     gridtolerance="10"
     guidetolerance="10"
     inkscape:pageopacity="0"
     inkscape:pageshadow="2"
     inkscape:window-width="1440"
     inkscape:window-height="851"
     id="namedview4290"
     showgrid="false"
     inkscape:zoom="11.653351"
     inkscape:cx="-1.5535804"
     inkscape:cy="10.125843"
     inkscape:window-x="0"
     inkscape:window-y="1"
     inkscape:window-maximized="1"
     inkscape:current-layer="a704e170-2d67-4476-ad57-af5f9aa3714c" />
  <g
     inkscape:groupmode="layer"
     id="8fd75bce-7983-4791-83d0-40fdb48fba71"
     inkscape:label="Bitmap Layer" />
  <g
     inkscape:groupmode="layer"
     id="a704e170-2d67-4476-ad57-af5f9aa3714c"
     inkscape:label="Layer 1">
    <path
       fill="param(fill) #F00" stroke="param(outline) #000" stroke-width="param(outline-width) 0.05"
       d="M 3.366667,5.715475 C 6.066667,5.715475 6.592234,3.375849 6.582270,3.148451 C 6.573395,2.945904 5.950846,2.930854 5.873729,3.131818 C 5.801938,3.318902 5.579371,4.191276 5.421985,3.956052 C 5.375844,3.887091 3.717170,0.141576 3.445300,0.011727 C 3.396604,-0.011530 3.216107,0.005202 3.197776,0.015785 C 2.937968,0.165785 1.321130,3.778229 1.294367,3.847150 C 1.203633,4.080813 0.890279,3.459601 0.840101,3.296618 C 0.753822,3.016375 0.728536,3.000284 0.374434,3.000284 C 0.067791,3.000284 0.000000,3.028387 0.000000,3.155506 C 0.000000,3.240879 0.566667,5.715475 3.366667,5.715475 "
       id="path4284" />
    <path
       fill="param(fill) #F00" stroke="param(outline) #000" stroke-width="param(outline-width) 0.05"
       d="M 4.910667,4.448264 C 4.910667,4.358264 3.610466,1.684529 3.510466,1.511324 C 3.450893,1.408139 3.299281,1.429138 3.185845,1.506252 C 3.089844,1.571513 1.688163,4.400593 1.688163,4.500593 C 1.688163,4.739571 2.756667,5.033133 3.366667,5.033133 C 3.916667,5.033133 4.910667,4.658264 4.910667,4.448264 "
       id="path4286" />
    <path
       fill="param(fill) #F00" stroke="param(outline) #000" stroke-width="param(outline-width) 0.05"
       d="M 3.309667,3.664951 A 0.400000,0.400000 0 0,0 2.909667,4.064951 A 0.400000,0.400000 0 0,0 3.309667,4.464951 A 0.400000,0.400000 0 0,0 3.709667,4.064951 A 0.400000,0.400000 0 0,0 3.309667,3.664951 "
       id="path4288" />
  </g>
</svg>
