<?xml version="1.0" encoding="UTF-8" standalone="no"?>
<!-- Generator: Adobe Illustrator 16.0.0, SVG Export Plug-In . SVG Version: 6.00 Build 0)  -->

<svg
   xmlns:dc="http://purl.org/dc/elements/1.1/"
   xmlns:cc="http://creativecommons.org/ns#"
   xmlns:rdf="http://www.w3.org/1999/02/22-rdf-syntax-ns#"
   xmlns:svg="http://www.w3.org/2000/svg"
   xmlns="http://www.w3.org/2000/svg"
   xmlns:sodipodi="http://sodipodi.sourceforge.net/DTD/sodipodi-0.dtd"
   xmlns:inkscape="http://www.inkscape.org/namespaces/inkscape"
   version="1.1"
   id="Capa_1"
   x="0px"
   y="0px"
   width="11.415792"
   height="20"
   viewBox="0 0 10.784891 18.894687"
   xml:space="preserve"
   inkscape:version="0.91 r13725"
   sodipodi:docname="1 Skorsten.svg"><metadata
     id="metadata41"><rdf:RDF><cc:Work
         rdf:about=""><dc:format>image/svg+xml</dc:format><dc:type
           rdf:resource="http://purl.org/dc/dcmitype/StillImage" /><dc:title></dc:title></cc:Work></rdf:RDF></metadata><defs
     id="defs39" /><sodipodi:namedview
     pagecolor="#ffffff"
     bordercolor="#666666"
     borderopacity="1"
     objecttolerance="10"
     gridtolerance="10"
     guidetolerance="10"
     inkscape:pageopacity="0"
     inkscape:pageshadow="2"
     inkscape:window-width="1366"
     inkscape:window-height="705"
     id="namedview37"
     showgrid="false"
     fit-margin-top="0"
     fit-margin-left="0"
     fit-margin-right="0"
     fit-margin-bottom="0"
     inkscape:zoom="25.7"
     inkscape:cx="3.5474371"
     inkscape:cy="9.9999918"
     inkscape:window-x="-8"
     inkscape:window-y="-8"
     inkscape:window-maximized="1"
     inkscape:current-layer="Capa_1" /><path
     inkscape:connector-curvature="0"
     fill="param(fill) #F00" stroke="param(outline) #000" stroke-width="param(outline-width) 0.09"
     id="path5"
     d="m 8.3837615,12.132028 c 0,-1.88653 0.4434582,-3.6395071 1.2034885,-5.0957153 l -2.6011459,0 -3.1872779,0 -2.601146,0 c 0.7599134,1.4562082 1.2036445,3.2091853 1.2036445,5.0957153 0,2.717585 -0.9209866,5.020441 -2.3818337,6.696196 l 0,0.04697 3.7792962,0 3.1873169,0 3.7792959,0 0,-0.04697 C 9.304787,17.152469 8.3837615,14.849613 8.3837615,12.132028 Z m -5.219327,1.028538 -0.2645702,-0.06826 C 3.6281634,10.266198 2.1328173,7.7354923 2.1179262,7.710115 L 2.3520905,7.5690395 c 0.064476,0.1072392 1.5692558,2.6555255 0.812344,5.5915265 z m 4.6807919,-6.6052901 0,-0.3350105 c 0.9148274,0 1.6597717,-0.7444375 1.6597717,-1.6594209 0,-0.6456964 -0.3806193,-1.2374028 -0.969597,-1.5075864 l -0.107707,-0.049585 0.010642,-0.1181542 c 0.00476,-0.049819 0.00811,-0.1004563 0.00811,-0.1515616 0,-0.9149834 -0.7444765,-1.6596938 -1.6594599,-1.6596938 -0.3454187,0 -0.6771158,0.1063816 -0.9601245,0.3078401 L 5.6832507,1.4840413 5.5886026,1.3357931 C 5.2808014,0.85541903 4.7585218,0.56839522 4.1908282,0.56839522 c -0.2298763,0 -0.4532816,0.0469342 -0.6640568,0.13939931 L 3.43723,0.74701034 3.3590712,0.6882646 C 3.0683052,0.46980997 2.7243678,0.35454047 2.3642139,0.35454047 c -0.9151003,0 -1.6596938,0.74443753 -1.6596938,1.65930393 0,0.3325937 0.0975717,0.652947 0.28242394,0.926639 l 0.0635795,0.093751 -0.0633456,0.093674 C 0.80209182,3.4016784 0.7045201,3.7223046 0.7045201,4.0549373 c 0,0.9149833 0.7445935,1.6594209 1.6596938,1.6594209 l 0,0.3350105 c -1.0997966,0 -1.99458739,-0.8946348 -1.99458739,-1.9944704 0,-0.3623759 0.0965582,-0.7130181 0.28047484,-1.0207024 C 0.46645758,2.7266287 0.36962651,2.3760254 0.36962651,2.0138055 c 0,-1.09960175 0.89479079,-1.99431455 1.99458739,-1.99431455 0.4012408,0 0.7855635,0.11881686 1.1176503,0.34491194 0.2269527,-0.0868907 0.4649763,-0.13086227 0.7091979,-0.13086227 0.6261275,0 1.2061393,0.29010337 1.5830554,0.78357538 0.3070605,-0.18227942 0.6539995,-0.27770714 1.012867,-0.27770714 1.0997576,0 1.9946653,0.89471284 1.9946653,1.99454844 0,0.022298 -5.457e-4,0.044478 -0.0016,0.066776 0.6473725,0.3444831 1.0598401,1.0230802 1.0598401,1.7603061 0,1.0996017 -0.8947128,1.9942365 -1.9946653,1.9942365 z m -4.3934952,0 c -0.7798331,0 -1.4141467,-0.6493216 -1.4141467,-1.4472813 l 0.3350105,0 c 0,0.6133803 0.4841164,1.1125047 1.0788634,1.1125047 0.5948249,0 1.0788633,-0.4991244 1.0788633,-1.1125047 l 0.3350105,0 c 0,0.7981936 -0.6340407,1.4472813 -1.413601,1.4472813 z m 4.3861666,-2.338e-4 c -0.5872625,0 -1.1349973,-0.3549693 -1.3415235,-0.9271458 C 6.232077,4.8942178 6.6282891,4.0772739 7.3788858,3.8065835 L 7.4923231,4.1218302 C 6.9153129,4.3297207 6.6098896,4.9544448 6.811738,5.5140691 7.0134694,6.0736934 7.6466135,6.3600545 8.2237797,6.1518911 L 8.337256,6.4670209 c -0.1648934,0.059876 -0.3336461,0.088021 -0.4993582,0.088021 z" /><g
     id="g7"
     transform="translate(-236.45856,-232.40466)" /><g
     id="g9"
     transform="translate(-236.45856,-232.40466)" /><g
     id="g11"
     transform="translate(-236.45856,-232.40466)" /><g
     id="g13"
     transform="translate(-236.45856,-232.40466)" /><g
     id="g15"
     transform="translate(-236.45856,-232.40466)" /><g
     id="g17"
     transform="translate(-236.45856,-232.40466)" /><g
     id="g19"
     transform="translate(-236.45856,-232.40466)" /><g
     id="g21"
     transform="translate(-236.45856,-232.40466)" /><g
     id="g23"
     transform="translate(-236.45856,-232.40466)" /><g
     id="g25"
     transform="translate(-236.45856,-232.40466)" /><g
     id="g27"
     transform="translate(-236.45856,-232.40466)" /><g
     id="g29"
     transform="translate(-236.45856,-232.40466)" /><g
     id="g31"
     transform="translate(-236.45856,-232.40466)" /><g
     id="g33"
     transform="translate(-236.45856,-232.40466)" /><g
     id="g35"
     transform="translate(-236.45856,-232.40466)" /></svg>