<?xml version="1.0" encoding="UTF-8" standalone="no"?>
<svg
   xmlns:dc="http://purl.org/dc/elements/1.1/"
   xmlns:cc="http://creativecommons.org/ns#"
   xmlns:rdf="http://www.w3.org/1999/02/22-rdf-syntax-ns#"
   xmlns:svg="http://www.w3.org/2000/svg"
   xmlns="http://www.w3.org/2000/svg"
   xmlns:sodipodi="http://sodipodi.sourceforge.net/DTD/sodipodi-0.dtd"
   xmlns:inkscape="http://www.inkscape.org/namespaces/inkscape"
   version="1.1"
   x="0px"
   y="0px"
   viewBox="-512 747.7 42.33766 20"
   xml:space="preserve"
   id="svg2"
   inkscape:version="0.91 r13725"
   sodipodi:docname="Bropelare.svg"
   width="42.337662"
   height="20"><metadata
     id="metadata46"><rdf:RDF><cc:Work
         rdf:about=""><dc:format>image/svg+xml</dc:format><dc:type
           rdf:resource="http://purl.org/dc/dcmitype/StillImage" /><dc:title></dc:title></cc:Work></rdf:RDF></metadata><defs
     id="defs44" /><sodipodi:namedview
     pagecolor="#ffffff"
     bordercolor="#666666"
     borderopacity="1"
     objecttolerance="10"
     gridtolerance="10"
     guidetolerance="10"
     inkscape:pageopacity="0"
     inkscape:pageshadow="2"
     inkscape:window-width="1366"
     inkscape:window-height="705"
     id="namedview42"
     showgrid="false"
     fit-margin-top="0"
     fit-margin-left="0"
     fit-margin-right="0"
     fit-margin-bottom="0"
     inkscape:zoom="16.826843"
     inkscape:cx="21.168832"
     inkscape:cy="10.857249"
     inkscape:window-x="-8"
     inkscape:window-y="-8"
     inkscape:window-maximized="1"
     inkscape:current-layer="svg2" />
     <g
     id="g4174"
     transform="matrix(0.43290043,0,0,0.43290043,-290.35498,424.02036)"
     fill="param(fill) #F00" stroke="param(outline) #000" stroke-width="param(outline-width) 0.25"
     >
     <path
       id="path4"
       d="m -416,781.1 -94.2,0 c -1,0 -1.8,0.8 -1.8,1.8 0,1 0.8,1.8 1.8,1.8 l 94.2,0 c 1,0 1.8,-0.8 1.8,-1.8 0,-1 -0.8,-1.8 -1.8,-1.8 z"
       inkscape:connector-curvature="0"
       fill="param(fill) #F00" stroke="param(outline) #000" stroke-width="param(outline-width) 0.25"
       />
       <path
       id="path6"
       d="m -439.3,779.9 c 1,0 1.8,-0.8 1.8,-1.8 l 0,-28.6 c 0,-1 -0.8,-1.8 -1.8,-1.8 -1,0 -1.8,0.8 -1.8,1.8 l 0,28.6 c 0.1,1 0.9,1.8 1.8,1.8 z"
       inkscape:connector-curvature="0"
       fill="param(fill) #F00" stroke="param(outline) #000" stroke-width="param(outline-width) 0.25"
       />
       <path
       id="path8"
       d="m -487,779.9 c 1,0 1.8,-0.8 1.8,-1.8 l 0,-28.6 c 0,-1 -0.8,-1.8 -1.8,-1.8 -1,0 -1.8,0.8 -1.8,1.8 l 0,28.6 c 0.1,1 0.9,1.8 1.8,1.8 z"
       inkscape:connector-curvature="0"
       fill="param(fill) #F00" stroke="param(outline) #000" stroke-width="param(outline-width) 0.25"
       />
       <path
       id="path10"
       d="m -439.3,793.9 c 1,0 1.8,-0.8 1.8,-1.8 l 0,-4.4 c 0,-1 -0.8,-1.8 -1.8,-1.8 -1,0 -1.8,0.8 -1.8,1.8 l 0,4.4 c 0.1,1 0.9,1.8 1.8,1.8 z"
       inkscape:connector-curvature="0"
       fill="param(fill) #F00" stroke="param(outline) #000" stroke-width="param(outline-width) 0.25"
       />
       <path
       id="path12"
       d="m -485.2,792.1 0,-4.4 c 0,-1 -0.8,-1.8 -1.8,-1.8 -1,0 -1.8,0.8 -1.8,1.8 l 0,4.4 c 0,1 0.8,1.8 1.8,1.8 1,0 1.8,-0.8 1.8,-1.8 z"
       inkscape:connector-curvature="0"
       fill="param(fill) #F00" stroke="param(outline) #000" stroke-width="param(outline-width) 0.25"
       />
       <path
       id="path14"
       d="m -419.3,778.9 c 0.2,0.3 0.6,0.5 1,0.5 0.2,0 0.5,-0.1 0.7,-0.2 0.5,-0.4 0.7,-1.1 0.3,-1.6 l -17.1,-24.2 c -0.4,-0.5 -1.1,-0.7 -1.6,-0.3 -0.5,0.4 -0.7,1.1 -0.3,1.6 l 17,24.2 z"
       inkscape:connector-curvature="0"
       fill="param(fill) #F00" stroke="param(outline) #000" stroke-width="param(outline-width) 0.25"
       />
       <path
       id="path16"
       d="m -424.3,778.8 c 0.2,0.3 0.6,0.5 1,0.5 0.2,0 0.5,-0.1 0.7,-0.2 0.5,-0.4 0.7,-1.1 0.3,-1.6 l -12.1,-17.3 c -0.4,-0.5 -1.1,-0.7 -1.6,-0.3 -0.5,0.4 -0.7,1.1 -0.3,1.6 l 12,17.3 z"
       inkscape:connector-curvature="0"
       fill="param(fill) #F00" stroke="param(outline) #000" stroke-width="param(outline-width) 0.25"
       />
       <path
       id="path18"
       d="m -436,767.3 c -0.5,0.4 -0.7,1.1 -0.3,1.6 l 6.9,9.9 c 0.2,0.3 0.6,0.5 1,0.5 0.2,0 0.5,-0.1 0.7,-0.2 0.5,-0.4 0.7,-1.1 0.3,-1.6 l -6.9,-9.9 c -0.5,-0.6 -1.2,-0.7 -1.7,-0.3 z"
       inkscape:connector-curvature="0"
       fill="param(fill) #F00" stroke="param(outline) #000" stroke-width="param(outline-width) 0.25"
       />
       <path
       id="path20"
       d="m -467.3,778.9 c 0.2,0.3 0.6,0.5 1,0.5 0.2,0 0.5,-0.1 0.7,-0.2 0.5,-0.4 0.7,-1.1 0.3,-1.6 l -17.1,-24.2 c -0.4,-0.5 -1.1,-0.7 -1.6,-0.3 -0.5,0.4 -0.7,1.1 -0.3,1.6 l 17,24.2 z"
       inkscape:connector-curvature="0"
       fill="param(fill) #F00" stroke="param(outline) #000" stroke-width="param(outline-width) 0.25"
       />
       <path
       id="path22"
       d="m -471.3,779.4 c 0.2,0 0.5,-0.1 0.7,-0.2 0.5,-0.4 0.7,-1.1 0.3,-1.6 l -12.1,-17.3 c -0.4,-0.5 -1.1,-0.7 -1.6,-0.3 -0.5,0.4 -0.7,1.1 -0.3,1.6 l 12.1,17.3 c 0.1,0.3 0.5,0.5 0.9,0.5 z"
       inkscape:connector-curvature="0"
       fill="param(fill) #F00" stroke="param(outline) #000" stroke-width="param(outline-width) 0.25"
       />
       <path
       id="path24"
       d="m -484.1,767.3 c -0.5,0.4 -0.7,1.1 -0.3,1.6 l 6.9,9.9 c 0.2,0.3 0.6,0.5 1,0.5 0.2,0 0.5,-0.1 0.7,-0.2 0.5,-0.4 0.7,-1.1 0.3,-1.6 l -6.8,-9.9 c -0.5,-0.6 -1.2,-0.7 -1.8,-0.3 z"
       inkscape:connector-curvature="0"
       fill="param(fill) #F00" stroke="param(outline) #000" stroke-width="param(outline-width) 0.25"
       />
       <path
       id="path26"
       d="m -508.1,779.4 c 0.4,0 0.7,-0.2 1,-0.5 l 17.1,-24.2 c 0.4,-0.5 0.2,-1.3 -0.3,-1.6 -0.5,-0.4 -1.3,-0.3 -1.6,0.3 l -17.1,24.2 c -0.4,0.5 -0.2,1.3 0.3,1.6 0.1,0.1 0.3,0.2 0.6,0.2 z"
       inkscape:connector-curvature="0"
       fill="param(fill) #F00" stroke="param(outline) #000" stroke-width="param(outline-width) 0.25"
       />
       <path
       id="path28"
       d="m -490.4,759.9 c -0.5,-0.4 -1.3,-0.2 -1.6,0.3 l -12.1,17.3 c -0.4,0.5 -0.2,1.3 0.3,1.6 0.2,0.1 0.4,0.2 0.7,0.2 0.4,0 0.7,-0.2 1,-0.5 l 12.1,-17.3 c 0.2,-0.5 0.1,-1.3 -0.4,-1.6 z"
       inkscape:connector-curvature="0"
       fill="param(fill) #F00" stroke="param(outline) #000" stroke-width="param(outline-width) 0.25"
       />
       <path
       id="path30"
       d="m -492.1,767.6 -6.9,9.9 c -0.4,0.5 -0.2,1.3 0.3,1.6 0.2,0.1 0.4,0.2 0.7,0.2 0.4,0 0.7,-0.2 1,-0.5 l 6.9,-9.9 c 0.4,-0.5 0.2,-1.3 -0.3,-1.6 -0.6,-0.4 -1.3,-0.3 -1.7,0.3 z"
       inkscape:connector-curvature="0"
       fill="param(fill) #F00" stroke="param(outline) #000" stroke-width="param(outline-width) 0.25"
       />
       <path
       id="path32"
       d="m -460.1,779.4 c 0.4,0 0.7,-0.2 1,-0.5 l 17.1,-24.2 c 0.4,-0.5 0.2,-1.3 -0.3,-1.6 -0.5,-0.4 -1.3,-0.3 -1.6,0.3 l -17.1,24.2 c -0.4,0.5 -0.3,1.3 0.3,1.6 0.1,0.1 0.3,0.2 0.6,0.2 z"
       inkscape:connector-curvature="0"
       fill="param(fill) #F00" stroke="param(outline) #000" stroke-width="param(outline-width) 0.25"
       />
       <path
       id="path34"
       d="m -442.4,759.9 c -0.5,-0.4 -1.3,-0.2 -1.6,0.3 l -12.1,17.3 c -0.4,0.5 -0.2,1.3 0.3,1.6 0.2,0.1 0.4,0.2 0.7,0.2 0.4,0 0.7,-0.2 1,-0.5 l 12.1,-17.3 c 0.3,-0.5 0.1,-1.3 -0.4,-1.6 z"
       inkscape:connector-curvature="0"
       fill="param(fill) #F00" stroke="param(outline) #000" stroke-width="param(outline-width) 0.25"
       />
       <path
       id="path36"
       d="m -444,767.6 -6.9,9.9 c -0.4,0.5 -0.2,1.3 0.3,1.6 0.2,0.1 0.4,0.2 0.7,0.2 0.4,0 0.7,-0.2 1,-0.5 l 6.9,-9.9 c 0.4,-0.5 0.2,-1.3 -0.3,-1.6 -0.6,-0.4 -1.4,-0.3 -1.7,0.3 z"
       inkscape:connector-curvature="0"
       fill="param(fill) #F00" stroke="param(outline) #000" stroke-width="param(outline-width) 0.25"
       /></g></svg>