<?xml version="1.0" encoding="UTF-8" standalone="no"?>
<svg
   xmlns:dc="http://purl.org/dc/elements/1.1/"
   xmlns:cc="http://creativecommons.org/ns#"
   xmlns:rdf="http://www.w3.org/1999/02/22-rdf-syntax-ns#"
   xmlns:svg="http://www.w3.org/2000/svg"
   xmlns="http://www.w3.org/2000/svg"
   viewBox="0 0 20.613333 17.786667"
   height="17.786667"
   width="20.613333"
   xml:space="preserve"
   id="svg2"
   version="1.1"><metadata
     id="metadata8"><rdf:RDF><cc:Work
         rdf:about=""><dc:format>image/svg+xml</dc:format><dc:type
           rdf:resource="http://purl.org/dc/dcmitype/StillImage" /></cc:Work></rdf:RDF></metadata><defs
     id="defs6" /><g
     transform="matrix(1.3333333,0,0,-1.3333333,0,17.786667)"
     id="g10"><g
       transform="scale(0.1)"
       id="g12"><path
         id="path14"
         style="fill:#000000;fill-opacity:1;fill-rule:nonzero;stroke:none"
         d="m 148.945,69.75 0.45,-0.2734 0.722,-0.2657 0.899,-0.5429 1.172,-0.5391 2.441,-1.2578 -2.441,-1.1719 -1.075,-0.543 -0.898,-0.539 -0.723,-0.2656 -0.449,-0.2735 -0.723,-0.3554 -0.722,-0.2774 -1.172,-0.6328 -0.449,-0.2617 -0.45,-0.1875 -0.351,-0.2617 -0.371,-0.0899 -0.274,-0.1875 -0.254,-0.0859 -0.547,-0.1758 -0.82,-0.2734 -0.351,-0.0899 h -2.344 l -1.348,-0.0859 h -14.316 l -3.496,-0.0977 h -5.938 l -2.07,0.0977 h -5.039 L 96.6602,61.1992 87.9336,47.8828 86.0391,45.0898 84.418,42.5664 82.8867,40.3203 81.5391,38.3398 80.3711,36.6328 79.4688,35.2812 78.75,34.1094 78.207,33.3008 77.8516,32.7539 76.5938,30.957 75.5078,29.25 74.3398,27.5391 73.3516,26.0078 72.2695,24.3867 71.2773,22.9492 70.2891,21.5039 69.4766,20.2422 68.6719,18.9844 67.9492,17.8203 67.1406,16.6484 66.5078,15.6523 65.793,14.5781 65.25,13.6836 64.6211,12.7812 64.1719,12.0625 63.6289,11.25 63.2695,10.6133 62.8164,9.98828 62.4609,9.54297 62.1016,8.99219 61.918,8.64453 61.6484,8.18359 61.5586,8.00781 61.3828,7.73438 V 7.47266 l 0.086,-0.08985 h 0.8984 l 0.4531,-0.09765 h 0.5391 L 63.9883,7.19531 H 77.1289 L 77.3984,7.10938 77.7578,7.02344 78.6641,6.57031 79.293,5.76172 79.4688,5.39844 79.5625,5.12891 V 4.31641 L 79.4688,3.69141 79.1992,2.88281 78.8398,2.15625 78.3906,1.71094 77.7578,1.26172 77.043,0.8125 76.1367,0.449219 75.8711,0.359375 h -0.543 L 74.5195,0.265625 H 62.2812 L 60.2969,0.175781 59.3984,0.0898438 H 54 L 53.9102,0 V 0.0898438 H 49.7695 L 49.3203,0.175781 H 44.1875 L 61.1094,61.0156 17.1016,62.5508 8.55078,41.1328 H 0.179688 L 0,92.1562 H 8.55078 L 17.3672,70.8281 61.0195,72.3594 42.5664,133.379 h 6.3945 l 1.9805,-0.094 h 8.8203 l 2.5195,0.094 h 9.5391 l 1.5313,-0.094 1.1679,-0.176 0.9883,-0.179 1.086,-0.364 0.3554,-0.179 0.3594,-0.086 0.4492,-0.274 0.4492,-0.355 0.3633,-0.449 0.2695,-0.278 0.0899,-0.265 0.1797,-0.45 0.1836,-0.449 0.0859,-0.273 v -1.078 l -0.1797,-0.45 -0.2695,-0.453 -0.3594,-0.359 -0.3633,-0.27 -0.5351,-0.273 -0.2735,-0.086 -0.2695,-0.094 L 76.5,126.359 H 75.6016 L 74.4297,126.27 H 62.8164 l -0.7148,-0.094 -0.543,-0.086 -0.8984,-0.184 -0.543,-0.179 -0.1797,-0.086 -0.0898,-0.094 v -0.356 l 0.2695,-0.543 0.3633,-0.722 0.4492,-0.899 0.6289,-1.168 0.3594,-0.453 0.2695,-0.449 0.1797,-0.359 0.3633,-0.45 0.7148,-1.082 0.3633,-0.628 0.543,-0.719 0.4492,-0.809 0.6289,-0.902 1.3476,-1.891 1.6211,-2.16 1.7071,-2.43 1.9843,-2.703 0.9922,-1.433 1.168,-1.532 2.3359,-3.238 1.2657,-1.7148 1.2578,-1.7968 0.3594,-0.543 0.5429,-0.8086 0.8086,-0.9883 0.8125,-1.1718 0.9883,-1.5274 1.2617,-1.7148 1.4336,-1.8867 1.6211,-2.1602 1.7109,-2.4297 8.2852,-11.3398 11.2504,-0.0899 h 13.222 l 3.692,0.0899 h 14.765 l 0.723,-0.0899 h 2.148 l 0.547,-0.1797 0.625,-0.1797 0.274,-0.0937 0.449,-0.1797 0.723,-0.3555 0.449,-0.1836 0.449,-0.2656 1.25,-0.5429 1.445,-0.7188" /></g></g></svg>