<?xml version="1.0" encoding="UTF-8" standalone="no"?>
<svg
   xmlns:dc="http://purl.org/dc/elements/1.1/"
   xmlns:cc="http://creativecommons.org/ns#"
   xmlns:rdf="http://www.w3.org/1999/02/22-rdf-syntax-ns#"
   xmlns:svg="http://www.w3.org/2000/svg"
   xmlns="http://www.w3.org/2000/svg"
   viewBox="0 0 22.68 19.68"
   height="19.68"
   width="22.68"
   xml:space="preserve"
   id="svg2"
   version="1.1"><metadata
     id="metadata8"><rdf:RDF><cc:Work
         rdf:about=""><dc:format>image/svg+xml</dc:format><dc:type
           rdf:resource="http://purl.org/dc/dcmitype/StillImage" /></cc:Work></rdf:RDF></metadata><defs
     id="defs6" /><g
     transform="matrix(1.3333333,0,0,-1.3333333,0,19.68)"
     id="g10"><g
       transform="scale(0.1)"
       id="g12"><path
         id="path14"
         style="fill:#000000;fill-opacity:1;fill-rule:nonzero;stroke:none"
         d="m 170.098,73.8008 -0.274,-2.1602 -0.449,-2.0703 -0.266,-0.9922 -0.269,-0.4492 -0.539,-0.9023 -0.449,-0.625 -0.547,-0.6328 -0.625,-0.7149 -0.45,-0.5469 -0.722,-0.625 -0.535,-0.4492 -0.723,-0.3594 -0.812,-0.4492 -0.54,-0.4492 -0.996,-0.2734 -0.984,-0.2735 -0.898,-0.0898 -0.364,-0.086 h -2.793 l -1.519,-0.1875 h -49.59 L 94.2305,46.1719 h 13.4965 l 1.445,-0.1836 1.348,-0.5391 1.082,-0.8984 0.898,-1.2578 0.625,-1.3477 0.273,-1.4453 v -0.5391 l -0.183,-1.5312 -0.539,-1.5235 -0.813,-1.2695 -1.07,-0.8984 -1.262,-0.625 -1.445,-0.3633 -0.359,0.0898 H 84.8672 L 78.9258,25.918 77.3086,23.7617 75.957,21.9648 74.7852,20.4297 73.8008,19.082 72.9883,18 72.3594,17.1016 71.9961,16.5625 70.918,15.3047 70.0195,14.043 69.0273,12.7852 68.2188,11.7891 66.6875,9.71875 65.8789,8.73047 65.25,7.83203 64.6211,6.93359 64.0781,6.30078 63.5391,5.48828 63.0859,4.86328 62.6367,4.31641 62.3672,3.86719 62.0078,3.41797 61.7383,3.15625 61.4688,2.69531 61.3789,2.51953 61.1953,2.34375 61.0156,2.16016 60.6602,1.71094 60.3867,1.53516 60.2969,1.34766 60.2109,1.26172 60.1172,1.17188 59.9375,1.08594 59.582,0.8125 59.2188,0.636719 59.125,0.539062 H 59.0391 L 58.9492,0.449219 58.8555,0.363281 H 58.6758 L 58.3203,0.273438 58.0469,0.1875 h -0.086 L 57.7773,0.0898438 H 57.5117 L 57.3281,0 H 56.25 L 56.1562,0.0898438 H 56.0703 L 55.8906,0.1875 55.5273,0.273438 h -0.539 V 0.363281 H 54.8086 L 54.7188,0.449219 H 54.6289 L 54.4492,0.539062 54.2695,0.636719 54,0.8125 53.7305,0.988281 53.5508,1.17188 l -0.1797,0.08984 -0.1836,0.08594 -0.0859,0.1875 -0.1797,0.08593 -0.2696,0.26563 -0.2734,0.35937 -0.0898,0.1875 -0.0938,0.17579 -0.0859,0.08593 -0.0899,0.09766 -0.1797,0.36328 -0.1796,0.26172 -0.0899,0.1875 v 0.08594 l -0.0898,0.17578 -0.0899,0.1875 V 4.31641 L 51.3008,4.58984 51.2109,4.95312 51.125,5.22656 V 5.40234 L 51.0312,5.57812 V 6.75 l 0.0938,0.18359 v 0.17579 l 0.0859,0.08984 v 0.18359 l 0.0899,0.26563 v 0.27344 l 0.0898,0.17578 v 0.18359 l 0.0899,0.26563 v 0.09765 l 0.0898,0.08594 0.0899,0.17578 v 0.08984 l 0.0898,0.27344 0.0898,0.35938 0.1797,0.36328 0.1758,0.35941 0.2774,0.625 0.1796,0.5468 0.3555,0.8125 0.2734,0.711 0.3633,0.8984 0.3555,0.9102 0.4492,0.9843 0.4531,1.086 0.5352,1.3476 0.4531,1.2578 0.6289,1.3477 0.543,1.4375 0.6289,1.4453 0.6289,1.5313 0.7188,1.7968 0.6289,1.7969 0.8125,2.0703 1.6211,3.7813 0.2656,0.6328 0.2734,1.0742 0.2696,1.4453 0.3593,1.7969 0.4532,2.3437 0.5351,2.5196 0.543,2.8828 0.543,3.2305 2.4257,14.1406 H 27.7188 l -0.2696,-0.2735 -0.539,-0.4492 -0.6329,-0.9062 -0.8945,-1.1641 -0.9922,-1.2578 -1.1718,-1.8086 -1.4376,-1.8828 -1.5312,-2.0703 -0.8125,-1.086 -0.7148,-0.8085 -0.6329,-0.8125 -0.539,-0.711 -0.6328,-0.6367 -0.5352,-0.5352 -0.543,-0.4492 -0.4492,-0.4492 -0.4492,-0.2734 -0.4492,-0.1758 -0.4531,-0.1875 h -0.7188 l -0.2695,0.0898 -0.3594,0.0977 -0.1797,0.2617 -0.2695,0.2734 -0.1797,0.5391 -0.3633,1.1719 -0.1797,0.5351 v 0.8125 l -0.0898,0.8086 v 1.4453 l -0.0899,0.7149 V 67.6797 H 6.21094 L 5.85156,67.7695 H 5.21875 L 4.58984,67.8594 H 4.23047 L 3.96094,68.1289 3.33203,68.3125 2.96875,68.3984 2.69922,68.668 2.15625,69.1172 1.80078,69.2969 1.62109,69.5703 1.17188,70.2031 0.898438,70.4688 0.8125,70.832 0.542969,71.6406 0.269531,72.3594 0.0898438,72.9883 0,73.5312 v 0.4493 L 0.0898438,74.25 v 0.4492 l 0.1796872,0.6289 0.179688,0.7227 0.179687,0.5351 0.363282,0.543 0.269532,0.3633 0.35937,0.5351 0.35938,0.4493 0.35937,0.4531 0.62891,0.3594 0.44922,0.0898 0.62891,0.2695 0.54296,0.1797 0.35938,0.0899 h 6.39058 v 12.0586 l 0.0899,0.8125 v 0.4492 l 0.0898,1.7148 v 0.8047 l 0.1797,0.6289 0.3633,1.086 0.1797,0.5351 0.2695,0.2695 0.1797,0.2735 0.3594,0.1797 h 0.9883 l 0.4531,-0.0938 0.8984,-0.4453 0.9922,-0.9023 1.168,-1.0782 1.1719,-1.4414 0.7148,-0.9023 0.8125,-1.0781 0.8086,-1.0782 0.7226,-1.082 1.4415,-1.8867 0.625,-0.9063 0.5429,-0.8047 0.543,-0.6289 0.4492,-0.7226 0.8945,-1.0781 0.3633,-0.3633 0.2696,-0.3594 0.539,-0.6328 0.1836,-0.0859 0.086,-0.086 0.2695,-0.0937 h 11.8789 l 1.3555,-0.0899 h 26.9062 l -2.6055,14.0391 -0.6289,3.2423 -0.5429,2.699 -0.543,2.609 -0.4492,2.34 -0.3594,1.801 -0.3594,1.438 -0.2734,1.082 -0.2656,0.629 -1.6211,3.871 -0.8125,2.07 -0.6289,1.797 -1.3477,3.332 -0.6289,1.441 -0.543,1.438 -0.6289,1.355 -0.4531,1.258 -0.5352,1.348 -0.3593,1.078 -0.8125,1.984 -0.4493,0.899 -0.2734,0.722 -0.4492,1.258 -0.4492,1.082 -0.2696,0.715 -0.0898,0.273 -0.0898,0.176 -0.0899,0.094 -0.0898,0.18 -0.0899,0.269 v 0.18 l -0.0898,0.18 -0.0899,0.449 -0.0859,0.269 v 0.18 l -0.0938,0.184 v 1.437 l 0.0938,0.09 0.0859,0.363 0.0899,0.36 0.0898,0.269 v 0.449 l 0.0899,0.086 0.1797,0.274 0.1796,0.269 0.0899,0.36 0.0898,0.183 0.0899,0.086 v 0.094 l 0.0859,0.086 0.0938,0.09 0.1836,0.093 0.0859,0.266 0.0937,0.094 0.1758,0.176 0.0938,0.093 0.0859,0.18 0.1797,0.09 0.1836,0.086 0.1797,0.183 0.1797,0.18 0.0859,0.09 0.1836,0.09 0.2695,0.086 0.1797,0.093 0.0938,0.09 h 0.0859 l 0.1797,0.09 h 0.0898 l 0.2696,0.09 h 0.1797 l 0.1796,0.094 h 0.1797 l 0.1836,0.086 h 1.7071 l 0.0898,-0.086 h 0.2734 l 0.3594,-0.094 0.1758,-0.09 h 0.2734 l 0.086,-0.09 h 0.0898 l 0.1797,-0.09 0.1836,-0.093 0.1797,-0.176 0.2695,-0.09 0.1797,-0.18 h 0.0898 v -0.089 l 0.0899,-0.18 0.1797,-0.09 0.1836,-0.18 0.1718,-0.093 0.2774,-0.176 0.1797,-0.274 0.0859,-0.179 0.0938,-0.09 v -0.086 l 0.1757,-0.18 0.4493,-0.629 0.1797,-0.277 0.3632,-0.449 0.8086,-1.078 0.9922,-1.348 0.5391,-0.629 0.6289,-0.902 1.3515,-1.891 0.7188,-0.992 0.9023,-1.078 1.7071,-2.16 0.9023,-1.258 1.0781,-1.262 0.3594,-0.539 0.6289,-0.898 0.8125,-1.082 0.9922,-1.352 1.168,-1.527 1.3515,-1.801 1.6211,-2.07 5.8477,-7.922 h 22.8598 l 1.445,-0.27 1.348,-0.539 1.074,-0.812 0.906,-1.258 0.625,-1.348 0.273,-1.621 v -0.27 l -0.183,-1.71 -0.539,-1.438 -0.813,-1.262 -1.07,-0.992 -1.273,-0.719 -1.434,-0.179 -0.359,0.09 H 94.2305 L 105.742,86.1289 h 51.211 l 0.723,-0.1797 h 2.07 l 0.449,-0.0898 0.535,-0.086 1.985,-0.4531 1.797,-0.9883 1.621,-1.2656 1.445,-1.5273 1.172,-1.7969 0.812,-1.8906 0.262,-0.9883 0.09,-0.6328 0.184,-0.9883 v -1.4414" /></g></g></svg>