<?xml version="1.0" encoding="UTF-8" standalone="no"?>
<svg
   xmlns:dc="http://purl.org/dc/elements/1.1/"
   xmlns:cc="http://creativecommons.org/ns#"
   xmlns:rdf="http://www.w3.org/1999/02/22-rdf-syntax-ns#"
   xmlns:svg="http://www.w3.org/2000/svg"
   xmlns="http://www.w3.org/2000/svg"
   viewBox="0 0 15.12 14.4"
   height="14.4"
   width="15.12"
   xml:space="preserve"
   id="svg2"
   version="1.1"><metadata
     id="metadata8"><rdf:RDF><cc:Work
         rdf:about=""><dc:format>image/svg+xml</dc:format><dc:type
           rdf:resource="http://purl.org/dc/dcmitype/StillImage" /></cc:Work></rdf:RDF></metadata><defs
     id="defs6" /><g
     transform="matrix(1.3333333,0,0,-1.3333333,0,14.4)"
     id="g10"><g
       transform="scale(0.1)"
       id="g12"><path
         id="path14"
         style="fill:#000000;fill-opacity:1;fill-rule:nonzero;stroke:none"
         d="M 56.5195,25.9375 21.957,0.371094 35.2773,41.7773 0,68.4102 H 44.2773 L 56.8789,108.008 69.4805,68.4102 H 113.398 L 80.2812,43.9258 77.7656,42.1289 91.0742,0 56.5195,25.9375" /><path
         id="path16"
         style="fill:#ffffff;fill-opacity:1;fill-rule:nonzero;stroke:none"
         d="m 56.6094,66.9688 2.5234,-0.1797 2.5156,-0.5391 2.4336,-0.8086 2.2461,-1.2617 2.0703,-1.5274 1.8946,-1.8007 1.5234,-1.9844 1.3477,-2.2461 0.9062,-2.4297 0.625,-2.4336 0.2774,-2.6055 v -0.6289 l -0.1875,-2.5273 -0.5352,-2.5195 -0.8125,-2.4219 -1.2578,-2.2461 -1.5352,-2.168 -1.7968,-1.7968 -1.9844,-1.6211 -2.2422,-1.2696 -2.3477,-0.8984 -2.5117,-0.625 -2.6133,-0.2735 h -0.539 L 54,30.332 l -2.5195,0.5469 -2.3399,0.8008 -2.3437,1.2695 -2.0703,1.5235 -1.8907,1.7187 -1.5273,2.0703 -1.2578,2.1485 -0.9922,2.4414 -0.6289,2.4218 -0.2695,2.6172 v 0.6328 l 0.1796,2.6055 0.5391,2.5195 0.8086,2.3438 1.2578,2.3398 1.5352,2.0703 1.7968,1.8868 1.9844,1.5312 2.25,1.2578 2.4258,0.9922 2.4336,0.6289 2.6055,0.2696 h 0.6328" /></g></g></svg>