<?xml version="1.0" encoding="UTF-8" standalone="no"?>
<svg
   xmlns:dc="http://purl.org/dc/elements/1.1/"
   xmlns:cc="http://creativecommons.org/ns#"
   xmlns:rdf="http://www.w3.org/1999/02/22-rdf-syntax-ns#"
   xmlns:svg="http://www.w3.org/2000/svg"
   xmlns="http://www.w3.org/2000/svg"
   viewBox="0 0 14.72 9.2533331"
   height="9.2533331"
   width="14.72"
   xml:space="preserve"
   id="svg2"
   version="1.1"><metadata
     id="metadata8"><rdf:RDF><cc:Work
         rdf:about=""><dc:format>image/svg+xml</dc:format><dc:type
           rdf:resource="http://purl.org/dc/dcmitype/StillImage" /></cc:Work></rdf:RDF></metadata><defs
     id="defs6" /><g
     transform="matrix(1.3333333,0,0,-1.3333333,0,9.2533333)"
     id="g10"><g
       transform="scale(0.1)"
       id="g12"><path
         id="path14"
         style="fill:#000000;fill-opacity:1;fill-rule:nonzero;stroke:none"
         d="m 12.7773,69.3945 2.1641,-0.1797 2.0703,-0.5429 1.8906,-0.8086 1.7969,-1.2617 1.5313,-1.4375 1.3476,-1.711 0.9024,-1.8906 0.7187,-2.0703 0.2696,-2.0703 V 56.707 h 59.4921 l 0.1758,2.1563 0.5469,2.0703 0.8125,1.8906 1.2578,1.8008 1.4336,1.5273 1.7109,1.3477 1.8946,0.9062 2.0703,0.7149 2.0703,0.2734 h 0.8125 l 2.1562,-0.1797 2.0707,-0.5429 1.882,-0.8086 1.809,-1.2617 1.524,-1.4375 1.359,-1.711 0.894,-1.8906 0.715,-2.0703 0.274,-2.0703 v -0.8086 l -0.176,-2.1602 -0.547,-2.0703 -0.812,-1.8867 -1.258,-1.8047 -1.438,-1.5273 -1.707,-1.3516 -1.894,-0.8984 -2.071,-0.7188 -2.07,-0.2734 H 97.7461 V 0 H 75.0586 V 34.0234 H 35.3711 V 0 H 12.6914 V 43.9219 L 10.5312,44.1016 8.46094,44.6445 6.57031,45.457 4.76953,46.7148 3.24219,48.1562 1.89062,49.8633 0.992188,51.7539 0.269531,53.8242 0,55.8945 v 0.8125 l 0.179688,2.1563 0.542968,2.0703 0.804684,1.8906 1.26563,1.8008 1.4375,1.5273 1.71094,1.3477 1.89062,0.9062 2.07031,0.7149 2.07036,0.2734 h 0.8046" /></g></g></svg>