<?xml version="1.0" encoding="UTF-8" standalone="no"?>
<svg
   xmlns:dc="http://purl.org/dc/elements/1.1/"
   xmlns:cc="http://creativecommons.org/ns#"
   xmlns:rdf="http://www.w3.org/1999/02/22-rdf-syntax-ns#"
   xmlns:svg="http://www.w3.org/2000/svg"
   xmlns="http://www.w3.org/2000/svg"
   xmlns:sodipodi="http://sodipodi.sourceforge.net/DTD/sodipodi-0.dtd"
   xmlns:inkscape="http://www.inkscape.org/namespaces/inkscape"
   version="1.0"
   x="0px"
   y="0px"
   viewBox="0 0 10.770122 20"
   enable-background="new 0 0 100 100"
   xml:space="preserve"
   id="svg2"
   inkscape:version="0.91 r13725"
   sodipodi:docname="Kontrolltorn.svg"
   width="10.770122"
   height="20"><metadata
     id="metadata40"><rdf:RDF><cc:Work
         rdf:about=""><dc:format>image/svg+xml</dc:format><dc:type
           rdf:resource="http://purl.org/dc/dcmitype/StillImage" /><dc:title></dc:title></cc:Work></rdf:RDF></metadata><defs
     id="defs38" /><sodipodi:namedview
     pagecolor="#ffffff"
     bordercolor="#666666"
     borderopacity="1"
     objecttolerance="10"
     gridtolerance="10"
     guidetolerance="10"
     inkscape:pageopacity="0"
     inkscape:pageshadow="2"
     inkscape:window-width="1366"
     inkscape:window-height="705"
     id="namedview36"
     showgrid="false"
     fit-margin-top="0"
     fit-margin-left="0"
     fit-margin-right="0"
     fit-margin-bottom="0"
     inkscape:zoom="22.92"
     inkscape:cx="5.5330609"
     inkscape:cy="9.9398272"
     inkscape:window-x="-8"
     inkscape:window-y="-8"
     inkscape:window-maximized="1"
     inkscape:current-layer="svg2" /><g
     id="g4"
     transform="matrix(0.21050194,0,0,0.21050194,-5.1088821,-0.49152203)"
     style="fill:#ff0000;fill-opacity:1;stroke:#000000;stroke-opacity:1;stroke-width:0.475055;stroke-miterlimit:4;stroke-dasharray:none"><polygon
       points="39.596,48.08 38.248,43.617 34.197,41.984 35.87,46.719 "
       id="polygon6"
       style="fill:#ff0000;fill-opacity:1;stroke:#000000;stroke-opacity:1;stroke-width:0.475055;stroke-miterlimit:4;stroke-dasharray:none" /><polygon
       points="37.486,51.247 39.168,55.973 42.359,57.154 40.97,52.66 "
       id="polygon8"
       style="fill:#ff0000;fill-opacity:1;stroke:#000000;stroke-opacity:1;stroke-width:0.475055;stroke-miterlimit:4;stroke-dasharray:none" /><polygon
       points="41,52.625 46.818,52.586 46.377,48.069 39.597,48.081 "
       id="polygon10"
       style="fill:#ff0000;fill-opacity:1;stroke:#000000;stroke-opacity:1;stroke-width:0.475055;stroke-miterlimit:4;stroke-dasharray:none" /><polygon
       points="26.509,38.914 28.922,43.956 32.156,45.251 29.978,40.299 "
       id="polygon12"
       style="fill:#ff0000;fill-opacity:1;stroke:#000000;stroke-opacity:1;stroke-width:0.475055;stroke-miterlimit:4;stroke-dasharray:none" /><polygon
       points="31.176,48.666 33.687,53.912 36.419,54.938 34.173,49.895 "
       id="polygon14"
       style="fill:#ff0000;fill-opacity:1;stroke:#000000;stroke-opacity:1;stroke-width:0.475055;stroke-miterlimit:4;stroke-dasharray:none" /><polygon
       points="35.87,46.719 32.156,45.251 34.173,49.895 37.486,51.247 "
       id="polygon16"
       style="fill:#ff0000;fill-opacity:1;stroke:#000000;stroke-opacity:1;stroke-width:0.475055;stroke-miterlimit:4;stroke-dasharray:none" /><path
       d="m 75.359,34.161 0.075,-2.203 -4.52,-3.541 0,-3.947 3.054,-15.468 -2.076,-4.269 -12.905,-2.398 -19.842,0 -12.961,4.062 -0.652,2.483 3.174,15.304 0,4.27 -4.436,3.504 0,2.18 3.636,1.446 2.07,4.715 4.219,1.685 -1.606,-4.488 4.314,1.709 1.343,4.412 7.637,-0.049 -0.448,-4.413 8.833,0 -0.422,4.413 7.545,0.038 1.343,-4.412 4.313,-1.709 -1.605,4.488 4.219,-1.685 2.071,-4.715 3.627,-1.412 z M 29.848,24.497 26.71,9.112 l 11.253,2.215 1.432,15.785 -9.547,-2.615 z m 28.879,2.782 -17.73,0.037 -1.308,-15.792 20.619,-0.077 -1.581,15.832 z m 1.586,-0.178 1.313,-15.77 11.389,-2.149 -3.257,15.575 -9.445,2.344 z"
       id="path18"
       inkscape:connector-curvature="0"
       style="fill:#ff0000;fill-opacity:1;stroke:#000000;stroke-opacity:1;stroke-width:0.475055;stroke-miterlimit:4;stroke-dasharray:none" /><polygon
       points="62.154,51.235 58.623,52.668 60.043,48.069 53.394,48.11 53.848,43.568 45.884,43.568 46.377,48.069 53.376,48.11 52.955,52.586 58.627,52.638 57.284,57.112 52.508,57.114 52.053,61.729 47.773,61.738 47.298,57.105 42.359,57.154 43.773,61.796 40.797,60.589 39.168,55.973 36.419,54.938 38.471,59.627 35.912,58.562 35.973,58.688 35.973,94.365 43.198,97.346 56.386,97.346 63.67,94.292 63.67,58.619 63.696,58.563 61.169,59.615 63.221,54.928 60.472,55.961 58.842,60.578 55.866,61.784 57.28,57.142 60.472,55.961 "
       id="polygon20"
       style="fill:#ff0000;fill-opacity:1;stroke:#000000;stroke-opacity:1;stroke-width:0.475055;stroke-miterlimit:4;stroke-dasharray:none" /><polygon
       points="47.298,57.105 52.508,57.114 52.955,52.586 46.818,52.586 "
       id="polygon22"
       style="fill:#ff0000;fill-opacity:1;stroke:#000000;stroke-opacity:1;stroke-width:0.475055;stroke-miterlimit:4;stroke-dasharray:none" /><polygon
       points="62.154,51.235 65.467,49.883 67.483,45.24 63.77,46.707 "
       id="polygon24"
       style="fill:#ff0000;fill-opacity:1;stroke:#000000;stroke-opacity:1;stroke-width:0.475055;stroke-miterlimit:4;stroke-dasharray:none" /><polygon
       points="70.716,43.94 73.142,38.888 69.662,40.288 67.483,45.24 "
       id="polygon26"
       style="fill:#ff0000;fill-opacity:1;stroke:#000000;stroke-opacity:1;stroke-width:0.475055;stroke-miterlimit:4;stroke-dasharray:none" /><polygon
       points="65.93,53.91 68.451,48.659 65.467,49.883 63.221,54.928 "
       id="polygon28"
       style="fill:#ff0000;fill-opacity:1;stroke:#000000;stroke-opacity:1;stroke-width:0.475055;stroke-miterlimit:4;stroke-dasharray:none" /><polygon
       points="63.77,46.707 65.443,41.973 61.393,43.606 60.11,48.045 "
       id="polygon30"
       style="fill:#ff0000;fill-opacity:1;stroke:#000000;stroke-opacity:1;stroke-width:0.475055;stroke-miterlimit:4;stroke-dasharray:none" /></g></svg>