<?xml version="1.0" encoding="UTF-8" standalone="no"?>
<svg
   xmlns:dc="http://purl.org/dc/elements/1.1/"
   xmlns:cc="http://creativecommons.org/ns#"
   xmlns:rdf="http://www.w3.org/1999/02/22-rdf-syntax-ns#"
   xmlns:svg="http://www.w3.org/2000/svg"
   xmlns="http://www.w3.org/2000/svg"
   viewBox="0 0 9.8933334 9.8933334"
   height="9.8933334"
   width="9.8933334"
   xml:space="preserve"
   id="svg2"
   version="1.1"><metadata
     id="metadata8"><rdf:RDF><cc:Work
         rdf:about=""><dc:format>image/svg+xml</dc:format><dc:type
           rdf:resource="http://purl.org/dc/dcmitype/StillImage" /></cc:Work></rdf:RDF></metadata><defs
     id="defs6" /><g
     transform="matrix(1.3333333,0,0,-1.3333333,0,9.8933333)"
     id="g10"><g
       transform="scale(0.1)"
       id="g12"><path
         id="path14"
         style="fill:#000000;fill-opacity:1;fill-rule:nonzero;stroke:none"
         d="m 6.03125,74.1602 18.35935,-18.3594 1.1719,0.8086 2.5195,1.2617 2.6992,1.0781 2.7891,0.6289 2.7852,0.1836 2.9765,-0.0937 2.6992,-0.4492 2.793,-0.8126 2.6094,-1.164 2.4297,-1.3516 18.2734,18.2696 6.0235,-6.0313 -18.3594,-18.3594 0.8086,-1.1718 1.2617,-2.5196 1.0742,-2.6992 0.6367,-2.7891 0.1758,-2.7929 L 59.668,34.8281 59.2188,32.1289 58.4062,29.3359 57.2344,26.7266 55.8906,24.2969 74.1602,5.9375 68.2227,0 49.7656,18.3594 l -1.1601,-0.8086 -2.5196,-1.2617 -2.707,-1.086 -2.7891,-0.625 -2.7929,-0.1758 -2.9688,0.0899 -2.6992,0.4492 -2.7891,0.8125 -2.6093,1.1719 -2.4297,1.3437 L 5.9375,0 0,5.9375 l 18.3594,18.457 -0.8086,1.1602 -1.2617,2.5312 -1.0782,2.6953 -0.6289,2.793 -0.1836,2.7891 0.0938,2.9687 0.4492,2.6992 0.8125,2.7891 1.1641,2.6094 1.3515,2.4297 L 0,68.1289 6.03125,74.1602" /></g></g></svg>