<?xml version="1.0" encoding="UTF-8" standalone="no"?>
<!-- Created by Vectric (http://www.vectric.com/) -->

<svg
   xmlns:dc="http://purl.org/dc/elements/1.1/"
   xmlns:cc="http://creativecommons.org/ns#"
   xmlns:rdf="http://www.w3.org/1999/02/22-rdf-syntax-ns#"
   xmlns:svg="http://www.w3.org/2000/svg"
   xmlns="http://www.w3.org/2000/svg"
   xmlns:sodipodi="http://sodipodi.sourceforge.net/DTD/sodipodi-0.dtd"
   xmlns:inkscape="http://www.inkscape.org/namespaces/inkscape"
   width="8.94039639mm"
   height="8.94039639mm"
   viewBox="0 0 8.94039639 8.94039639"
   id="svg2"
   version="1.1"
   inkscape:version="0.91 r13725"
   sodipodi:docname="NDB.svg">
  <metadata
     id="metadata155">
    <rdf:RDF>
      <cc:Work
         rdf:about="">
        <dc:format>image/svg+xml</dc:format>
        <dc:type
           rdf:resource="http://purl.org/dc/dcmitype/StillImage" />
      </cc:Work>
    </rdf:RDF>
  </metadata>
  <defs
     id="defs153" />
  <sodipodi:namedview
     pagecolor="#ffffff"
     bordercolor="#666666"
     borderopacity="1"
     objecttolerance="10"
     gridtolerance="10"
     guidetolerance="10"
     inkscape:pageopacity="0"
     inkscape:pageshadow="2"
     inkscape:window-width="1366"
     inkscape:window-height="705"
     id="namedview151"
     showgrid="false"
     inkscape:zoom="15.684285"
     inkscape:cx="11.176959"
     inkscape:cy="15.741285"
     inkscape:window-x="-8"
     inkscape:window-y="-8"
     inkscape:window-maximized="1"
     inkscape:current-layer="d5d67a5a-1c56-439a-9b11-24cea6d65eab" />
  <g
     inkscape:groupmode="layer"
     id="350f65ba-abf8-41e2-b810-6374299eb6a6"
     inkscape:label="Bitmap Layer" />
  <g
     inkscape:groupmode="layer"
     id="d5d67a5a-1c56-439a-9b11-24cea6d65eab"
     inkscape:label="Layer 1">
    <path
       style="fill:#0000ff;stroke-width:0.11288889;stroke-linecap:round;stroke-linejoin:round;stroke-opacity:1;stroke:#0000ff;stroke-miterlimit:4;stroke-dasharray:none;fill-opacity:1"
       d="M 4.470198,4.219883 A 0.250000,0.250000 0 0,0 4.220198,4.469883 A 0.250000,0.250000 0 0,0 4.470198,4.719883 A 0.250000,0.250000 0 0,0 4.720198,4.469883 A 0.250000,0.250000 0 0,0 4.470198,4.219883 "
       id="path5" />
    <path
       style="fill:#0000ff;stroke-width:0.11288889;stroke-linecap:round;stroke-linejoin:round;stroke-opacity:1;stroke:#0000ff;stroke-miterlimit:4;stroke-dasharray:none;fill-opacity:1"
       d="M 4.470198,2.550000 A 0.250000,0.250000 0 0,0 4.220198,2.800000 A 0.250000,0.250000 0 0,0 4.470198,3.050000 A 0.250000,0.250000 0 0,0 4.720198,2.800000 A 0.250000,0.250000 0 0,0 4.470198,2.550000 "
       id="path7" />
    <path
       style="fill:#0000ff;stroke-width:0.11288889;stroke-linecap:round;stroke-linejoin:round;stroke-opacity:1;stroke:#0000ff;stroke-miterlimit:4;stroke-dasharray:none;fill-opacity:1"
       d="M 4.470198,1.700000 A 0.250000,0.250000 0 0,0 4.220198,1.950000 A 0.250000,0.250000 0 0,0 4.470198,2.200000 A 0.250000,0.250000 0 0,0 4.720198,1.950000 A 0.250000,0.250000 0 0,0 4.470198,1.700000 "
       id="path9" />
    <path
       style="fill:#0000ff;stroke-width:0.11288889;stroke-linecap:round;stroke-linejoin:round;stroke-opacity:1;stroke:#0000ff;stroke-miterlimit:4;stroke-dasharray:none;fill-opacity:1"
       d="M 4.470198,0.850000 A 0.250000,0.250000 0 0,0 4.220198,1.100000 A 0.250000,0.250000 0 0,0 4.470198,1.350000 A 0.250000,0.250000 0 0,0 4.720198,1.100000 A 0.250000,0.250000 0 0,0 4.470198,0.850000 "
       id="path11" />
    <path
       style="fill:#0000ff;stroke-width:0.11288889;stroke-linecap:round;stroke-linejoin:round;stroke-opacity:1;stroke:#0000ff;stroke-miterlimit:4;stroke-dasharray:none;fill-opacity:1"
       d="M 4.470198,0.000000 A 0.250000,0.250000 0 0,0 4.220198,0.250000 A 0.250000,0.250000 0 0,0 4.470198,0.500000 A 0.250000,0.250000 0 0,0 4.720198,0.250000 A 0.250000,0.250000 0 0,0 4.470198,0.000000 "
       id="path13" />
    <path
       style="fill:#0000ff;stroke-width:0.11288889;stroke-linecap:round;stroke-linejoin:round;stroke-opacity:1;stroke:#0000ff;stroke-miterlimit:4;stroke-dasharray:none;fill-opacity:1"
       d="M 5.430297,2.807258 A 0.250000,0.250000 0 0,0 5.088791,2.898764 A 0.250000,0.250000 0 0,0 5.180297,3.240270 A 0.250000,0.250000 0 0,0 5.521804,3.148764 A 0.250000,0.250000 0 0,0 5.430297,2.807258 "
       id="path15" />
    <path
       style="fill:#0000ff;stroke-width:0.11288889;stroke-linecap:round;stroke-linejoin:round;stroke-opacity:1;stroke:#0000ff;stroke-miterlimit:4;stroke-dasharray:none;fill-opacity:1"
       d="M 6.133139,3.510099 A 0.250000,0.250000 0 0,0 5.791632,3.418593 A 0.250000,0.250000 0 0,0 5.700126,3.760099 A 0.250000,0.250000 0 0,0 6.041632,3.851605 A 0.250000,0.250000 0 0,0 6.133139,3.510099 "
       id="path17" />
    <path
       style="fill:#0000ff;stroke-width:0.11288889;stroke-linecap:round;stroke-linejoin:round;stroke-opacity:1;stroke:#0000ff;stroke-miterlimit:4;stroke-dasharray:none;fill-opacity:1"
       d="M 6.390396,4.470198 A 0.250000,0.250000 0 0,0 6.140396,4.220198 A 0.250000,0.250000 0 0,0 5.890396,4.470198 A 0.250000,0.250000 0 0,0 6.140396,4.720198 A 0.250000,0.250000 0 0,0 6.390396,4.470198 "
       id="path19" />
    <path
       style="fill:#0000ff;stroke-width:0.11288889;stroke-linecap:round;stroke-linejoin:round;stroke-opacity:1;stroke:#0000ff;stroke-miterlimit:4;stroke-dasharray:none;fill-opacity:1"
       d="M 6.133139,5.430297 A 0.250000,0.250000 0 0,0 6.041632,5.088791 A 0.250000,0.250000 0 0,0 5.700126,5.180297 A 0.250000,0.250000 0 0,0 5.791632,5.521804 A 0.250000,0.250000 0 0,0 6.133139,5.430297 "
       id="path21" />
    <path
       style="fill:#0000ff;stroke-width:0.11288889;stroke-linecap:round;stroke-linejoin:round;stroke-opacity:1;stroke:#0000ff;stroke-miterlimit:4;stroke-dasharray:none;fill-opacity:1"
       d="M 5.430297,6.133139 A 0.250000,0.250000 0 0,0 5.521804,5.791632 A 0.250000,0.250000 0 0,0 5.180297,5.700126 A 0.250000,0.250000 0 0,0 5.088791,6.041632 A 0.250000,0.250000 0 0,0 5.430297,6.133139 "
       id="path23" />
    <path
       style="fill:#0000ff;stroke-width:0.11288889;stroke-linecap:round;stroke-linejoin:round;stroke-opacity:1;stroke:#0000ff;stroke-miterlimit:4;stroke-dasharray:none;fill-opacity:1"
       d="M 4.470198,6.390396 A 0.250000,0.250000 0 0,0 4.720198,6.140396 A 0.250000,0.250000 0 0,0 4.470198,5.890396 A 0.250000,0.250000 0 0,0 4.220198,6.140396 A 0.250000,0.250000 0 0,0 4.470198,6.390396 "
       id="path25" />
    <path
       style="fill:#0000ff;stroke-width:0.11288889;stroke-linecap:round;stroke-linejoin:round;stroke-opacity:1;stroke:#0000ff;stroke-miterlimit:4;stroke-dasharray:none;fill-opacity:1"
       d="M 3.510099,6.133139 A 0.250000,0.250000 0 0,0 3.851605,6.041632 A 0.250000,0.250000 0 0,0 3.760099,5.700126 A 0.250000,0.250000 0 0,0 3.418593,5.791632 A 0.250000,0.250000 0 0,0 3.510099,6.133139 "
       id="path27" />
    <path
       style="fill:#0000ff;stroke-width:0.11288889;stroke-linecap:round;stroke-linejoin:round;stroke-opacity:1;stroke:#0000ff;stroke-miterlimit:4;stroke-dasharray:none;fill-opacity:1"
       d="M 2.807258,5.430297 A 0.250000,0.250000 0 0,0 3.148764,5.521804 A 0.250000,0.250000 0 0,0 3.240270,5.180297 A 0.250000,0.250000 0 0,0 2.898764,5.088791 A 0.250000,0.250000 0 0,0 2.807258,5.430297 "
       id="path29" />
    <path
       style="fill:#0000ff;stroke-width:0.11288889;stroke-linecap:round;stroke-linejoin:round;stroke-opacity:1;stroke:#0000ff;stroke-miterlimit:4;stroke-dasharray:none;fill-opacity:1"
       d="M 2.550000,4.470198 A 0.250000,0.250000 0 0,0 2.800000,4.720198 A 0.250000,0.250000 0 0,0 3.050000,4.470198 A 0.250000,0.250000 0 0,0 2.800000,4.220198 A 0.250000,0.250000 0 0,0 2.550000,4.470198 "
       id="path31" />
    <path
       style="fill:#0000ff;stroke-width:0.11288889;stroke-linecap:round;stroke-linejoin:round;stroke-opacity:1;stroke:#0000ff;stroke-miterlimit:4;stroke-dasharray:none;fill-opacity:1"
       d="M 2.807258,3.510099 A 0.250000,0.250000 0 0,0 2.898764,3.851605 A 0.250000,0.250000 0 0,0 3.240270,3.760099 A 0.250000,0.250000 0 0,0 3.148764,3.418593 A 0.250000,0.250000 0 0,0 2.807258,3.510099 "
       id="path33" />
    <path
       style="fill:#0000ff;stroke-width:0.11288889;stroke-linecap:round;stroke-linejoin:round;stroke-opacity:1;stroke:#0000ff;stroke-miterlimit:4;stroke-dasharray:none;fill-opacity:1"
       d="M 3.510099,2.807258 A 0.250000,0.250000 0 0,0 3.418593,3.148764 A 0.250000,0.250000 0 0,0 3.760099,3.240270 A 0.250000,0.250000 0 0,0 3.851605,2.898764 A 0.250000,0.250000 0 0,0 3.510099,2.807258 "
       id="path35" />
    <path
       style="fill:#0000ff;stroke-width:0.11288889;stroke-linecap:round;stroke-linejoin:round;stroke-opacity:1;stroke:#0000ff;stroke-miterlimit:4;stroke-dasharray:none;fill-opacity:1"
       d="M 5.530307,1.910869 A 0.250000,0.250000 0 0,0 5.203666,2.046168 A 0.250000,0.250000 0 0,0 5.338965,2.372809 A 0.250000,0.250000 0 0,0 5.665606,2.237510 A 0.250000,0.250000 0 0,0 5.530307,1.910869 "
       id="path37" />
    <path
       style="fill:#0000ff;stroke-width:0.11288889;stroke-linecap:round;stroke-linejoin:round;stroke-opacity:1;stroke:#0000ff;stroke-miterlimit:4;stroke-dasharray:none;fill-opacity:1"
       d="M 6.429024,2.511372 A 0.250000,0.250000 0 0,0 6.075471,2.511372 A 0.250000,0.250000 0 0,0 6.075471,2.864926 A 0.250000,0.250000 0 0,0 6.429024,2.864926 A 0.250000,0.250000 0 0,0 6.429024,2.511372 "
       id="path39" />
    <path
       style="fill:#0000ff;stroke-width:0.11288889;stroke-linecap:round;stroke-linejoin:round;stroke-opacity:1;stroke:#0000ff;stroke-miterlimit:4;stroke-dasharray:none;fill-opacity:1"
       d="M 7.029528,3.410089 A 0.250000,0.250000 0 0,0 6.702887,3.274790 A 0.250000,0.250000 0 0,0 6.567588,3.601431 A 0.250000,0.250000 0 0,0 6.894229,3.736730 A 0.250000,0.250000 0 0,0 7.029528,3.410089 "
       id="path41" />
    <path
       style="fill:#0000ff;stroke-width:0.11288889;stroke-linecap:round;stroke-linejoin:round;stroke-opacity:1;stroke:#0000ff;stroke-miterlimit:4;stroke-dasharray:none;fill-opacity:1"
       d="M 7.240396,4.470198 A 0.250000,0.250000 0 0,0 6.990396,4.220198 A 0.250000,0.250000 0 0,0 6.740396,4.470198 A 0.250000,0.250000 0 0,0 6.990396,4.720198 A 0.250000,0.250000 0 0,0 7.240396,4.470198 "
       id="path43" />
    <path
       style="fill:#0000ff;stroke-width:0.11288889;stroke-linecap:round;stroke-linejoin:round;stroke-opacity:1;stroke:#0000ff;stroke-miterlimit:4;stroke-dasharray:none;fill-opacity:1"
       d="M 7.029528,5.530307 A 0.250000,0.250000 0 0,0 6.894229,5.203666 A 0.250000,0.250000 0 0,0 6.567588,5.338965 A 0.250000,0.250000 0 0,0 6.702887,5.665606 A 0.250000,0.250000 0 0,0 7.029528,5.530307 "
       id="path45" />
    <path
       style="fill:#0000ff;stroke-width:0.11288889;stroke-linecap:round;stroke-linejoin:round;stroke-opacity:1;stroke:#0000ff;stroke-miterlimit:4;stroke-dasharray:none;fill-opacity:1"
       d="M 6.429024,6.429024 A 0.250000,0.250000 0 0,0 6.429024,6.075471 A 0.250000,0.250000 0 0,0 6.075471,6.075471 A 0.250000,0.250000 0 0,0 6.075471,6.429024 A 0.250000,0.250000 0 0,0 6.429024,6.429024 "
       id="path47" />
    <path
       style="fill:#0000ff;stroke-width:0.11288889;stroke-linecap:round;stroke-linejoin:round;stroke-opacity:1;stroke:#0000ff;stroke-miterlimit:4;stroke-dasharray:none;fill-opacity:1"
       d="M 5.530307,7.029528 A 0.250000,0.250000 0 0,0 5.665606,6.702887 A 0.250000,0.250000 0 0,0 5.338965,6.567588 A 0.250000,0.250000 0 0,0 5.203666,6.894229 A 0.250000,0.250000 0 0,0 5.530307,7.029528 "
       id="path49" />
    <path
       style="fill:#0000ff;stroke-width:0.11288889;stroke-linecap:round;stroke-linejoin:round;stroke-opacity:1;stroke:#0000ff;stroke-miterlimit:4;stroke-dasharray:none;fill-opacity:1"
       d="M 4.470198,7.240396 A 0.250000,0.250000 0 0,0 4.720198,6.990396 A 0.250000,0.250000 0 0,0 4.470198,6.740396 A 0.250000,0.250000 0 0,0 4.220198,6.990396 A 0.250000,0.250000 0 0,0 4.470198,7.240396 "
       id="path51" />
    <path
       style="fill:#0000ff;stroke-width:0.11288889;stroke-linecap:round;stroke-linejoin:round;stroke-opacity:1;stroke:#0000ff;stroke-miterlimit:4;stroke-dasharray:none;fill-opacity:1"
       d="M 3.410089,7.029528 A 0.250000,0.250000 0 0,0 3.736730,6.894229 A 0.250000,0.250000 0 0,0 3.601431,6.567588 A 0.250000,0.250000 0 0,0 3.274790,6.702887 A 0.250000,0.250000 0 0,0 3.410089,7.029528 "
       id="path53" />
    <path
       style="fill:#0000ff;stroke-width:0.11288889;stroke-linecap:round;stroke-linejoin:round;stroke-opacity:1;stroke:#0000ff;stroke-miterlimit:4;stroke-dasharray:none;fill-opacity:1"
       d="M 2.511372,6.429024 A 0.250000,0.250000 0 0,0 2.864926,6.429024 A 0.250000,0.250000 0 0,0 2.864926,6.075471 A 0.250000,0.250000 0 0,0 2.511372,6.075471 A 0.250000,0.250000 0 0,0 2.511372,6.429024 "
       id="path55" />
    <path
       style="fill:#0000ff;stroke-width:0.11288889;stroke-linecap:round;stroke-linejoin:round;stroke-opacity:1;stroke:#0000ff;stroke-miterlimit:4;stroke-dasharray:none;fill-opacity:1"
       d="M 1.910869,5.530307 A 0.250000,0.250000 0 0,0 2.237510,5.665606 A 0.250000,0.250000 0 0,0 2.372809,5.338965 A 0.250000,0.250000 0 0,0 2.046168,5.203666 A 0.250000,0.250000 0 0,0 1.910869,5.530307 "
       id="path57" />
    <path
       style="fill:#0000ff;stroke-width:0.11288889;stroke-linecap:round;stroke-linejoin:round;stroke-opacity:1;stroke:#0000ff;stroke-miterlimit:4;stroke-dasharray:none;fill-opacity:1"
       d="M 1.700000,4.470198 A 0.250000,0.250000 0 0,0 1.950000,4.720198 A 0.250000,0.250000 0 0,0 2.200000,4.470198 A 0.250000,0.250000 0 0,0 1.950000,4.220198 A 0.250000,0.250000 0 0,0 1.700000,4.470198 "
       id="path59" />
    <path
       style="fill:#0000ff;stroke-width:0.11288889;stroke-linecap:round;stroke-linejoin:round;stroke-opacity:1;stroke:#0000ff;stroke-miterlimit:4;stroke-dasharray:none;fill-opacity:1"
       d="M 1.910869,3.410089 A 0.250000,0.250000 0 0,0 2.046168,3.736730 A 0.250000,0.250000 0 0,0 2.372809,3.601431 A 0.250000,0.250000 0 0,0 2.237510,3.274790 A 0.250000,0.250000 0 0,0 1.910869,3.410089 "
       id="path61" />
    <path
       style="fill:#0000ff;stroke-width:0.11288889;stroke-linecap:round;stroke-linejoin:round;stroke-opacity:1;stroke:#0000ff;stroke-miterlimit:4;stroke-dasharray:none;fill-opacity:1"
       d="M 2.511372,2.511372 A 0.250000,0.250000 0 0,0 2.511372,2.864926 A 0.250000,0.250000 0 0,0 2.864926,2.864926 A 0.250000,0.250000 0 0,0 2.864926,2.511372 A 0.250000,0.250000 0 0,0 2.511372,2.511372 "
       id="path63" />
    <path
       style="fill:#0000ff;stroke-width:0.11288889;stroke-linecap:round;stroke-linejoin:round;stroke-opacity:1;stroke:#0000ff;stroke-miterlimit:4;stroke-dasharray:none;fill-opacity:1"
       d="M 3.410089,1.910869 A 0.250000,0.250000 0 0,0 3.274790,2.237510 A 0.250000,0.250000 0 0,0 3.601431,2.372809 A 0.250000,0.250000 0 0,0 3.736730,2.046168 A 0.250000,0.250000 0 0,0 3.410089,1.910869 "
       id="path65" />
    <path
       style="fill:#0000ff;stroke-width:0.11288889;stroke-linecap:round;stroke-linejoin:round;stroke-opacity:1;stroke:#0000ff;stroke-miterlimit:4;stroke-dasharray:none;fill-opacity:1"
       d="M 5.588901,1.027185 A 0.250000,0.250000 0 0,0 5.273883,1.187695 A 0.250000,0.250000 0 0,0 5.434392,1.502713 A 0.250000,0.250000 0 0,0 5.749411,1.342203 A 0.250000,0.250000 0 0,0 5.588901,1.027185 "
       id="path67" />
    <path
       style="fill:#0000ff;stroke-width:0.11288889;stroke-linecap:round;stroke-linejoin:round;stroke-opacity:1;stroke:#0000ff;stroke-miterlimit:4;stroke-dasharray:none;fill-opacity:1"
       d="M 6.598097,1.541396 A 0.250000,0.250000 0 0,0 6.248897,1.596704 A 0.250000,0.250000 0 0,0 6.304205,1.945905 A 0.250000,0.250000 0 0,0 6.653405,1.890597 A 0.250000,0.250000 0 0,0 6.598097,1.541396 "
       id="path69" />
    <path
       style="fill:#0000ff;stroke-width:0.11288889;stroke-linecap:round;stroke-linejoin:round;stroke-opacity:1;stroke:#0000ff;stroke-miterlimit:4;stroke-dasharray:none;fill-opacity:1"
       d="M 7.399000,2.342299 A 0.250000,0.250000 0 0,0 7.049799,2.286991 A 0.250000,0.250000 0 0,0 6.994492,2.636192 A 0.250000,0.250000 0 0,0 7.343692,2.691500 A 0.250000,0.250000 0 0,0 7.399000,2.342299 "
       id="path71" />
    <path
       style="fill:#0000ff;stroke-width:0.11288889;stroke-linecap:round;stroke-linejoin:round;stroke-opacity:1;stroke:#0000ff;stroke-miterlimit:4;stroke-dasharray:none;fill-opacity:1"
       d="M 7.913211,3.351495 A 0.250000,0.250000 0 0,0 7.598193,3.190986 A 0.250000,0.250000 0 0,0 7.437683,3.506004 A 0.250000,0.250000 0 0,0 7.752701,3.666514 A 0.250000,0.250000 0 0,0 7.913211,3.351495 "
       id="path73" />
    <path
       style="fill:#0000ff;stroke-width:0.11288889;stroke-linecap:round;stroke-linejoin:round;stroke-opacity:1;stroke:#0000ff;stroke-miterlimit:4;stroke-dasharray:none;fill-opacity:1"
       d="M 8.090396,4.470198 A 0.250000,0.250000 0 0,0 7.840396,4.220198 A 0.250000,0.250000 0 0,0 7.590396,4.470198 A 0.250000,0.250000 0 0,0 7.840396,4.720198 A 0.250000,0.250000 0 0,0 8.090396,4.470198 "
       id="path75" />
    <path
       style="fill:#0000ff;stroke-width:0.11288889;stroke-linecap:round;stroke-linejoin:round;stroke-opacity:1;stroke:#0000ff;stroke-miterlimit:4;stroke-dasharray:none;fill-opacity:1"
       d="M 7.913211,5.588901 A 0.250000,0.250000 0 0,0 7.752701,5.273883 A 0.250000,0.250000 0 0,0 7.437683,5.434392 A 0.250000,0.250000 0 0,0 7.598193,5.749411 A 0.250000,0.250000 0 0,0 7.913211,5.588901 "
       id="path77" />
    <path
       style="fill:#0000ff;stroke-width:0.11288889;stroke-linecap:round;stroke-linejoin:round;stroke-opacity:1;stroke:#0000ff;stroke-miterlimit:4;stroke-dasharray:none;fill-opacity:1"
       d="M 7.399000,6.598097 A 0.250000,0.250000 0 0,0 7.343692,6.248897 A 0.250000,0.250000 0 0,0 6.994492,6.304205 A 0.250000,0.250000 0 0,0 7.049799,6.653405 A 0.250000,0.250000 0 0,0 7.399000,6.598097 "
       id="path79" />
    <path
       style="fill:#0000ff;stroke-width:0.11288889;stroke-linecap:round;stroke-linejoin:round;stroke-opacity:1;stroke:#0000ff;stroke-miterlimit:4;stroke-dasharray:none;fill-opacity:1"
       d="M 6.598097,7.399000 A 0.250000,0.250000 0 0,0 6.653405,7.049799 A 0.250000,0.250000 0 0,0 6.304205,6.994492 A 0.250000,0.250000 0 0,0 6.248897,7.343692 A 0.250000,0.250000 0 0,0 6.598097,7.399000 "
       id="path81" />
    <path
       style="fill:#0000ff;stroke-width:0.11288889;stroke-linecap:round;stroke-linejoin:round;stroke-opacity:1;stroke:#0000ff;stroke-miterlimit:4;stroke-dasharray:none;fill-opacity:1"
       d="M 5.588901,7.913211 A 0.250000,0.250000 0 0,0 5.749411,7.598193 A 0.250000,0.250000 0 0,0 5.434392,7.437683 A 0.250000,0.250000 0 0,0 5.273883,7.752701 A 0.250000,0.250000 0 0,0 5.588901,7.913211 "
       id="path83" />
    <path
       style="fill:#0000ff;stroke-width:0.11288889;stroke-linecap:round;stroke-linejoin:round;stroke-opacity:1;stroke:#0000ff;stroke-miterlimit:4;stroke-dasharray:none;fill-opacity:1"
       d="M 4.470198,8.090396 A 0.250000,0.250000 0 0,0 4.720198,7.840396 A 0.250000,0.250000 0 0,0 4.470198,7.590396 A 0.250000,0.250000 0 0,0 4.220198,7.840396 A 0.250000,0.250000 0 0,0 4.470198,8.090396 "
       id="path85" />
    <path
       style="fill:#0000ff;stroke-width:0.11288889;stroke-linecap:round;stroke-linejoin:round;stroke-opacity:1;stroke:#0000ff;stroke-miterlimit:4;stroke-dasharray:none;fill-opacity:1"
       d="M 3.351495,7.913211 A 0.250000,0.250000 0 0,0 3.666514,7.752701 A 0.250000,0.250000 0 0,0 3.506004,7.437683 A 0.250000,0.250000 0 0,0 3.190986,7.598193 A 0.250000,0.250000 0 0,0 3.351495,7.913211 "
       id="path87" />
    <path
       style="fill:#0000ff;stroke-width:0.11288889;stroke-linecap:round;stroke-linejoin:round;stroke-opacity:1;stroke:#0000ff;stroke-miterlimit:4;stroke-dasharray:none;fill-opacity:1"
       d="M 2.342299,7.399000 A 0.250000,0.250000 0 0,0 2.691500,7.343692 A 0.250000,0.250000 0 0,0 2.636192,6.994492 A 0.250000,0.250000 0 0,0 2.286991,7.049799 A 0.250000,0.250000 0 0,0 2.342299,7.399000 "
       id="path89" />
    <path
       style="fill:#0000ff;stroke-width:0.11288889;stroke-linecap:round;stroke-linejoin:round;stroke-opacity:1;stroke:#0000ff;stroke-miterlimit:4;stroke-dasharray:none;fill-opacity:1"
       d="M 1.541396,6.598097 A 0.250000,0.250000 0 0,0 1.890597,6.653405 A 0.250000,0.250000 0 0,0 1.945905,6.304205 A 0.250000,0.250000 0 0,0 1.596704,6.248897 A 0.250000,0.250000 0 0,0 1.541396,6.598097 "
       id="path91" />
    <path
       style="fill:#0000ff;stroke-width:0.11288889;stroke-linecap:round;stroke-linejoin:round;stroke-opacity:1;stroke:#0000ff;stroke-miterlimit:4;stroke-dasharray:none;fill-opacity:1"
       d="M 1.027185,5.588901 A 0.250000,0.250000 0 0,0 1.342203,5.749411 A 0.250000,0.250000 0 0,0 1.502713,5.434392 A 0.250000,0.250000 0 0,0 1.187695,5.273883 A 0.250000,0.250000 0 0,0 1.027185,5.588901 "
       id="path93" />
    <path
       style="fill:#0000ff;stroke-width:0.11288889;stroke-linecap:round;stroke-linejoin:round;stroke-opacity:1;stroke:#0000ff;stroke-miterlimit:4;stroke-dasharray:none;fill-opacity:1"
       d="M 0.850000,4.470198 A 0.250000,0.250000 0 0,0 1.100000,4.720198 A 0.250000,0.250000 0 0,0 1.350000,4.470198 A 0.250000,0.250000 0 0,0 1.100000,4.220198 A 0.250000,0.250000 0 0,0 0.850000,4.470198 "
       id="path95" />
    <path
       style="fill:#0000ff;stroke-width:0.11288889;stroke-linecap:round;stroke-linejoin:round;stroke-opacity:1;stroke:#0000ff;stroke-miterlimit:4;stroke-dasharray:none;fill-opacity:1"
       d="M 1.027185,3.351495 A 0.250000,0.250000 0 0,0 1.187695,3.666514 A 0.250000,0.250000 0 0,0 1.502713,3.506004 A 0.250000,0.250000 0 0,0 1.342203,3.190986 A 0.250000,0.250000 0 0,0 1.027185,3.351495 "
       id="path97" />
    <path
       style="fill:#0000ff;stroke-width:0.11288889;stroke-linecap:round;stroke-linejoin:round;stroke-opacity:1;stroke:#0000ff;stroke-miterlimit:4;stroke-dasharray:none;fill-opacity:1"
       d="M 1.541396,2.342299 A 0.250000,0.250000 0 0,0 1.596704,2.691500 A 0.250000,0.250000 0 0,0 1.945905,2.636192 A 0.250000,0.250000 0 0,0 1.890597,2.286991 A 0.250000,0.250000 0 0,0 1.541396,2.342299 "
       id="path99" />
    <path
       style="fill:#0000ff;stroke-width:0.11288889;stroke-linecap:round;stroke-linejoin:round;stroke-opacity:1;stroke:#0000ff;stroke-miterlimit:4;stroke-dasharray:none;fill-opacity:1"
       d="M 2.342299,1.541396 A 0.250000,0.250000 0 0,0 2.286991,1.890597 A 0.250000,0.250000 0 0,0 2.636192,1.945905 A 0.250000,0.250000 0 0,0 2.691500,1.596704 A 0.250000,0.250000 0 0,0 2.342299,1.541396 "
       id="path101" />
    <path
       style="fill:#0000ff;stroke-width:0.11288889;stroke-linecap:round;stroke-linejoin:round;stroke-opacity:1;stroke:#0000ff;stroke-miterlimit:4;stroke-dasharray:none;fill-opacity:1"
       d="M 3.351495,1.027185 A 0.250000,0.250000 0 0,0 3.190986,1.342203 A 0.250000,0.250000 0 0,0 3.506004,1.502713 A 0.250000,0.250000 0 0,0 3.666514,1.187695 A 0.250000,0.250000 0 0,0 3.351495,1.027185 "
       id="path103" />
    <path
       style="fill:#0000ff;stroke-width:0.11288889;stroke-linecap:round;stroke-linejoin:round;stroke-opacity:1;stroke:#0000ff;stroke-miterlimit:4;stroke-dasharray:none;fill-opacity:1"
       d="M 5.627171,0.152318 A 0.250000,0.250000 0 0,0 5.320984,0.329095 A 0.250000,0.250000 0 0,0 5.497761,0.635281 A 0.250000,0.250000 0 0,0 5.803947,0.458505 A 0.250000,0.250000 0 0,0 5.627171,0.152318 "
       id="path105" />
    <path
       style="fill:#0000ff;stroke-width:0.11288889;stroke-linecap:round;stroke-linejoin:round;stroke-opacity:1;stroke:#0000ff;stroke-miterlimit:4;stroke-dasharray:none;fill-opacity:1"
       d="M 6.705297,0.598893 A 0.250000,0.250000 0 0,0 6.363791,0.690399 A 0.250000,0.250000 0 0,0 6.455297,1.031906 A 0.250000,0.250000 0 0,0 6.796804,0.940399 A 0.250000,0.250000 0 0,0 6.705297,0.598893 "
       id="path107" />
    <path
       style="fill:#0000ff;stroke-width:0.11288889;stroke-linecap:round;stroke-linejoin:round;stroke-opacity:1;stroke:#0000ff;stroke-miterlimit:4;stroke-dasharray:none;fill-opacity:1"
       d="M 7.631106,1.309291 A 0.250000,0.250000 0 0,0 7.277552,1.309291 A 0.250000,0.250000 0 0,0 7.277552,1.662844 A 0.250000,0.250000 0 0,0 7.631106,1.662844 A 0.250000,0.250000 0 0,0 7.631106,1.309291 "
       id="path109" />
    <path
       style="fill:#0000ff;stroke-width:0.11288889;stroke-linecap:round;stroke-linejoin:round;stroke-opacity:1;stroke:#0000ff;stroke-miterlimit:4;stroke-dasharray:none;fill-opacity:1"
       d="M 8.341503,2.235099 A 0.250000,0.250000 0 0,0 7.999997,2.143593 A 0.250000,0.250000 0 0,0 7.908491,2.485099 A 0.250000,0.250000 0 0,0 8.249997,2.576605 A 0.250000,0.250000 0 0,0 8.341503,2.235099 "
       id="path111" />
    <path
       style="fill:#0000ff;stroke-width:0.11288889;stroke-linecap:round;stroke-linejoin:round;stroke-opacity:1;stroke:#0000ff;stroke-miterlimit:4;stroke-dasharray:none;fill-opacity:1"
       d="M 8.788078,3.313226 A 0.250000,0.250000 0 0,0 8.481892,3.136449 A 0.250000,0.250000 0 0,0 8.305115,3.442635 A 0.250000,0.250000 0 0,0 8.611301,3.619412 A 0.250000,0.250000 0 0,0 8.788078,3.313226 "
       id="path113" />
    <path
       style="fill:#0000ff;stroke-width:0.11288889;stroke-linecap:round;stroke-linejoin:round;stroke-opacity:1;stroke:#0000ff;stroke-miterlimit:4;stroke-dasharray:none;fill-opacity:1"
       d="M 8.940396,4.470198 A 0.250000,0.250000 0 0,0 8.690396,4.220198 A 0.250000,0.250000 0 0,0 8.440396,4.470198 A 0.250000,0.250000 0 0,0 8.690396,4.720198 A 0.250000,0.250000 0 0,0 8.940396,4.470198 "
       id="path115" />
    <path
       style="fill:#0000ff;stroke-width:0.11288889;stroke-linecap:round;stroke-linejoin:round;stroke-opacity:1;stroke:#0000ff;stroke-miterlimit:4;stroke-dasharray:none;fill-opacity:1"
       d="M 8.788078,5.627171 A 0.250000,0.250000 0 0,0 8.611301,5.320984 A 0.250000,0.250000 0 0,0 8.305115,5.497761 A 0.250000,0.250000 0 0,0 8.481892,5.803947 A 0.250000,0.250000 0 0,0 8.788078,5.627171 "
       id="path117" />
    <path
       style="fill:#0000ff;stroke-width:0.11288889;stroke-linecap:round;stroke-linejoin:round;stroke-opacity:1;stroke:#0000ff;stroke-miterlimit:4;stroke-dasharray:none;fill-opacity:1"
       d="M 8.341503,6.705297 A 0.250000,0.250000 0 0,0 8.249997,6.363791 A 0.250000,0.250000 0 0,0 7.908491,6.455297 A 0.250000,0.250000 0 0,0 7.999997,6.796804 A 0.250000,0.250000 0 0,0 8.341503,6.705297 "
       id="path119" />
    <path
       style="fill:#0000ff;stroke-width:0.11288889;stroke-linecap:round;stroke-linejoin:round;stroke-opacity:1;stroke:#0000ff;stroke-miterlimit:4;stroke-dasharray:none;fill-opacity:1"
       d="M 7.631106,7.631106 A 0.250000,0.250000 0 0,0 7.631106,7.277552 A 0.250000,0.250000 0 0,0 7.277552,7.277552 A 0.250000,0.250000 0 0,0 7.277552,7.631106 A 0.250000,0.250000 0 0,0 7.631106,7.631106 "
       id="path121" />
    <path
       style="fill:#0000ff;stroke-width:0.11288889;stroke-linecap:round;stroke-linejoin:round;stroke-opacity:1;stroke:#0000ff;stroke-miterlimit:4;stroke-dasharray:none;fill-opacity:1"
       d="M 6.705297,8.341503 A 0.250000,0.250000 0 0,0 6.796804,7.999997 A 0.250000,0.250000 0 0,0 6.455297,7.908491 A 0.250000,0.250000 0 0,0 6.363791,8.249997 A 0.250000,0.250000 0 0,0 6.705297,8.341503 "
       id="path123" />
    <path
       style="fill:#0000ff;stroke-width:0.11288889;stroke-linecap:round;stroke-linejoin:round;stroke-opacity:1;stroke:#0000ff;stroke-miterlimit:4;stroke-dasharray:none;fill-opacity:1"
       d="M 5.627171,8.788078 A 0.250000,0.250000 0 0,0 5.803947,8.481892 A 0.250000,0.250000 0 0,0 5.497761,8.305115 A 0.250000,0.250000 0 0,0 5.320984,8.611301 A 0.250000,0.250000 0 0,0 5.627171,8.788078 "
       id="path125" />
    <path
       style="fill:#0000ff;stroke-width:0.11288889;stroke-linecap:round;stroke-linejoin:round;stroke-opacity:1;stroke:#0000ff;stroke-miterlimit:4;stroke-dasharray:none;fill-opacity:1"
       d="M 4.470198,8.940396 A 0.250000,0.250000 0 0,0 4.720198,8.690396 A 0.250000,0.250000 0 0,0 4.470198,8.440396 A 0.250000,0.250000 0 0,0 4.220198,8.690396 A 0.250000,0.250000 0 0,0 4.470198,8.940396 "
       id="path127" />
    <path
       style="fill:#0000ff;stroke-width:0.11288889;stroke-linecap:round;stroke-linejoin:round;stroke-opacity:1;stroke:#0000ff;stroke-miterlimit:4;stroke-dasharray:none;fill-opacity:1"
       d="M 3.313226,8.788078 A 0.250000,0.250000 0 0,0 3.619412,8.611301 A 0.250000,0.250000 0 0,0 3.442635,8.305115 A 0.250000,0.250000 0 0,0 3.136449,8.481892 A 0.250000,0.250000 0 0,0 3.313226,8.788078 "
       id="path129" />
    <path
       style="fill:#0000ff;stroke-width:0.11288889;stroke-linecap:round;stroke-linejoin:round;stroke-opacity:1;stroke:#0000ff;stroke-miterlimit:4;stroke-dasharray:none;fill-opacity:1"
       d="M 2.235099,8.341503 A 0.250000,0.250000 0 0,0 2.576605,8.249997 A 0.250000,0.250000 0 0,0 2.485099,7.908491 A 0.250000,0.250000 0 0,0 2.143593,7.999997 A 0.250000,0.250000 0 0,0 2.235099,8.341503 "
       id="path131" />
    <path
       style="fill:#0000ff;stroke-width:0.11288889;stroke-linecap:round;stroke-linejoin:round;stroke-opacity:1;stroke:#0000ff;stroke-miterlimit:4;stroke-dasharray:none;fill-opacity:1"
       d="M 1.309291,7.631106 A 0.250000,0.250000 0 0,0 1.662844,7.631106 A 0.250000,0.250000 0 0,0 1.662844,7.277552 A 0.250000,0.250000 0 0,0 1.309291,7.277552 A 0.250000,0.250000 0 0,0 1.309291,7.631106 "
       id="path133" />
    <path
       style="fill:#0000ff;stroke-width:0.11288889;stroke-linecap:round;stroke-linejoin:round;stroke-opacity:1;stroke:#0000ff;stroke-miterlimit:4;stroke-dasharray:none;fill-opacity:1"
       d="M 0.598893,6.705297 A 0.250000,0.250000 0 0,0 0.940399,6.796804 A 0.250000,0.250000 0 0,0 1.031906,6.455297 A 0.250000,0.250000 0 0,0 0.690399,6.363791 A 0.250000,0.250000 0 0,0 0.598893,6.705297 "
       id="path135" />
    <path
       style="fill:#0000ff;stroke-width:0.11288889;stroke-linecap:round;stroke-linejoin:round;stroke-opacity:1;stroke:#0000ff;stroke-miterlimit:4;stroke-dasharray:none;fill-opacity:1"
       d="M 0.152318,5.627171 A 0.250000,0.250000 0 0,0 0.458505,5.803947 A 0.250000,0.250000 0 0,0 0.635281,5.497761 A 0.250000,0.250000 0 0,0 0.329095,5.320984 A 0.250000,0.250000 0 0,0 0.152318,5.627171 "
       id="path137" />
    <path
       style="fill:#0000ff;stroke-width:0.11288889;stroke-linecap:round;stroke-linejoin:round;stroke-opacity:1;stroke:#0000ff;stroke-miterlimit:4;stroke-dasharray:none;fill-opacity:1"
       d="M 0.000000,4.470198 A 0.250000,0.250000 0 0,0 0.250000,4.720198 A 0.250000,0.250000 0 0,0 0.500000,4.470198 A 0.250000,0.250000 0 0,0 0.250000,4.220198 A 0.250000,0.250000 0 0,0 0.000000,4.470198 "
       id="path139" />
    <path
       style="fill:#0000ff;stroke-width:0.11288889;stroke-linecap:round;stroke-linejoin:round;stroke-opacity:1;stroke:#0000ff;stroke-miterlimit:4;stroke-dasharray:none;fill-opacity:1"
       d="M 0.152318,3.313226 A 0.250000,0.250000 0 0,0 0.329095,3.619412 A 0.250000,0.250000 0 0,0 0.635281,3.442635 A 0.250000,0.250000 0 0,0 0.458505,3.136449 A 0.250000,0.250000 0 0,0 0.152318,3.313226 "
       id="path141" />
    <path
       style="fill:#0000ff;stroke-width:0.11288889;stroke-linecap:round;stroke-linejoin:round;stroke-opacity:1;stroke:#0000ff;stroke-miterlimit:4;stroke-dasharray:none;fill-opacity:1"
       d="M 0.598893,2.235099 A 0.250000,0.250000 0 0,0 0.690399,2.576605 A 0.250000,0.250000 0 0,0 1.031906,2.485099 A 0.250000,0.250000 0 0,0 0.940399,2.143593 A 0.250000,0.250000 0 0,0 0.598893,2.235099 "
       id="path143" />
    <path
       style="fill:#0000ff;stroke-width:0.11288889;stroke-linecap:round;stroke-linejoin:round;stroke-opacity:1;stroke:#0000ff;stroke-miterlimit:4;stroke-dasharray:none;fill-opacity:1"
       d="M 1.309291,1.309291 A 0.250000,0.250000 0 0,0 1.309291,1.662844 A 0.250000,0.250000 0 0,0 1.662844,1.662844 A 0.250000,0.250000 0 0,0 1.662844,1.309291 A 0.250000,0.250000 0 0,0 1.309291,1.309291 "
       id="path145" />
    <path
       style="fill:#0000ff;stroke-width:0.11288889;stroke-linecap:round;stroke-linejoin:round;stroke-opacity:1;stroke:#0000ff;stroke-miterlimit:4;stroke-dasharray:none;fill-opacity:1"
       d="M 2.235099,0.598893 A 0.250000,0.250000 0 0,0 2.143593,0.940399 A 0.250000,0.250000 0 0,0 2.485099,1.031906 A 0.250000,0.250000 0 0,0 2.576605,0.690399 A 0.250000,0.250000 0 0,0 2.235099,0.598893 "
       id="path147" />
    <path
       style="fill:#0000ff;stroke-width:0.11288889;stroke-linecap:round;stroke-linejoin:round;stroke-opacity:1;stroke:#0000ff;stroke-miterlimit:4;stroke-dasharray:none;fill-opacity:1"
       d="M 3.313226,0.152318 A 0.250000,0.250000 0 0,0 3.136449,0.458505 A 0.250000,0.250000 0 0,0 3.442635,0.635281 A 0.250000,0.250000 0 0,0 3.619412,0.329095 A 0.250000,0.250000 0 0,0 3.313226,0.152318 "
       id="path149" />
  </g>
</svg>
