<?xml version="1.0" encoding="UTF-8" standalone="no"?>
<!-- Created by Vectric (http://www.vectric.com/) -->

<svg
   xmlns:dc="http://purl.org/dc/elements/1.1/"
   xmlns:cc="http://creativecommons.org/ns#"
   xmlns:rdf="http://www.w3.org/1999/02/22-rdf-syntax-ns#"
   xmlns:svg="http://www.w3.org/2000/svg"
   xmlns="http://www.w3.org/2000/svg"
   xmlns:sodipodi="http://sodipodi.sourceforge.net/DTD/sodipodi-0.dtd"
   xmlns:inkscape="http://www.inkscape.org/namespaces/inkscape"
   width="7.34841031mm"
   height="7.24872317mm"
   viewBox="0 0 7.34841031 7.24872317"
   id="svg2"
   version="1.1"
   inkscape:version="0.91 r13725"
   sodipodi:docname="Nerlagd Flygplats.svg">
  <metadata
     id="metadata19">
    <rdf:RDF>
      <cc:Work
         rdf:about="">
        <dc:format>image/svg+xml</dc:format>
        <dc:type
           rdf:resource="http://purl.org/dc/dcmitype/StillImage" />
      </cc:Work>
    </rdf:RDF>
  </metadata>
  <defs
     id="defs17" />
  <sodipodi:namedview
     pagecolor="#ffffff"
     bordercolor="#666666"
     borderopacity="1"
     objecttolerance="10"
     gridtolerance="10"
     guidetolerance="10"
     inkscape:pageopacity="0"
     inkscape:pageshadow="2"
     inkscape:window-width="1877"
     inkscape:window-height="968"
     id="namedview15"
     showgrid="false"
     inkscape:zoom="9.1884383"
     inkscape:cx="13.018837"
     inkscape:cy="12.842226"
     inkscape:window-x="0"
     inkscape:window-y="23"
     inkscape:window-maximized="0"
     inkscape:current-layer="d5d67a5a-1c56-439a-9b11-24cea6d65eab" />
  <g
     inkscape:groupmode="layer"
     id="350f65ba-abf8-41e2-b810-6374299eb6a6"
     inkscape:label="Bitmap Layer" />
  <g
     inkscape:groupmode="layer"
     id="d5d67a5a-1c56-439a-9b11-24cea6d65eab"
     inkscape:label="Layer 1">
    <path
       style="fill:#0000ff;stroke-width:0.02822222;stroke-linecap:round;stroke-linejoin:round;stroke-opacity:1;stroke:#0000ff;stroke-miterlimit:4;stroke-dasharray:none;fill-opacity:1"
       d="M 2.472515,7.107315 C 2.833304,7.239834 3.082845,7.265463 3.766197,7.240183 C 4.672617,7.206651 5.103860,7.068851 5.807467,6.587915 C 6.155405,6.350090 6.155405,6.350090 6.394808,6.599973 C 6.667505,6.884607 6.941197,6.931148 6.941197,6.692886 C 6.941197,6.606552 6.842536,6.429459 6.721950,6.299345 C 6.502704,6.062774 6.502704,6.062774 6.838295,5.376815 C 7.155982,4.727450 7.334178,4.073325 7.348069,3.505522 C 7.361012,2.976483 7.074406,2.146759 6.670146,1.542934 C 6.539824,1.348277 6.433197,1.162146 6.433197,1.129310 C 6.433197,1.096473 6.528447,0.981332 6.644863,0.873441 C 6.885404,0.650515 6.918950,0.433827 6.724475,0.359201 C 6.644355,0.328455 6.493306,0.403485 6.340396,0.549982 C 6.127377,0.754067 6.065915,0.775099 5.943283,0.685874 C 5.863486,0.627814 5.550547,0.458628 5.247863,0.309906 C 4.770807,0.075506 4.589159,0.035080 3.883634,0.006297 C 2.904278,-0.033657 2.336496,0.106699 1.696458,0.546968 C 1.234853,0.864496 1.224486,0.864174 0.860648,0.521022 C 0.798931,0.462814 0.674956,0.415189 0.585149,0.415189 C 0.352708,0.415189 0.378249,0.683365 0.633530,0.923189 C 0.902217,1.175608 0.899358,1.227966 0.590277,1.715337 C 0.319239,2.142719 -0.002443,3.163527 0.000000,3.588487 C 0.003322,4.166212 0.249005,4.984446 0.585420,5.538197 C 0.930823,6.106742 0.930823,6.106742 0.678979,6.393576 C 0.246662,6.885958 0.534994,7.133652 1.027854,6.693281 C 1.297850,6.452040 1.297850,6.452040 1.661675,6.697582 C 1.861779,6.832630 2.226657,7.017010 2.472515,7.107315 "
       id="path5" />
    <path
       style="fill:#ffffff;stroke-width:0.02822222;stroke-linecap:round;stroke-linejoin:round;stroke-opacity:1;stroke:#ffffff;stroke-miterlimit:4;stroke-dasharray:none;fill-opacity:1"
       d="M 4.612863,6.675695 C 4.752563,6.634873 5.067546,6.474788 5.312825,6.319951 L 5.758786,6.038430 L 3.718128,3.947060 L 3.275292,4.352189 L 1.596616,6.041249 L 1.871648,6.265719 C 2.022916,6.389178 2.342970,6.552064 2.582880,6.627689 C 3.052257,6.775647 4.179579,6.802307 4.612863,6.675695 "
       id="path7" />
    <path
       style="fill:#ffffff;stroke-width:0.02822222;stroke-linecap:round;stroke-linejoin:round;stroke-opacity:1;stroke:#ffffff;stroke-miterlimit:4;stroke-dasharray:none;fill-opacity:1"
       d="M 1.395530,5.643013 L 3.337601,3.629901 L 1.313510,1.600522 L 1.256732,1.600522 C 1.166397,1.600522 0.793923,2.280854 0.630952,2.743522 C 0.469349,3.202307 0.443876,4.259345 0.590175,4.435624 C 0.636495,4.491437 0.657481,4.554016 0.636808,4.574688 C 0.566474,4.645023 1.157656,5.622140 1.276874,5.632601 L 1.395530,5.643013 "
       id="path9" />
    <path
       style="fill:#ffffff;stroke-width:0.02822222;stroke-linecap:round;stroke-linejoin:round;stroke-opacity:1;stroke:#ffffff;stroke-miterlimit:4;stroke-dasharray:none;fill-opacity:1"
       d="M 6.355435,5.349322 C 6.463059,5.173432 6.606075,4.896172 6.673250,4.733189 C 6.867172,4.262684 6.845579,2.829314 6.638174,2.404856 C 6.402278,1.922086 6.174419,1.600522 6.068229,1.600522 L 5.976736,1.600522 L 4.062530,3.541538 L 4.062530,3.677744 L 5.882863,5.463677 L 6.021310,5.566400 C 6.138995,5.653718 6.189100,5.621166 6.355435,5.349322 "
       id="path11" />
    <path
       style="fill:#ffffff;stroke-width:0.02822222;stroke-linecap:round;stroke-linejoin:round;stroke-opacity:1;stroke:#ffffff;stroke-miterlimit:4;stroke-dasharray:none;fill-opacity:1"
       d="M 3.684271,3.282678 L 5.628863,1.270197 L 5.628863,1.160193 C 5.628863,1.099691 5.419313,0.935889 5.163197,0.796189 C 4.719089,0.553948 4.650493,0.542189 3.681530,0.542189 C 2.772257,0.542189 2.623196,0.563821 2.262525,0.748115 C 2.040872,0.861375 1.797097,1.023018 1.720802,1.107323 C 1.569810,1.274167 1.646925,1.364620 3.132567,2.763277 L 3.684271,3.282678 "
       id="path13" />
  </g>
</svg>
