<?xml version="1.0" encoding="UTF-8" standalone="no"?>
<svg
   xmlns:dc="http://purl.org/dc/elements/1.1/"
   xmlns:cc="http://creativecommons.org/ns#"
   xmlns:rdf="http://www.w3.org/1999/02/22-rdf-syntax-ns#"
   xmlns:svg="http://www.w3.org/2000/svg"
   xmlns="http://www.w3.org/2000/svg"
   xmlns:sodipodi="http://sodipodi.sourceforge.net/DTD/sodipodi-0.dtd"
   xmlns:inkscape="http://www.inkscape.org/namespaces/inkscape"
   version="1.1"
   x="0px"
   y="0px"
   viewBox="0 0 9.5322962 20"
   id="svg2"
   inkscape:version="0.91 r13725"
   sodipodi:docname="Skyskrapa.svg"
   width="9.5322962"
   height="20">
  <metadata
     id="metadata16">
    <rdf:RDF>
      <cc:Work
         rdf:about="">
        <dc:format>image/svg+xml</dc:format>
        <dc:type
           rdf:resource="http://purl.org/dc/dcmitype/StillImage" />
        <dc:title></dc:title>
      </cc:Work>
    </rdf:RDF>
  </metadata>
  <defs
     id="defs14" />
  <sodipodi:namedview
     pagecolor="#ffffff"
     bordercolor="#666666"
     borderopacity="1"
     objecttolerance="10"
     gridtolerance="10"
     guidetolerance="10"
     inkscape:pageopacity="0"
     inkscape:pageshadow="2"
     inkscape:window-width="1366"
     inkscape:window-height="705"
     id="namedview12"
     showgrid="false"
     fit-margin-top="0"
     fit-margin-left="0"
     fit-margin-right="0"
     fit-margin-bottom="0"
     inkscape:zoom="23.03"
     inkscape:cx="3.6947178"
     inkscape:cy="9.0635491"
     inkscape:window-x="-8"
     inkscape:window-y="-8"
     inkscape:window-maximized="1"
     inkscape:current-layer="svg2" />
  <g
     transform="matrix(0.25301947,0,0,0.25301947,-8.1559182,-244.23324)"
     id="g4"
     style="fill:#ff0000;fill-opacity:1;stroke:#000000;stroke-opacity:1;stroke-width:0.3952265;stroke-miterlimit:4;stroke-dasharray:none">
    <path
       fill="param(fill) #F00" stroke="param(outline) #000" stroke-width="param(outline-width) 0.4"
       d="m 51.213021,965.2745 -12.700994,7.1271 0.008,0.01 0,51.3055 12.547249,7.3698 0,-51.2974 0,-0.01 0.008,0 0,51.3054 12.555353,-7.3698 0,-51.3054 -0.008,0 -12.409711,-7.1352 z m 10.565239,11.1558 0,1.9496 -1.957704,1.1002 0,-1.9577 1.957704,-1.0921 z m -21.251863,0.3074 1.949652,1.1002 0,1.9497 -1.949652,-1.1003 0,-1.9496 z m 18.048306,1.4885 0,1.9577 -1.949626,1.0922 0,-1.9497 1.949626,-1.1002 z m -14.84475,0.3155 1.949652,1.0921 0,1.9578 -1.949652,-1.1002 0,-1.9497 z m 18.048307,1.0841 0,1.9577 -1.957704,1.1002 0,-1.9577 1.957704,-1.1002 z m -21.251863,0.3155 1.949652,1.1002 0,1.9496 -1.949652,-1.1002 0,-1.9496 z m 14.731518,0.1537 0,1.9496 -1.957754,1.1002 0,-1.9496 1.957754,-1.1002 z m -8.211148,0.3074 1.949626,1.1002 0,1.9577 -1.949626,-1.1002 0,-1.9577 z m 11.527936,1.0274 0,1.9496 -1.949626,1.1002 0,-1.9496 1.949626,-1.1002 z m -14.84475,0.3155 1.949652,1.0921 0,1.9577 -1.949652,-1.1002 0,-1.9496 z m 18.048307,1.0355 0,1.9496 -1.957704,1.1002 0,-1.9577 1.957704,-1.0921 z m -21.251863,0.3074 1.949652,1.1002 0,1.9496 -1.949652,-1.1002 0,-1.9496 z m 14.731518,0.2103 0,1.9497 -1.957754,1.1002 0,-1.9497 1.957754,-1.1002 z m -8.211148,0.3074 1.949626,1.1002 0,1.9497 -1.949626,-1.0921 0,-1.9578 z m 11.527936,0.9708 0,1.9496 -1.949626,1.1002 0,-1.9496 1.949626,-1.1002 z m -14.84475,0.3155 1.949652,1.0921 0,1.9578 -1.949652,-1.1003 0,-1.9496 z m 18.048307,1.084 0,1.9578 -1.957704,1.1002 0,-1.9578 1.957704,-1.1002 z m -21.251863,0.3155 1.949652,1.1003 0,1.9496 -1.949652,-1.1002 0,-1.9497 z m 14.731518,0.1538 0,1.9496 -1.957754,1.1002 0,-1.9496 1.957754,-1.1002 z m -8.211148,0.3073 1.949626,1.1003 0,1.9496 -1.949626,-1.0921 0,-1.9578 z m 11.527936,1.0275 0,1.9496 -1.949626,1.1002 0,-1.9496 1.949626,-1.1002 z m -14.84475,0.3155 1.949652,1.0921 0,1.9577 -1.949652,-1.1002 0,-1.9496 z m 18.048307,1.4076 0,1.9577 -1.957704,1.1002 0,-1.9577 1.957704,-1.1002 z m -6.520345,0.1456 0,1.9496 -1.957754,1.1003 0,-1.9497 1.957754,-1.1002 z m -14.731518,0.1699 1.949652,1.1002 0,1.9496 -1.949652,-1.1002 0,-1.9496 z m 6.52037,0.1375 1.949626,1.1002 0,1.9497 -1.949626,-1.0921 0,-1.9578 z m 11.527936,1.351 0,1.9496 -1.949626,1.1003 0,-1.9497 1.949626,-1.1002 z m -14.84475,0.3155 1.949652,1.0921 0,1.9578 -1.949652,-1.1002 0,-1.9497 z m 18.048307,1.084 0,1.9578 -1.957704,1.0921 0,-1.9497 1.957704,-1.1002 z m -21.251863,0.3155 1.949652,1.1003 0,1.9496 -1.949652,-1.1002 0,-1.9497 z m 14.731518,0.1538 0,1.9496 -1.957754,1.1002 0,-1.9496 1.957754,-1.1002 z m -8.211148,0.3074 1.949626,1.1002 0,1.9496 -1.949626,-1.0921 0,-1.9577 z m 11.527936,1.0274 0,1.9496 -1.949626,1.1002 0,-1.9496 1.949626,-1.1002 z m -14.84475,0.3074 1.949652,1.1002 0,1.9577 -1.949652,-1.1002 0,-1.9577 z m 18.048307,1.0355 0,1.9577 -1.957704,1.09213 0,-1.94963 1.957704,-1.1002 z m -21.251863,0.3155 1.949652,1.1002 0,1.94963 -1.949652,-1.10023 0,-1.9496 z m 14.731518,0.2103 0,1.9496 -1.957754,1.10033 0,-1.95783 1.957754,-1.0921 z m -8.211148,0.3074 1.949626,1.1002 0,1.94973 -1.949626,-1.0921 0,-1.95783 z m 11.527936,0.9708 0,1.94963 -1.949626,1.10027 0,-1.94967 1.949626,-1.10023 z m -14.84475,0.3155 1.949652,1.09213 0,1.95767 -1.949652,-1.10017 0,-1.94963 z m 18.048307,1.08403 0,1.95777 -1.957704,1.0921 0,-1.9496 1.957704,-1.10027 z m -21.251863,0.3155 1.949652,1.10017 0,1.9497 -1.949652,-1.1002 0,-1.94967 z m 14.731518,0.1538 0,1.94957 -1.957754,1.1002 0,-1.9496 1.957754,-1.10017 z m -8.211148,0.3074 1.949626,1.10017 0,1.9496 -1.949626,-1.0921 0,-1.95767 z m 11.527936,1.02737 0,1.9496 -1.949626,1.1002 0,-1.9496 1.949626,-1.1002 z m -14.84475,0.3074 1.949652,1.1002 0,1.9496 -1.949652,-1.0921 0,-1.9577 z m 11.527962,1.5613 0,1.9496 -1.957754,1.1002 0,-1.9577 1.957754,-1.0921 z m -8.211148,0.3074 1.949626,1.1002 0,1.9497 -1.949626,-1.0922 0,-1.9577 z m -14.812417,20.3377 0,9.8858 18.833029,11.0587 0,-9.8857 -18.833029,-11.0588 z m 37.674161,0 -18.833029,11.0588 0,9.8857 18.833029,-11.0587 0,-9.8858 z"
       id="path6"
       inkscape:connector-curvature="0" />
  </g>
</svg>
