<?xml version="1.0" encoding="UTF-8" standalone="no"?>
<svg
   xmlns:dc="http://purl.org/dc/elements/1.1/"
   xmlns:cc="http://creativecommons.org/ns#"
   xmlns:rdf="http://www.w3.org/1999/02/22-rdf-syntax-ns#"
   xmlns:svg="http://www.w3.org/2000/svg"
   xmlns="http://www.w3.org/2000/svg"
   xmlns:sodipodi="http://sodipodi.sourceforge.net/DTD/sodipodi-0.dtd"
   xmlns:inkscape="http://www.inkscape.org/namespaces/inkscape"
   viewBox="0 0 15.12 15.12"
   height="15.12"
   width="15.12"
   xml:space="preserve"
   id="svg2"
   version="1.1"
   inkscape:version="0.91 r13725"
   sodipodi:docname="torn.svg"><sodipodi:namedview
     pagecolor="#ffffff"
     bordercolor="#666666"
     borderopacity="1"
     objecttolerance="10"
     gridtolerance="10"
     guidetolerance="10"
     inkscape:pageopacity="0"
     inkscape:pageshadow="2"
     inkscape:window-width="1366"
     inkscape:window-height="705"
     id="namedview8"
     showgrid="false"
     inkscape:zoom="15.608466"
     inkscape:cx="7.5599999"
     inkscape:cy="7.5599999"
     inkscape:window-x="-8"
     inkscape:window-y="-8"
     inkscape:window-maximized="1"
     inkscape:current-layer="svg2" /><metadata
     id="metadata8"><rdf:RDF><cc:Work
         rdf:about=""><dc:format>image/svg+xml</dc:format><dc:type
           rdf:resource="http://purl.org/dc/dcmitype/StillImage" /></cc:Work></rdf:RDF></metadata><defs
     id="defs6" /><g
     transform="matrix(1.7636995,0,0,-1.7636995,-2.4401335,17.560134)"
     id="g10"
     style="fill:#ff0000;fill-opacity:1;stroke:#000000;stroke-opacity:1;stroke-width:0.056699;stroke-miterlimit:4;stroke-dasharray:none"><g
       transform="scale(0.1,0.1)"
       id="g12"
       style="fill:#ff0000;fill-opacity:1;stroke:#000000;stroke-opacity:1;stroke-width:0.56699001;stroke-miterlimit:4;stroke-dasharray:none"><path
         id="path14"
         style="fill:#ff0000;fill-opacity:1;fill-rule:nonzero;stroke:#000000;stroke-opacity:1;stroke-width:0.56699001;stroke-miterlimit:4;stroke-dasharray:none"
         d="m 51.0312,113.398 11.3438,0 0,-32.1285 2.0664,-0.3593 1.1641,-0.3633 0.9961,-0.2696 2.4296,-1.1679 2.4258,-1.5313 1.2578,-0.8984 1.086,-0.9922 1.9804,-1.9766 0.9883,-1.082 0.8086,-1.168 0.8125,-1.2617 0.7188,-1.1719 0.625,-1.2578 0.5468,-1.2617 0.3555,-0.9922 0.2695,-1.164 0.3633,-1.9844 32.1285,0 0,-11.332 -32.2144,0 -0.3633,-2.0704 -0.2734,-1.1718 -0.3594,-0.9961 -0.5391,-1.2578 -0.625,-1.1719 -0.7226,-1.2617 -0.8125,-1.1719 -0.8086,-1.2617 -0.9961,-1.0742 -0.9883,-1.0821 -1.0703,-0.8984 -1.0859,-0.9883 -1.1719,-0.8086 -1.1719,-0.8125 -1.2578,-0.7187 -1.1719,-0.625 -1.2617,-0.5469 -0.9844,-0.3633 -1.1718,-0.2617 -1.9844,-0.3633 0,-32.1289 -11.3321,0 0,32.2148 -2.0703,0.3633 -1.1718,0.2735 -0.9922,0.3593 -1.2578,0.5391 -1.2618,0.625 -1.1718,0.7227 -1.2578,0.8125 -1.168,0.8086 -1.0781,0.9882 -2.0743,2.0664 -0.9023,1.086 -0.8984,1.1718 -1.5274,2.4297 -1.1719,2.4336 -0.2695,0.9844 -0.2734,1.1641 -0.3555,1.9922 -32.1289,0 0,11.332 32.1289,0 0.3555,2.0703 0.3633,1.1719 0.2656,0.9883 1.1758,2.5234 1.5273,2.4258 1.8906,2.25 1.9805,2.0742 2.25,1.8008 2.4258,1.5273 2.5273,1.1719 0.9844,0.2695 1.1719,0.2696 1.9765,0.3593 0.0078,32.1285"
         inkscape:connector-curvature="0" /></g></g></svg>