<?xml version="1.0" encoding="UTF-8" standalone="no"?>
<svg
   xmlns:dc="http://purl.org/dc/elements/1.1/"
   xmlns:cc="http://creativecommons.org/ns#"
   xmlns:rdf="http://www.w3.org/1999/02/22-rdf-syntax-ns#"
   xmlns:svg="http://www.w3.org/2000/svg"
   xmlns="http://www.w3.org/2000/svg"
   xmlns:sodipodi="http://sodipodi.sourceforge.net/DTD/sodipodi-0.dtd"
   xmlns:inkscape="http://www.inkscape.org/namespaces/inkscape"
   version="1.0"
   x="0px"
   y="0px"
   viewBox="0 0 12.1918 20"
   enable-background="new 0 0 60.959 100"
   xml:space="preserve"
   id="svg2"
   inkscape:version="0.91 r13725"
   sodipodi:docname="Torn Platform.svg"
   width="12.1918"
   height="20"><metadata
     id="metadata10"><rdf:RDF><cc:Work
         rdf:about=""><dc:format>image/svg+xml</dc:format><dc:type
           rdf:resource="http://purl.org/dc/dcmitype/StillImage" /><dc:title></dc:title></cc:Work></rdf:RDF></metadata><defs
     id="defs8" /><sodipodi:namedview
     pagecolor="#ffffff"
     bordercolor="#666666"
     borderopacity="1"
     objecttolerance="10"
     gridtolerance="10"
     guidetolerance="10"
     inkscape:pageopacity="0"
     inkscape:pageshadow="2"
     inkscape:window-width="1366"
     inkscape:window-height="705"
     id="namedview6"
     showgrid="false"
     fit-margin-top="0"
     fit-margin-left="0"
     fit-margin-right="0"
     fit-margin-bottom="0"
     inkscape:zoom="25.05"
     inkscape:cx="6.0958998"
     inkscape:cy="10"
     inkscape:window-x="-8"
     inkscape:window-y="-8"
     inkscape:window-maximized="1"
     inkscape:current-layer="svg2" /><path
     d="m 9.3068,6.9486 1.6676,-0.0146 0,-4.7482 L 6.0978,0 1.2226,2.1858 1.2226,6.934 2.89,6.9486 0,19.9952 1.687,20 1.9462,18.8214 6.0978,13.7652 10.2506,18.8264 10.5098,20 12.1918,19.9952 9.3068,6.9486 Z M 3.0514,2.851 l 6.0892,0 0,2.396 -6.0892,0 0,-2.396 z m -0.4256,12.8996 1.0806,-4.895 1.4718,1.785 -2.5524,3.11 z m 1.4768,-6.67 0.4696,-2.137 3.0526,0 0.4696,2.1418 -1.9964,2.44 -1.9954,-2.4448 z m 2.9108,3.56 1.4718,-1.785 1.0808,4.895 -2.5526,-3.11 z"
     id="path4"
     inkscape:connector-curvature="0"
     fill="param(fill) #F00" stroke="param(outline) #000" stroke-width="param(outline-width) 0.25"
     /></svg>