<?xml version="1.0" encoding="UTF-8" standalone="no"?>
<svg
   xmlns:dc="http://purl.org/dc/elements/1.1/"
   xmlns:cc="http://creativecommons.org/ns#"
   xmlns:rdf="http://www.w3.org/1999/02/22-rdf-syntax-ns#"
   xmlns:svg="http://www.w3.org/2000/svg"
   xmlns="http://www.w3.org/2000/svg"
   xmlns:sodipodi="http://sodipodi.sourceforge.net/DTD/sodipodi-0.dtd"
   xmlns:inkscape="http://www.inkscape.org/namespaces/inkscape"
   version="1.1"
   x="0px"
   y="0px"
   viewBox="0 0 16.628 20"
   enable-background="new 0 0 20 20"
   xml:space="preserve"
   id="svg2"
   inkscape:version="0.91 r13725"
   sodipodi:docname="TV Torn 1.svg"
   width="16.628"
   height="20"><metadata
     id="metadata134"><rdf:RDF><cc:Work
         rdf:about=""><dc:format>image/svg+xml</dc:format><dc:type
           rdf:resource="http://purl.org/dc/dcmitype/StillImage" /><dc:title></dc:title></cc:Work></rdf:RDF></metadata><defs
     id="defs132" /><sodipodi:namedview
     pagecolor="#ffffff"
     bordercolor="#666666"
     borderopacity="1"
     objecttolerance="10"
     gridtolerance="10"
     guidetolerance="10"
     inkscape:pageopacity="0"
     inkscape:pageshadow="2"
     inkscape:window-width="1366"
     inkscape:window-height="705"
     id="namedview130"
     showgrid="false"
     fit-margin-top="0"
     fit-margin-left="0"
     fit-margin-right="0"
     fit-margin-bottom="0"
     inkscape:zoom="26.612135"
     inkscape:cx="8.314"
     inkscape:cy="9.8768484"
     inkscape:window-x="-8"
     inkscape:window-y="-8"
     inkscape:window-maximized="1"
     inkscape:current-layer="svg2" /><rect
     x="-168.686"
     y="-33"
     display="none"
     width="198"
     height="87"
     id="rect4"
     style="display:none;fill:#000000" /><g
     id="g96"
     transform="translate(-1.686,0)"
     fill="param(fill) #F00" stroke="param(outline) #000" stroke-width="param(outline-width) 0.1"
     ><g
       id="g98"
       fill="param(fill) #F00" stroke="param(outline) #000" stroke-width="param(outline-width) 0.1"
       >
       <path
         d="m 14.351,19.451 0.691,-0.457 C 11.776,14.049 10.75,9.902 10.443,7.438 l 0,-0.8 c 0.713,-0.227 1.232,-0.886 1.232,-1.673 0,-0.974 -0.789,-1.763 -1.763,-1.763 -0.974,0 -1.761,0.788 -1.761,1.762 0,0.797 0.533,1.463 1.259,1.681 l 0,0.295 C 9.183,9.316 8.259,13.692 4.758,18.993 L 5.45,19.45 C 5.938,18.712 6.361,17.998 6.757,17.3 l 0,0.003 2.653,0 0,2.697 1.034,0 0,-2.696 2.603,0 c 0.394,0.699 0.817,1.41 1.304,2.147 z m -3.018,-5.62 -0.889,0 -0.052,-2.645 c 0.235,0.764 0.579,1.776 0.941,2.645 z m -1.923,0 -0.943,0 c 0.389,-0.935 0.698,-1.813 0.942,-2.625 l 0,2.625 z m -2.182,2.628 c 0.373,-0.704 0.688,-1.376 0.978,-2.033 l 1.204,0 0,2.033 -2.182,0 z m 3.216,0 0,-2.033 1.151,0 c 0.29,0.656 0.604,1.329 0.977,2.033 l -2.128,0 z"
         id="path100"
         inkscape:connector-curvature="0"
       fill="param(fill) #F00" stroke="param(outline) #000" stroke-width="param(outline-width) 0.1"
         /></g><g
       id="g102"
       fill="param(fill) #F00" stroke="param(outline) #000" stroke-width="param(outline-width) 0.1"
       >
       <path
         d="M 3.343,9.747 C 3.276,9.678 1.686,8.034 1.686,4.85 1.686,1.661 3.28,0.066 3.348,0 L 3.84,0.505 3.594,0.253 3.841,0.504 c -0.015,0.015 -1.45,1.471 -1.45,4.346 0,2.898 1.439,4.386 1.453,4.401 L 3.343,9.747 Z"
         id="path104"
         inkscape:connector-curvature="0"
       fill="param(fill) #F00" stroke="param(outline) #000" stroke-width="param(outline-width) 0.1"
         /></g><g
       id="g106"
       fill="param(fill) #F00" stroke="param(outline) #000" stroke-width="param(outline-width) 0.1"
       >
       <path
         d="M 5.42,8.427 C 5.373,8.379 4.248,7.216 4.248,4.961 4.248,2.704 5.375,1.576 5.423,1.53 l 0.33,0.335 C 5.742,1.876 4.718,2.913 4.718,4.961 c 0,2.063 1.026,3.125 1.036,3.135 L 5.42,8.427 Z"
         id="path108"
         inkscape:connector-curvature="0"
       fill="param(fill) #F00" stroke="param(outline) #000" stroke-width="param(outline-width) 0.1"
         /></g><g
       id="g110"
       fill="param(fill) #F00" stroke="param(outline) #000" stroke-width="param(outline-width) 0.1"
       >
       <path
         d="M 7.059,7.23 C 7.028,7.198 6.292,6.437 6.292,4.968 c 0,-1.472 0.738,-2.21 0.77,-2.241 l 0.266,0.271 c -0.006,0.007 -0.655,0.667 -0.655,1.97 0,1.305 0.651,1.989 0.658,1.996 L 7.059,7.23 Z"
         id="path112"
         inkscape:connector-curvature="0"
       fill="param(fill) #F00" stroke="param(outline) #000" stroke-width="param(outline-width) 0.1"
         /></g><g
       id="g114"
       fill="param(fill) #F00" stroke="param(outline) #000" stroke-width="param(outline-width) 0.1"
       >
       <path
         d="M 16.657,9.747 16.155,9.25 c 0.014,-0.014 1.453,-1.522 1.453,-4.401 0,-2.875 -1.435,-4.331 -1.45,-4.346 L 16.652,0 c 0.068,0.066 1.662,1.66 1.662,4.849 0,3.185 -1.59,4.829 -1.657,4.898 z"
         id="path116"
         inkscape:connector-curvature="0"
       fill="param(fill) #F00" stroke="param(outline) #000" stroke-width="param(outline-width) 0.1"
         /></g><g
       id="g118"
       fill="param(fill) #F00" stroke="param(outline) #000" stroke-width="param(outline-width) 0.1"
       >
       <path
         d="M 14.58,8.427 14.246,8.096 c 0.01,-0.01 1.036,-1.084 1.036,-3.135 0,-2.061 -1.023,-3.085 -1.033,-3.095 L 14.578,1.53 c 0.048,0.046 1.175,1.174 1.175,3.431 -10e-4,2.255 -1.126,3.418 -1.173,3.466 z"
         id="path120"
         inkscape:connector-curvature="0"
       fill="param(fill) #F00" stroke="param(outline) #000" stroke-width="param(outline-width) 0.1"
         /></g><g
       id="g122"
       fill="param(fill) #F00" stroke="param(outline) #000" stroke-width="param(outline-width) 0.1"
       >
       <path
         d="M 12.941,7.23 12.67,6.963 c 0.006,-0.006 0.657,-0.69 0.657,-1.995 0,-1.303 -0.649,-1.963 -0.655,-1.97 l 0.266,-0.271 c 0.031,0.031 0.77,0.769 0.77,2.241 0,1.469 -0.736,2.23 -0.767,2.262 z"
         id="path124"
         inkscape:connector-curvature="0"
       fill="param(fill) #F00" stroke="param(outline) #000" stroke-width="param(outline-width) 0.1"
         /></g></g></svg>