<?xml version="1.0" encoding="UTF-8" standalone="no"?>
<!-- Created by Vectric (http://www.vectric.com/) -->

<svg
   xmlns:dc="http://purl.org/dc/elements/1.1/"
   xmlns:cc="http://creativecommons.org/ns#"
   xmlns:rdf="http://www.w3.org/1999/02/22-rdf-syntax-ns#"
   xmlns:svg="http://www.w3.org/2000/svg"
   xmlns="http://www.w3.org/2000/svg"
   xmlns:sodipodi="http://sodipodi.sourceforge.net/DTD/sodipodi-0.dtd"
   xmlns:inkscape="http://www.inkscape.org/namespaces/inkscape"
   width="18.60000000mm"
   height="18.60000000mm"
   viewBox="0 0 18.60000000 18.60000000"
   id="svg2"
   version="1.1"
   inkscape:version="0.91 r13725"
   sodipodi:docname="VOR.svg">
  <metadata
     id="metadata53">
    <rdf:RDF>
      <cc:Work
         rdf:about="">
        <dc:format>image/svg+xml</dc:format>
        <dc:type
           rdf:resource="http://purl.org/dc/dcmitype/StillImage" />
      </cc:Work>
    </rdf:RDF>
  </metadata>
  <defs
     id="defs51" />
  <sodipodi:namedview
     pagecolor="#ffffff"
     bordercolor="#666666"
     borderopacity="1"
     objecttolerance="10"
     gridtolerance="10"
     guidetolerance="10"
     inkscape:pageopacity="0"
     inkscape:pageshadow="2"
     inkscape:window-width="1366"
     inkscape:window-height="705"
     id="namedview49"
     showgrid="false"
     inkscape:zoom="10.88"
     inkscape:cx="14.156801"
     inkscape:cy="32.25006"
     inkscape:window-x="-8"
     inkscape:window-y="-8"
     inkscape:window-maximized="1"
     inkscape:current-layer="d5d67a5a-1c56-439a-9b11-24cea6d65eab" />
  <g
     inkscape:groupmode="layer"
     id="350f65ba-abf8-41e2-b810-6374299eb6a6"
     inkscape:label="Bitmap Layer" />
  <g
     inkscape:groupmode="layer"
     id="d5d67a5a-1c56-439a-9b11-24cea6d65eab"
     inkscape:label="Layer 1">
    <path
       style="fill:none;stroke-width:0.02822222;stroke-linecap:round;stroke-linejoin:round;stroke-opacity:1;stroke:#0000ff;stroke-miterlimit:4;stroke-dasharray:none;fill-opacity:1"
       d="M 9.300000,0.000000 A 9.300000,9.300000 0 0,0 0.000000,9.300000 A 9.300000,9.300000 0 0,0 9.300000,18.600000 A 9.300000,9.300000 0 0,0 18.600000,9.300000 A 9.300000,9.300000 0 0,0 9.300000,0.000000 "
       id="path5" />
    <path
       style="fill:#ffffff;stroke-width:0.02822222;stroke-linecap:round;stroke-linejoin:round;stroke-opacity:1;stroke:#0000ff;stroke-miterlimit:4;stroke-dasharray:none;fill-opacity:1"
       d="M 9.306074,0.831597 L 9.110822,1.672903 L 9.506777,1.672903 L 9.306074,0.831597 "
       id="path7" />
    <path
       style="fill:#ffffff;stroke-width:0.02822222;stroke-linecap:round;stroke-linejoin:round;stroke-opacity:1;stroke:#0000ff;stroke-miterlimit:4;stroke-dasharray:none;fill-opacity:1"
       d="M 17.768887,9.306558 L 16.927581,9.111306 L 16.927581,9.507261 L 17.768887,9.306558 "
       id="path15" />
    <path
       style="fill:#ffffff;stroke-width:0.02822222;stroke-linecap:round;stroke-linejoin:round;stroke-opacity:1;stroke:#0000ff;stroke-miterlimit:4;stroke-dasharray:none;fill-opacity:1"
       d="M 9.293926,17.769372 L 9.489178,16.928066 L 9.093223,16.928066 L 9.293926,17.769372 "
       id="path17" />
    <path
       style="fill:#ffffff;stroke-width:0.02822222;stroke-linecap:round;stroke-linejoin:round;stroke-opacity:1;stroke:#0000ff;stroke-miterlimit:4;stroke-dasharray:none;fill-opacity:1"
       d="M 0.831113,9.294410 L 1.672419,9.489662 L 1.672419,9.093708 L 0.831113,9.294410 "
       id="path23" />
    <path
       style="fill:none;stroke-width:0.02822222;stroke-linecap:round;stroke-linejoin:round;stroke-opacity:1;stroke:#0000ff;stroke-miterlimit:4;stroke-dasharray:none;fill-opacity:1"
       d="M 6.330548,0.849569 C 6.756568,0.704188 7.195814,0.586041 7.646216,0.497361 L 7.775694,1.231593 L 7.972656,1.196863 L 7.843219,0.462727 C 8.303211,0.392005 8.774156,0.351753 9.254032,0.349260 L 8.909436,1.832903 L 9.709436,1.832903 L 9.355216,0.349285 C 9.831897,0.352246 10.299744,0.392465 10.756785,0.462717 L 10.627344,1.196863 L 10.824306,1.231593 L 10.953781,0.497350 C 11.404249,0.586035 11.843561,0.704207 12.269547,0.849595 L 12.014358,1.550466 L 12.202297,1.618870 L 12.457203,0.917919 C 12.883364,1.082992 13.295533,1.276064 13.691594,1.493985 L 12.943972,2.788940 L 13.117177,2.888940 L 13.864776,1.594093 C 14.253970,1.830807 14.626317,2.092341 14.979933,2.375803 L 14.501325,2.946215 L 14.654534,3.074772 L 15.133127,2.504427 C 15.474119,2.804627 15.795834,3.126395 16.096016,3.467396 L 15.525712,3.945951 L 15.654270,4.099160 L 16.224618,3.620590 C 16.507952,3.974286 16.769417,4.346668 17.006222,4.735800 L 15.711544,5.483308 L 15.811544,5.656513 L 17.106315,4.908992 C 17.323897,5.305046 17.516828,5.717091 17.682171,6.143197 L 16.981614,6.398188 L 17.050018,6.586126 L 17.750583,6.331151 C 17.895532,6.757276 18.013578,7.196503 18.102639,7.646791 L 17.368892,7.776178 L 17.403621,7.973140 L 18.137251,7.843790 C 18.207360,8.303842 18.247504,8.774755 18.250984,9.254521 L 16.767581,8.909921 L 16.767581,9.709921 L 18.250956,9.355690 C 18.246931,9.832246 18.206772,10.300054 18.137174,10.757163 L 17.403621,10.627829 L 17.368892,10.824790 L 18.102551,10.954162 C 18.017727,11.405388 17.899088,11.844703 17.752078,12.270362 L 17.050018,12.014842 L 16.981614,12.202781 L 17.683560,12.458285 C 17.519100,12.884836 17.325712,13.296812 17.107016,13.692387 L 15.811544,12.944456 L 15.711544,13.117661 L 17.006857,13.865523 C 16.770292,14.254929 16.508481,14.627229 16.224728,14.980609 L 15.654270,14.501809 L 15.525712,14.655018 L 16.096265,15.133544 C 15.796056,15.474452 15.474101,15.796154 15.133013,16.096412 L 14.654534,15.526196 L 14.501325,15.654754 L 14.979804,16.224995 C 14.625955,16.508138 14.253546,16.769532 13.864549,17.006494 L 13.117177,15.712028 L 12.943972,15.812028 L 13.691364,17.106572 C 13.295121,17.323914 12.883037,17.516836 12.457096,17.682414 L 12.202297,16.982098 L 12.014358,17.050502 L 12.269361,17.750746 C 11.843143,17.895430 11.403798,18.013519 10.953543,18.102866 L 10.824306,17.369376 L 10.627344,17.404106 L 10.756796,18.137438 C 10.296772,18.207296 9.825786,18.247477 9.345953,18.251225 L 9.690564,16.768066 L 8.890564,16.768066 L 9.244303,18.251195 C 8.767584,18.246856 8.300136,18.206709 7.843361,18.137428 L 7.972656,17.404106 L 7.775694,17.369376 L 7.646361,18.102812 C 7.196066,18.013407 6.756813,17.895336 6.330680,17.750720 L 6.585642,17.050502 L 6.397703,16.982098 L 6.143053,17.682428 C 5.716963,17.516758 5.304645,17.323689 4.908437,17.106370 L 5.656028,15.812028 L 5.482823,15.712028 L 4.739494,16.999385 C 4.346507,16.769284 3.974200,16.507849 3.620348,16.224832 L 4.098675,15.654754 L 3.945466,15.526196 L 3.467146,16.096218 C 3.126420,15.795759 2.804709,15.474059 2.504259,15.133355 L 3.074288,14.655018 L 2.945730,14.501809 L 2.375642,14.980159 C 2.092547,14.626286 1.831070,14.253954 1.594014,13.865026 L 2.888456,13.117661 L 2.788456,12.944456 L 1.493914,13.691841 C 1.276532,13.295689 1.083575,12.883694 0.918015,12.457713 L 1.618386,12.202781 L 1.549982,12.014842 L 0.849589,12.269754 C 0.704763,11.843583 0.586671,11.404388 0.497461,10.954167 L 1.231108,10.824790 L 1.196379,10.627829 L 0.462835,10.757161 C 0.392752,10.297090 0.352554,9.826196 0.349019,9.346463 L 1.832419,9.691048 L 1.832419,8.891048 L 0.349042,9.245232 C 0.353018,8.768654 0.393127,8.300869 0.462749,7.843792 L 1.196379,7.973140 L 1.231108,7.776178 L 0.497361,7.646791 C 0.586421,7.196507 0.704466,6.757282 0.849416,6.331155 L 1.549982,6.586126 L 1.618386,6.398188 L 0.917835,6.143183 C 1.083180,5.717074 1.276107,5.305040 1.493684,4.908994 L 2.788456,5.656513 L 2.888456,5.483308 L 1.593776,4.735803 C 1.830579,4.346676 2.092042,3.974297 2.375378,3.620596 L 2.945730,4.099160 L 3.074288,3.945951 L 2.503988,3.467394 C 2.804172,3.126393 3.125885,2.804628 3.466874,2.504429 L 3.945466,3.074772 L 4.098675,2.946215 L 3.620062,2.375810 C 3.973681,2.092349 4.346036,1.830810 4.735232,1.594093 L 5.482823,2.888940 L 5.656028,2.788940 L 4.908404,1.493991 C 5.304341,1.276146 5.716377,1.083125 6.142597,0.918001 L 6.397703,1.618870 L 6.585642,1.550466 L 6.330548,0.849569 "
       id="path47" />
    <path
       style="fill:none;stroke-width:0.02822222;stroke-linecap:round;stroke-linejoin:round;stroke-opacity:1;stroke:#0000ff;stroke-miterlimit:4;stroke-dasharray:none;fill-opacity:1"
       d="M 9.800000,10.166025 L 10.300000,9.300000 L 9.800000,8.433975 L 8.800000,8.433975 L 8.300000,9.300000 L 8.800000,10.166025 L 9.800000,10.166025 "
       id="path9" />
    <path
       style="fill:none;stroke-width:0.02822222;stroke-linecap:round;stroke-linejoin:round;stroke-opacity:1;stroke:#0000ff;stroke-miterlimit:4;stroke-dasharray:none;fill-opacity:1"
       d="M 9.700000,9.992820 L 10.100000,9.300000 L 9.700000,8.607180 L 8.900000,8.607180 L 8.500000,9.300000 L 8.900000,9.992820 L 9.700000,9.992820 "
       id="path11" />
    <path
       style="fill:#0000ff;stroke-width:0.02822222;stroke-linecap:round;stroke-linejoin:round;stroke-opacity:1;stroke:#0000ff;stroke-miterlimit:4;stroke-dasharray:none;fill-opacity:1"
       d="M 9.200000,9.441484 L 9.400000,9.441484 L 9.400000,3.141484 L 9.200000,3.141484 L 9.200000,9.441484 "
       id="path13" />
    <path
       style="fill:#0000ff;stroke-width:0.02822222;stroke-linecap:round;stroke-linejoin:round;stroke-opacity:1;stroke:#0000ff;stroke-miterlimit:4;stroke-dasharray:none;fill-opacity:1"
       d="M 2.968000,9.363680 L 2.968000,9.980873 L 2.827637,9.980873 C 2.785551,9.936548 2.745255,9.894685 2.706751,9.855285 C 2.668246,9.815885 2.628175,9.777381 2.586536,9.739772 C 2.502811,9.663658 2.435764,9.611722 2.385394,9.583962 C 2.335025,9.556203 2.282976,9.542324 2.229249,9.542324 C 2.201490,9.542324 2.177089,9.546689 2.156046,9.555420 C 2.135002,9.564150 2.117541,9.576127 2.103662,9.591350 C 2.090230,9.607020 2.080156,9.625153 2.073440,9.645749 C 2.066724,9.666344 2.063366,9.688955 2.063366,9.713580 C 2.063366,9.737309 2.066388,9.761375 2.072433,9.785776 C 2.078477,9.810177 2.085976,9.833571 2.094931,9.855957 C 2.102542,9.874762 2.111721,9.892895 2.122466,9.910356 C 2.133212,9.927817 2.142390,9.941921 2.150001,9.952666 L 2.150001,9.960054 L 2.007624,9.960054 C 1.993744,9.932295 1.980201,9.893678 1.966993,9.844204 C 1.953785,9.794730 1.947181,9.747831 1.947181,9.703506 C 1.947181,9.610378 1.971918,9.537399 2.021392,9.484567 C 2.070865,9.431735 2.137913,9.405319 2.222533,9.405319 C 2.261486,9.405319 2.297528,9.409908 2.330660,9.419087 C 2.363791,9.428265 2.394461,9.440913 2.422668,9.457032 C 2.451770,9.473598 2.480648,9.493521 2.509303,9.516803 C 2.537957,9.540085 2.566164,9.564710 2.593923,9.590678 C 2.639592,9.632765 2.687051,9.679664 2.736301,9.731377 C 2.785551,9.783089 2.824503,9.824392 2.853158,9.855285 L 2.853158,9.363680 L 2.968000,9.363680 "
       id="path19" />
    <path
       style="fill:#0000ff;stroke-width:0.02822222;stroke-linecap:round;stroke-linejoin:round;stroke-opacity:1;stroke:#0000ff;stroke-miterlimit:4;stroke-dasharray:none;fill-opacity:1"
       d="M 2.117765,8.602095 L 2.968000,9.034600 L 2.968000,9.177649 L 2.085529,8.719624 L 2.085529,9.236750 L 1.968000,9.236750 L 1.968000,8.602095 L 2.117765,8.602095 "
       id="path21" />
    <path
       style="fill:#0000ff;stroke-width:0.02822222;stroke-linecap:round;stroke-linejoin:round;stroke-opacity:1;stroke:#0000ff;stroke-miterlimit:4;stroke-dasharray:none;fill-opacity:1"
       d="M 9.453525,15.637507 L 9.941101,15.637507 L 9.941101,15.739589 L 9.759771,15.739589 L 9.759771,16.409837 L 9.941101,16.409837 L 9.941101,16.501173 C 9.872598,16.501173 9.822117,16.510912 9.789657,16.530388 C 9.757197,16.549864 9.738952,16.586689 9.734922,16.640865 L 9.630825,16.640865 L 9.630825,15.739589 L 9.453525,15.739589 L 9.453525,15.637507 "
       id="path25" />
    <path
       style="fill:#0000ff;stroke-width:0.02822222;stroke-linecap:round;stroke-linejoin:round;stroke-opacity:1;stroke:#0000ff;stroke-miterlimit:4;stroke-dasharray:none;fill-opacity:1"
       d="M 8.966621,15.614672 C 9.016319,15.614672 9.061540,15.622060 9.102283,15.636835 C 9.143026,15.651610 9.177725,15.672877 9.206379,15.700636 C 9.234586,15.727500 9.255965,15.759400 9.270516,15.796338 C 9.285068,15.833276 9.292343,15.872340 9.292343,15.913531 C 9.292343,15.967706 9.277904,16.017516 9.249026,16.062960 C 9.220147,16.108404 9.178173,16.144558 9.123102,16.171422 L 9.123102,16.175452 C 9.172352,16.204106 9.208842,16.235447 9.232572,16.269474 C 9.256301,16.303502 9.268166,16.346036 9.268166,16.397077 C 9.268166,16.472295 9.239735,16.534977 9.182874,16.585122 C 9.126012,16.635268 9.053928,16.660341 8.966621,16.660341 C 8.875732,16.660341 8.802865,16.636499 8.748018,16.588816 C 8.693171,16.541133 8.665748,16.480130 8.665748,16.405807 C 8.665748,16.361035 8.678844,16.316710 8.705036,16.272832 C 8.731228,16.228955 8.768949,16.194704 8.818199,16.170079 L 8.818199,16.166049 C 8.759995,16.138738 8.715894,16.105606 8.685896,16.066654 C 8.655898,16.027701 8.640899,15.977556 8.640899,15.916217 C 8.640899,15.830701 8.671904,15.759065 8.733915,15.701308 C 8.795925,15.643551 8.873494,15.614672 8.966621,15.614672 "
       id="path31" />
    <path
       style="fill:#0000ff;stroke-width:0.02822222;stroke-linecap:round;stroke-linejoin:round;stroke-opacity:1;stroke:#0000ff;stroke-miterlimit:4;stroke-dasharray:none;fill-opacity:1"
       d="M 16.110006,9.254850 C 15.930467,9.254850 15.798723,9.228770 15.714774,9.176610 C 15.630825,9.124449 15.588851,9.043970 15.588851,8.935172 C 15.588851,8.825031 15.631609,8.744216 15.717125,8.692728 C 15.802641,8.641239 15.933154,8.615495 16.108663,8.615495 C 16.289097,8.615495 16.421065,8.641575 16.504566,8.693735 C 16.588067,8.745895 16.629818,8.826375 16.629818,8.935172 C 16.629818,9.045313 16.586612,9.126128 16.500201,9.177617 C 16.413789,9.229106 16.283724,9.254850 16.110006,9.254850 "
       id="path33" />
    <path
       style="fill:#ffffff;stroke-width:0.02822222;stroke-linecap:round;stroke-linejoin:round;stroke-opacity:1;stroke:#0000ff;stroke-miterlimit:4;stroke-dasharray:none;fill-opacity:1"
       d="M 15.805103,9.082923 C 15.838235,9.095907 15.880098,9.105085 15.930691,9.110458 C 15.981284,9.115831 16.041056,9.118517 16.110006,9.118517 C 16.178508,9.118517 16.238056,9.115831 16.288649,9.110458 C 16.339243,9.105085 16.381329,9.095683 16.414909,9.082251 C 16.448936,9.068819 16.474792,9.050350 16.492478,9.026845 C 16.510163,9.003339 16.519005,8.972782 16.519005,8.935172 C 16.519005,8.898011 16.510163,8.867454 16.492478,8.843500 C 16.474792,8.819547 16.448488,8.800630 16.413566,8.786751 C 16.379538,8.773319 16.336556,8.764140 16.284620,8.759215 C 16.232683,8.754290 16.174031,8.751828 16.108663,8.751828 C 16.038817,8.751828 15.980389,8.753955 15.933377,8.758208 C 15.886366,8.762461 15.844280,8.771752 15.807118,8.786079 C 15.772643,8.799063 15.746115,8.817532 15.727535,8.841485 C 15.708954,8.865439 15.699664,8.896668 15.699664,8.935172 C 15.699664,8.972334 15.708506,9.002891 15.726191,9.026845 C 15.743877,9.050798 15.770181,9.069491 15.805103,9.082923 "
       id="path35" />
    <path
       style="fill:#0000ff;stroke-width:0.02822222;stroke-linecap:round;stroke-linejoin:round;stroke-opacity:1;stroke:#0000ff;stroke-miterlimit:4;stroke-dasharray:none;fill-opacity:1"
       d="M 16.284620,9.355589 C 16.336109,9.355589 16.383120,9.363984 16.425654,9.380773 C 16.468188,9.397563 16.504902,9.420509 16.535795,9.449612 C 16.565345,9.477371 16.588403,9.511286 16.604969,9.551358 C 16.621535,9.591429 16.629818,9.632061 16.629818,9.673252 C 16.629818,9.719368 16.622095,9.761118 16.606648,9.798503 C 16.591202,9.835889 16.568927,9.868237 16.539825,9.895548 C 16.503111,9.930024 16.454980,9.956775 16.395433,9.975804 C 16.335885,9.994832 16.260666,10.004346 16.169778,10.004346 C 16.086948,10.004346 16.008484,9.995056 15.934385,9.976475 C 15.860286,9.957895 15.798835,9.930471 15.750033,9.894205 C 15.698097,9.855701 15.658473,9.809473 15.631161,9.755522 C 15.603850,9.701570 15.590194,9.634971 15.590194,9.555723 C 15.590194,9.537814 15.591202,9.518786 15.593216,9.498638 C 15.595231,9.478490 15.598925,9.459685 15.604298,9.442224 L 15.732572,9.442224 L 15.732572,9.448940 C 15.726303,9.460133 15.720259,9.477595 15.714439,9.501324 C 15.708618,9.525054 15.705708,9.549231 15.705708,9.573856 C 15.705708,9.661611 15.734586,9.730561 15.792343,9.780706 C 15.850100,9.830852 15.932706,9.859283 16.040161,9.865998 C 16.015983,9.830180 15.998298,9.796041 15.987105,9.763581 C 15.975912,9.731120 15.970315,9.695862 15.970315,9.657805 C 15.970315,9.620644 15.974345,9.586840 15.982404,9.556395 C 15.990463,9.525949 16.006133,9.495280 16.029415,9.464387 C 16.056726,9.428568 16.091313,9.401481 16.133176,9.383124 C 16.175039,9.364767 16.225520,9.355589 16.284620,9.355589 "
       id="path39" />
    <path
       style="fill:#0000ff;stroke-width:0.02822222;stroke-linecap:round;stroke-linejoin:round;stroke-opacity:1;stroke:#0000ff;stroke-miterlimit:4;stroke-dasharray:none;fill-opacity:1"
       d="M 8.891270,2.063850 C 8.867093,2.063850 8.842915,2.066760 8.818738,2.072581 C 8.794561,2.078401 8.770831,2.086013 8.747549,2.095415 C 8.726058,2.104370 8.707366,2.113772 8.691471,2.123622 C 8.675577,2.133472 8.661362,2.142650 8.648825,2.151157 L 8.640766,2.151157 L 8.640766,2.009451 C 8.669869,1.993781 8.709381,1.979566 8.759302,1.966805 C 8.809224,1.954045 8.856795,1.947665 8.902015,1.947665 C 8.947236,1.947665 8.986748,1.952254 9.020551,1.961433 C 9.054355,1.970611 9.084912,1.984826 9.112224,2.004079 C 9.141774,2.025570 9.164048,2.051538 9.179047,2.081983 C 9.194046,2.112429 9.201545,2.148023 9.201545,2.188766 C 9.201545,2.243837 9.183412,2.292191 9.147146,2.333830 C 9.110880,2.375469 9.067451,2.401885 9.016858,2.413078 L 9.016858,2.422480 C 9.037901,2.426510 9.060399,2.433450 9.084353,2.443300 C 9.108306,2.453150 9.130580,2.467701 9.151176,2.486953 C 9.171771,2.506205 9.188561,2.530942 9.201545,2.561164 C 9.214529,2.591386 9.221021,2.628211 9.221021,2.671641 C 9.221021,2.716861 9.213298,2.758388 9.197852,2.796221 C 9.182405,2.834054 9.160578,2.867522 9.132371,2.896624 C 9.103269,2.927069 9.068122,2.950127 9.026931,2.965798 C 8.985741,2.981468 8.938953,2.989304 8.886569,2.989304 C 8.836423,2.989304 8.786726,2.983259 8.737475,2.971171 C 8.688225,2.959082 8.646811,2.944531 8.613231,2.927517 L 8.613231,2.785811 L 8.622633,2.785811 C 8.650840,2.806407 8.688673,2.826107 8.736132,2.844911 C 8.783591,2.863716 8.831051,2.873118 8.878510,2.873118 C 8.905821,2.873118 8.933244,2.868753 8.960780,2.860022 C 8.988315,2.851291 9.011261,2.837076 9.029618,2.817376 C 9.047527,2.797676 9.061183,2.775961 9.070585,2.752232 C 9.079987,2.728502 9.084688,2.698504 9.084688,2.662238 C 9.084688,2.625972 9.079428,2.596199 9.068906,2.572917 C 9.058384,2.549635 9.043721,2.531278 9.024917,2.517846 C 9.006112,2.504414 8.983838,2.495124 8.958093,2.489975 C 8.932349,2.484826 8.904478,2.482252 8.874480,2.482252 L 8.817395,2.482252 L 8.817395,2.370768 L 8.861720,2.370768 C 8.922163,2.370768 8.971301,2.356440 9.009134,2.327786 C 9.046967,2.299131 9.065884,2.257493 9.065884,2.202870 C 9.065884,2.177797 9.060959,2.156194 9.051109,2.138061 C 9.041259,2.119928 9.028722,2.105489 9.013500,2.094743 C 8.996486,2.083103 8.977681,2.075043 8.957086,2.070566 C 8.936490,2.066089 8.914552,2.063850 8.891270,2.063850 "
       id="path41" />
    <path
       style="fill:#0000ff;stroke-width:0.02822222;stroke-linecap:round;stroke-linejoin:round;stroke-opacity:1;stroke:#0000ff;stroke-miterlimit:4;stroke-dasharray:none;fill-opacity:1"
       d="M 10.004769,2.644105 C 10.004769,2.695594 9.996262,2.743053 9.979248,2.786483 C 9.962235,2.829912 9.939401,2.866178 9.910746,2.895281 C 9.880748,2.926174 9.847169,2.949568 9.810007,2.965462 C 9.772846,2.981356 9.731879,2.989304 9.687106,2.989304 C 9.641886,2.989304 9.600807,2.981692 9.563869,2.966469 C 9.526931,2.951247 9.494359,2.928636 9.466152,2.898639 C 9.431677,2.862373 9.404702,2.813906 9.385226,2.753239 C 9.365749,2.692572 9.356011,2.617913 9.356011,2.529263 C 9.356011,2.442404 9.364966,2.363940 9.382875,2.293870 C 9.400784,2.223801 9.428319,2.162798 9.465481,2.110862 C 9.501747,2.060268 9.548534,2.020756 9.605844,1.992326 C 9.663153,1.963895 9.729416,1.949680 9.804635,1.949680 C 9.827021,1.949680 9.847840,1.950799 9.867093,1.953038 C 9.886345,1.955276 9.903359,1.958858 9.918134,1.963783 L 9.918134,2.092057 L 9.912089,2.092057 C 9.900001,2.085341 9.882539,2.079185 9.859705,2.073588 C 9.836871,2.067992 9.812470,2.065193 9.786502,2.065193 C 9.703224,2.065193 9.635953,2.093288 9.584688,2.149478 C 9.533424,2.205668 9.503090,2.289057 9.493688,2.399646 C 9.525476,2.377260 9.558161,2.360022 9.591740,2.347934 C 9.625320,2.335845 9.662033,2.329801 9.701881,2.329801 C 9.740833,2.329801 9.774973,2.333718 9.804299,2.341553 C 9.833625,2.349389 9.864182,2.365171 9.895971,2.388901 C 9.932685,2.416660 9.959996,2.451806 9.977905,2.494341 C 9.995814,2.536875 10.004769,2.586796 10.004769,2.644105 "
       id="path43" />
    <path
       style="fill:#ffffff;stroke-width:0.02822222;stroke-linecap:round;stroke-linejoin:round;stroke-opacity:1;stroke:#0000ff;stroke-miterlimit:4;stroke-dasharray:none;fill-opacity:1"
       d="M 9.868436,2.649478 C 9.868436,2.608287 9.863063,2.573812 9.852318,2.546053 C 9.841572,2.518294 9.824111,2.494564 9.799934,2.474864 C 9.782472,2.460537 9.762660,2.451135 9.740498,2.446658 C 9.718335,2.442180 9.695613,2.439942 9.672331,2.439942 C 9.640990,2.439942 9.610545,2.444643 9.580995,2.454045 C 9.551445,2.463447 9.522342,2.477103 9.493688,2.495012 C 9.492792,2.504862 9.492121,2.514376 9.491673,2.523555 C 9.491225,2.532733 9.491001,2.544262 9.491001,2.558142 C 9.491001,2.627540 9.497829,2.683506 9.511485,2.726040 C 9.525141,2.768574 9.542042,2.800810 9.562190,2.822749 C 9.581442,2.843792 9.601254,2.858567 9.621626,2.867074 C 9.641998,2.875581 9.664048,2.879834 9.687778,2.879834 C 9.741505,2.879834 9.785047,2.860582 9.818402,2.822077 C 9.851758,2.783573 9.868436,2.726040 9.868436,2.649478 "
       id="path45" />
    <path
       style="fill:#ffffff;stroke-width:0.02822222;stroke-linecap:round;stroke-linejoin:round;stroke-opacity:1;stroke:#0000ff;stroke-miterlimit:4;stroke-dasharray:none;fill-opacity:1"
       d="M 16.198656,9.869356 C 16.266711,9.869356 16.322117,9.863088 16.364875,9.850552 C 16.407633,9.838015 16.440653,9.820778 16.463935,9.798839 C 16.485426,9.779139 16.500201,9.759215 16.508260,9.739068 C 16.516319,9.718920 16.520349,9.696757 16.520349,9.672580 C 16.520349,9.617510 16.500649,9.573632 16.461249,9.540948 C 16.421848,9.508264 16.364763,9.491922 16.289993,9.491922 C 16.247906,9.491922 16.213207,9.497295 16.185896,9.508040 C 16.158585,9.518786 16.135079,9.536247 16.115379,9.560424 C 16.101499,9.577438 16.092209,9.596690 16.087508,9.618181 C 16.082807,9.639672 16.080456,9.662730 16.080456,9.687355 C 16.080456,9.716010 16.085493,9.746903 16.095567,9.780035 C 16.105641,9.813167 16.118961,9.842045 16.135527,9.866670 C 16.142242,9.867118 16.151085,9.867677 16.162054,9.868349 C 16.173024,9.869021 16.185224,9.869356 16.198656,9.869356 "
       id="path37" />
    <path
       style="fill:#ffffff;stroke-width:0.02822222;stroke-linecap:round;stroke-linejoin:round;stroke-opacity:1;stroke:#0000ff;stroke-miterlimit:4;stroke-dasharray:none;fill-opacity:1"
       d="M 8.797380,16.404464 C 8.797380,16.449237 8.812379,16.486622 8.842377,16.516620 C 8.872375,16.546618 8.914013,16.561617 8.967293,16.561617 C 9.016095,16.561617 9.056055,16.548185 9.087172,16.521321 C 9.118289,16.494458 9.133848,16.458192 9.133848,16.412523 C 9.133848,16.379392 9.125900,16.351409 9.110006,16.328574 C 9.094112,16.305740 9.070270,16.285145 9.038482,16.266788 C 9.024602,16.259177 9.003447,16.248655 8.975016,16.235223 C 8.946585,16.221791 8.920729,16.211270 8.897447,16.203658 C 8.858495,16.233656 8.832079,16.264437 8.818199,16.296002 C 8.804320,16.327567 8.797380,16.363721 8.797380,16.404464 "
       id="path27" />
    <path
       style="fill:#ffffff;stroke-width:0.02822222;stroke-linecap:round;stroke-linejoin:round;stroke-opacity:1;stroke:#0000ff;stroke-miterlimit:4;stroke-dasharray:none;fill-opacity:1"
       d="M 8.778576,15.903457 C 8.778576,15.944648 8.786635,15.977332 8.802753,16.001509 C 8.818871,16.025687 8.849988,16.050312 8.896104,16.075384 C 8.911327,16.083891 8.931587,16.093070 8.956883,16.102920 C 8.982180,16.112770 9.010722,16.124411 9.042511,16.137842 C 9.079672,16.113217 9.108103,16.082884 9.127803,16.046842 C 9.147503,16.010800 9.157353,15.969721 9.157353,15.923605 C 9.157353,15.863161 9.139108,15.813240 9.102619,15.773840 C 9.066129,15.734440 9.020349,15.714740 8.965278,15.714740 C 8.908864,15.714740 8.863644,15.731641 8.829617,15.765445 C 8.795589,15.799248 8.778576,15.845252 8.778576,15.903457 "
       id="path29" />
    <path
       style="fill:#0000ff;fill-opacity:0;stroke:#0000ff;stroke-width:0.00919118;stroke-miterlimit:4;stroke-dasharray:none;stroke-opacity:1"
       d="m 33.812168,29.842946 c -0.327039,-0.0871 -0.65263,0.151142 -0.50749,0.496 0.306888,0.433556 1.136208,-0.178072 1.263111,0.482983 0.375148,0.690953 0.829293,1.357982 1.154958,2.06703 -0.311093,0.881592 -0.881752,1.640734 -1.314589,2.471386 -0.977041,-0.01618 -1.954082,-0.03234 -2.931124,-0.04847 -0.407457,-0.829035 -1.047263,-1.575496 -1.307229,-2.460793 0.452621,-0.782491 0.910819,-1.564405 1.360904,-2.349315 0.306023,-0.06605 1.049157,0.19656 1.034905,-0.334258 0.03671,-0.48934 -0.61801,-0.274569 -0.89955,-0.298293 -0.694793,-0.160497 -0.771779,0.698185 -1.108881,1.102806 -0.352232,0.673097 -0.83527,1.310362 -1.105798,2.005797 0.591462,1.007608 1.107509,2.098943 1.774687,3.036679 1.179363,-0.04773 2.394861,0.03468 3.551708,-0.09389 0.534928,-1.000369 1.210962,-1.950777 1.644897,-2.993056 -0.537728,-1.049374 -1.116049,-2.119345 -1.77019,-3.081159 -0.277799,-0.0091 -0.560631,-0.0025 -0.840319,-0.0034 z"
       id="path5311"
       inkscape:connector-curvature="0"
       transform="scale(0.28222224,0.28222224)" />
    <path
       style="fill:#0000ff;fill-opacity:1;stroke:#0000ff;stroke-width:0.00919118;stroke-miterlimit:4;stroke-dasharray:none;stroke-opacity:1"
       d="m 32.567409,35.827623 c -0.169958,-0.06899 -0.575987,0.115609 -0.261194,0.240011 0.239072,-0.04001 0.768439,0.156874 0.793995,-0.166769 -0.139472,-0.113043 -0.366444,-0.05586 -0.532801,-0.07324 z"
       id="path5313"
       inkscape:connector-curvature="0"
       transform="scale(0.28222224,0.28222224)" />
    <path
       style="fill:#0000ff;fill-opacity:1;stroke:#0000ff;stroke-width:0.00919118;stroke-miterlimit:4;stroke-dasharray:none;stroke-opacity:1"
       d="m 33.812168,29.842946 c -0.327039,-0.0871 -0.65263,0.151142 -0.50749,0.496 0.306888,0.433556 1.136208,-0.178072 1.263111,0.482983 0.375148,0.690953 0.829293,1.357982 1.154958,2.06703 -0.311093,0.881592 -0.881752,1.640734 -1.314589,2.471386 -0.977041,-0.01618 -1.954082,-0.03234 -2.931124,-0.04847 -0.407457,-0.829035 -1.047263,-1.575496 -1.307229,-2.460793 0.452621,-0.782491 0.910819,-1.564405 1.360904,-2.349315 0.306023,-0.06605 1.049157,0.19656 1.034905,-0.334258 0.03671,-0.48934 -0.61801,-0.274569 -0.89955,-0.298293 -0.694793,-0.160497 -0.771779,0.698185 -1.108881,1.102806 -0.352232,0.673097 -0.83527,1.310362 -1.105798,2.005797 0.590316,1.006918 1.106659,2.0978 1.767733,3.036878 1.176382,-0.16002 2.398815,0.0362 3.563508,-0.09445 0.531946,-1.004258 1.204649,-1.960408 1.639153,-3.003647 -0.543695,-1.042841 -1.115307,-2.111976 -1.769292,-3.070209 -0.277799,-0.0091 -0.560631,-0.0025 -0.840319,-0.0034 z"
       id="path5315"
       inkscape:connector-curvature="0"
       transform="scale(0.28222224,0.28222224)" />
    <path
       style="fill:#0000ff;fill-opacity:1;stroke:#0000ff;stroke-width:0.209;stroke-miterlimit:4;stroke-dasharray:none;stroke-opacity:1"
       d="M 32.449289,0.00752549 C 23.27872,0.09589777 14.265551,4.2800526 8.2318514,11.178156 2.8987705,17.191272 -0.1203102,25.218739 0.02873292,33.263426 0.01554375,40.969073 2.9518839,48.606711 7.9841103,54.421771 c 2.1809837,2.395553 4.5519127,4.655008 7.3317127,6.347868 5.451853,3.453648 11.929671,5.326559 18.3942,5.097872 6.142246,-0.06251 12.223311,-2.039024 17.349514,-5.398155 C 58.496659,55.612495 63.797372,47.628413 65.361769,38.882131 66.981035,30.288799 64.943644,21.100749 59.881169,13.975344 58.098819,11.433285 55.897374,9.1978925 53.512697,7.2192919 47.609918,2.4484126 40.031723,-0.11455917 32.449289,0.00752549 Z m 2.063167,1.29879221 c 1.184105,0.068004 2.376006,0.1289524 3.544886,0.3509522 -0.03368,0.8618136 -0.341942,1.7266517 -0.328871,2.5710162 0.330703,0.2233895 0.754179,-0.069539 0.7256,-0.4593794 0.136148,-0.6686391 0.234937,-1.3430605 0.373391,-2.0069795 1.558001,0.3322851 3.103306,0.7448899 4.617309,1.2406293 -0.182249,0.8446722 -0.69807,1.6230645 -0.761862,2.4835923 0.190408,0.2538152 0.656165,0.1896496 0.701725,-0.1719755 0.297998,-0.6563596 0.430271,-1.4229037 0.816256,-2.0152372 1.4782,0.5618139 2.91833,1.2368082 4.315724,1.9766414 -0.827336,1.5304315 -1.797319,2.9998667 -2.546961,4.5627369 0.08142,0.3647826 0.6923,0.3851726 0.750373,-0.027645 0.832962,-1.3529735 1.548607,-2.840209 2.46959,-4.1062299 1.338854,0.7969008 2.633967,1.7008102 3.822058,2.7146283 -0.422993,0.7337177 -1.144098,1.2841236 -1.526957,2.0281622 0.102002,0.350263 0.571472,0.386794 0.741039,0.05762 0.49158,-0.5133823 0.90454,-1.1311056 1.442584,-1.5833232 1.157965,1.0454262 2.311051,2.1585452 3.308285,3.3366482 -0.527465,0.647882 -1.341004,1.032995 -1.81436,1.715626 -0.03284,0.306885 0.344909,0.7459 0.573691,0.327567 0.585465,-0.457121 1.137692,-1.052988 1.770957,-1.393348 0.99921,1.195525 1.911822,2.474848 2.698113,3.822057 -1.393012,1.019974 -3.014033,1.693164 -4.408175,2.703678 -0.147868,0.282096 0.301554,0.684733 0.552369,0.387394 1.436628,-0.749866 2.864431,-1.671226 4.264742,-2.382167 0.733132,1.383832 1.519239,2.787793 1.967126,4.300107 -0.721794,0.438195 -1.647534,0.507913 -2.307667,1.032033 -0.06687,0.258811 0.121075,0.589526 0.423117,0.431554 0.753788,-0.18389 1.466732,-0.588037 2.221321,-0.702981 0.47913,1.491547 0.925631,3.062534 1.202931,4.579791 -0.800866,0.214571 -1.680979,0.19581 -2.442484,0.531185 -0.199617,0.208173 -0.07358,0.674222 0.27035,0.578577 0.769238,-0.04117 1.53742,-0.36811 2.298692,-0.309304 0.295864,1.566115 0.371487,3.223079 0.369443,4.837395 -0.426886,0.03499 -1.064977,-0.227786 -1.567163,-0.301544 -1.16877,-0.244665 -2.334656,-0.581525 -3.502346,-0.790088 -0.300248,0.29814 -0.08498,0.842043 -0.159316,1.222498 0.04878,0.48808 -0.08677,1.051052 0.104923,1.501106 1.701109,-0.302112 3.436647,-0.849277 5.107027,-1.148 0.01724,1.631976 -0.08105,3.279965 -0.337309,4.884609 -0.860183,-0.06899 -1.705579,-0.350089 -2.566529,-0.346106 -0.211958,0.239369 -0.125647,0.799031 0.296807,0.696277 0.691251,0.134176 1.486477,0.210628 2.109953,0.424796 -0.271901,1.545147 -0.667271,3.082638 -1.219087,4.551606 -0.819521,-0.146901 -1.565776,-0.658066 -2.394732,-0.702622 -0.286493,0.109189 -0.3581,0.590953 0.02944,0.623636 0.684023,0.316938 1.424815,0.486831 2.080581,0.855928 -0.535797,1.454045 -1.170162,2.890425 -1.950253,4.229737 -0.832314,-0.24814 -1.554554,-0.842427 -2.335133,-1.229852 -0.753393,-0.415641 -1.485658,-0.884461 -2.264045,-1.24692 -0.353806,0.168877 -0.275405,0.637042 0.07737,0.7554 1.321432,0.867934 2.824255,1.546725 4.064223,2.485388 -0.803671,1.358294 -1.7054,2.664519 -2.69201,3.890812 -0.698144,-0.470198 -1.253325,-1.177657 -2.012723,-1.54024 -0.273852,0.0043 -0.629807,0.47154 -0.217213,0.607479 0.581973,0.480558 1.169923,0.95515 1.696956,1.494104 -1.038161,1.188646 -2.150808,2.328412 -3.322646,3.391042 -0.631205,-0.577679 -1.041245,-1.399258 -1.733578,-1.896219 -0.323994,-0.01862 -0.55497,0.429018 -0.250424,0.644639 0.447603,0.577349 0.972099,1.106386 1.369522,1.710061 -1.221415,1.009533 -2.532839,1.941515 -3.878965,2.761841 -0.931058,-1.442695 -1.70591,-3.012573 -2.637436,-4.451258 -0.305011,-0.07812 -0.832361,0.253065 -0.457621,0.555197 0.808345,1.427049 1.672672,2.818278 2.409489,4.282379 -1.37466,0.740349 -2.806722,1.438795 -4.274435,1.974127 -0.439145,-0.7443 -0.572858,-1.655718 -0.978896,-2.40676 -0.747852,-0.0068 -0.602819,0.585309 -0.327574,1.07698 0.166074,0.530779 0.46869,1.110585 0.503677,1.633161 -1.485034,0.502336 -3.013337,0.91299 -4.549811,1.205624 -0.236553,-0.812259 -0.203719,-1.714891 -0.549496,-2.485567 -0.279101,-0.159356 -0.754414,0.115526 -0.54883,0.47073 0.04548,0.711741 0.37658,1.438567 0.262863,2.137984 -0.898965,0.258625 -1.880254,0.217193 -2.812351,0.32769 -0.674727,0.04414 -1.346434,0.09741 -2.021275,0.100993 0.315521,-1.698756 0.748673,-3.387362 1.105813,-5.068791 -0.294959,-0.304225 -0.843141,-0.08559 -1.222856,-0.161109 -0.49541,0.02676 -1.016729,-0.05583 -1.49626,0.03922 0.314458,1.719728 0.825382,3.431275 1.172773,5.155495 -1.631341,0.07064 -3.261642,-0.16686 -4.881017,-0.383265 0.05328,-0.832647 0.269689,-1.648807 0.367826,-2.479822 -0.151986,-0.19907 -0.762892,-0.372461 -0.718657,0.03463 -0.172722,0.75587 -0.180104,1.625064 -0.480145,2.317738 -1.544257,-0.300225 -3.083897,-0.729205 -4.550171,-1.274378 0.192416,-0.802489 0.672856,-1.542751 0.760067,-2.361522 -0.123298,-0.297952 -0.620442,-0.323372 -0.671746,0.05152 -0.281214,0.691873 -0.535868,1.412398 -0.76258,2.113971 -1.494211,-0.575668 -2.96035,-1.277261 -4.369758,-2.047192 0.771325,-1.506391 1.765028,-2.903541 2.444637,-4.452335 0.07821,-0.308546 -0.487226,-0.56303 -0.571576,-0.178258 -0.879951,1.370546 -1.620285,2.860272 -2.510699,4.203526 -1.363207,-0.694714 -2.600952,-1.659822 -3.809671,-2.579632 -0.18398,-0.229546 0.27436,-0.512602 0.376539,-0.731369 0.317956,-0.487412 0.884504,-0.866744 1.039297,-1.439149 -0.07763,-0.264429 -0.500349,-0.44184 -0.636919,-0.110581 -0.532053,0.528587 -0.923928,1.232735 -1.532521,1.661951 C 11.079985,55.924597 9.9371169,54.820432 8.9247235,53.666583 9.4430351,53.006141 10.222335,52.590416 10.772653,51.95706 10.798837,51.661552 10.436557,51.342433 10.185459,51.626573 9.5678733,52.048268 9.0165762,52.696062 8.3745095,53.007404 7.40282,51.779432 6.4795454,50.479838 5.6579065,49.151238 7.1494511,48.230396 8.7051916,47.402412 10.193716,46.486695 10.154378,46.198689 9.8133595,45.737247 9.5206086,46.079391 8.1173283,46.875867 6.7261672,47.731267 5.3056978,48.472312 4.5769605,47.085194 3.8112832,45.690614 3.314336,44.206852 3.4630207,43.971328 3.9392818,43.935311 4.2115261,43.787529 4.6765102,43.550877 5.3005929,43.52541 5.6767556,43.153278 5.6776598,42.906733 5.4620124,42.488449 5.1658555,42.70449 4.4594632,42.923475 3.7449992,43.260499 3.0457813,43.419498 2.4972695,41.953334 2.0640676,40.419701 1.8012027,38.870943 2.6254459,38.587949 3.5312312,38.575104 4.3506771,38.325756 4.3406113,38.030929 4.254114,37.498155 3.8256401,37.731416 3.1072451,37.827677 2.3553794,38.049491 1.6495124,38.044097 1.4214103,36.429972 1.2390446,34.79488 1.2502707,33.169362 c 1.7044411,0.287099 3.3780625,0.796276 5.0766888,1.091811 0.241347,-0.478132 0.080355,-1.10977 0.1342774,-1.640051 C 6.3915936,32.306353 6.5730116,31.799877 6.2711303,31.589629 4.5944257,31.912213 2.848986,32.41174 1.2319601,32.7256 1.2764109,31.105756 1.3886233,29.456995 1.6703362,27.869894 2.5074149,27.836315 3.3540513,28.260776 4.1909086,28.111163 4.4760288,27.942022 4.3581429,27.449748 3.988954,27.492016 3.2567422,27.333031 2.515668,27.242608 1.7879185,27.067282 2.0935701,25.517858 2.4955593,23.979687 3.0048519,22.48462 c 0.8531108,0.18308 1.6488994,0.615188 2.4853874,0.808177 0.205115,-0.241971 0.2302624,-0.679796 -0.1531264,-0.751631 -0.6600814,-0.299734 -1.4612628,-0.47872 -2.0532945,-0.815357 0.5751569,-1.452046 1.1989307,-2.908257 1.9940545,-4.247508 1.215,0.483671 2.2935875,1.278177 3.4498739,1.891725 0.4206329,0.09509 1.0961716,1.00635 1.3327692,0.35347 C 10.357357,19.230063 9.571831,19.118102 9.3121169,18.893598 8.0926159,18.184064 6.8446093,17.502313 5.6557524,16.75665 6.486468,15.402585 7.4181812,14.084998 8.4256713,12.871223 c 0.7136358,0.433334 1.2451257,1.160342 1.9949517,1.523366 0.323805,-0.04029 0.483107,-0.498633 0.143612,-0.671387 -0.55173,-0.501382 -1.1580253,-0.941558 -1.6890576,-1.465921 1.074365,-1.156737 2.2114316,-2.3201091 3.4080956,-3.3102593 0.602936,0.5825151 1.100889,1.2783253 1.667516,1.8822163 0.327594,-0.03227 0.588839,-0.467129 0.276812,-0.715906 C 13.77738,9.5325947 13.275772,8.9932848 12.828461,8.4100919 14.07291,7.4267676 15.380246,6.5169122 16.74207,5.7022851 c 0.995813,1.4285452 1.744545,3.0162588 2.705115,4.4647209 0.379394,0.05233 0.565868,-0.4130455 0.321152,-0.6852091 -0.722891,-1.4056827 -1.606508,-2.7555535 -2.317541,-4.1467998 1.272952,-0.8098652 2.680941,-1.3958721 4.071943,-1.9762825 0.332228,-0.2036822 0.340655,0.3912302 0.483613,0.5629595 0.278042,0.5352699 0.315815,1.2452667 0.761145,1.67362 0.258062,0.09851 0.653081,-0.080054 0.436761,-0.389907 -0.205854,-0.7264045 -0.566469,-1.4746328 -0.715369,-2.1681841 1.493416,-0.5446176 3.037819,-0.9945609 4.608873,-1.2474509 0.183341,0.8207869 0.221817,1.7250535 0.496018,2.49351 0.24111,0.099701 0.780591,0.041506 0.610872,-0.3493809 -0.147005,-0.756379 -0.296643,-1.527006 -0.387394,-2.2870233 1.63841,-0.2338578 3.317354,-0.4018811 4.958568,-0.3480798 -0.40681,1.6889169 -0.81677,3.3840024 -1.12161,5.0926657 0.323973,0.234976 0.833129,0.046328 1.222304,0.1037853 0.47222,-0.082622 1.146112,0.1333737 1.487297,-0.1515363 -0.4036,-1.6973761 -0.811795,-3.3936922 -1.207777,-5.0928452 0.452138,0.01849 0.904277,0.03698 1.356416,0.05547 z m -1.53306,1.8807804 c 0.256758,0.8940786 0.546887,1.8113864 0.662053,2.7194753 -0.428207,0.063655 -0.903617,0.056324 -1.34421,-0.00556 0.169087,-0.9056191 0.415639,-1.8837991 0.682157,-2.7139103 z M 5.8519624,32.25563 c 0.05903,0.42449 0.089882,0.946348 -0.012925,1.343851 C 4.9248197,33.451243 4.032523,33.201672 3.1499002,32.935454 4.0380478,32.669396 4.936638,32.406014 5.8519624,32.25563 Z m 54.1345926,0.04685 c 0.940148,0.187936 1.928259,0.419063 2.816773,0.67749 -0.924416,0.260732 -1.877555,0.495764 -2.807437,0.686826 -0.05177,-0.449746 -0.05654,-0.916582 -0.0093,-1.364316 z M 32.925183,60.00544 c 0.17895,0.05335 0.643762,-0.09686 0.677311,0.09407 -0.227749,0.912349 -0.41783,1.834214 -0.647332,2.745864 -0.300155,-0.914331 -0.505833,-1.911473 -0.706212,-2.815696 0.223402,-0.03325 0.451174,-0.0194 0.676233,-0.02423 z"
       id="path5317"
       inkscape:connector-curvature="0"
       transform="scale(0.28222224,0.28222224)" />
  </g>
</svg>
