<?xml version="1.0" encoding="UTF-8" standalone="no"?>
<!-- Created by Vectric (http://www.vectric.com/) -->

<svg
   xmlns:dc="http://purl.org/dc/elements/1.1/"
   xmlns:cc="http://creativecommons.org/ns#"
   xmlns:rdf="http://www.w3.org/1999/02/22-rdf-syntax-ns#"
   xmlns:svg="http://www.w3.org/2000/svg"
   xmlns="http://www.w3.org/2000/svg"
   xmlns:sodipodi="http://sodipodi.sourceforge.net/DTD/sodipodi-0.dtd"
   xmlns:inkscape="http://www.inkscape.org/namespaces/inkscape"
   width="18.60000000mm"
   height="18.60000000mm"
   viewBox="0 0 18.60000000 18.60000000"
   id="svg2"
   version="1.1"
   inkscape:version="0.91 r13725"
   sodipodi:docname="VORDME.svg">
  <metadata
     id="metadata57">
    <rdf:RDF>
      <cc:Work
         rdf:about="">
        <dc:format>image/svg+xml</dc:format>
        <dc:type
           rdf:resource="http://purl.org/dc/dcmitype/StillImage" />
      </cc:Work>
    </rdf:RDF>
  </metadata>
  <defs
     id="defs55" />
  <sodipodi:namedview
     pagecolor="#ffffff"
     bordercolor="#666666"
     borderopacity="1"
     objecttolerance="10"
     gridtolerance="10"
     guidetolerance="10"
     inkscape:pageopacity="0"
     inkscape:pageshadow="2"
     inkscape:window-width="1366"
     inkscape:window-height="705"
     id="namedview53"
     showgrid="false"
     inkscape:zoom="25.009834"
     inkscape:cx="19.395772"
     inkscape:cy="32.952757"
     inkscape:window-x="-8"
     inkscape:window-y="-8"
     inkscape:window-maximized="1"
     inkscape:current-layer="d5d67a5a-1c56-439a-9b11-24cea6d65eab" />
  <g
     inkscape:groupmode="layer"
     id="350f65ba-abf8-41e2-b810-6374299eb6a6"
     inkscape:label="Bitmap Layer" />
  <g
     inkscape:groupmode="layer"
     id="d5d67a5a-1c56-439a-9b11-24cea6d65eab"
     inkscape:label="Layer 1">
    <path
       style="fill:#0000ff;stroke-width:0.02822222;stroke-linecap:round;stroke-linejoin:round;stroke-opacity:1;stroke:#0000ff;stroke-miterlimit:4;stroke-dasharray:none;fill-opacity:0"
       d="M 9.300000,0.000000 A 9.300000,9.300000 0 0,0 0.000000,9.300000 A 9.300000,9.300000 0 0,0 9.300000,18.600000 A 9.300000,9.300000 0 0,0 18.600000,9.300000 A 9.300000,9.300000 0 0,0 9.300000,0.000000 "
       id="path5" />
    <path
       style="fill:#ffffff;stroke-width:0.02822222;stroke-linecap:round;stroke-linejoin:round;stroke-opacity:1;stroke:#0000ff;stroke-miterlimit:4;stroke-dasharray:none;fill-opacity:0"
       d="M 6.330548,0.849569 C 6.756568,0.704188 7.195814,0.586041 7.646216,0.497361 L 7.775694,1.231593 L 7.972656,1.196863 L 7.843219,0.462727 C 8.303211,0.392005 8.774156,0.351753 9.254032,0.349260 L 8.909436,1.832903 L 9.709436,1.832903 L 9.355216,0.349285 C 9.831897,0.352246 10.299744,0.392465 10.756785,0.462717 L 10.627344,1.196863 L 10.824306,1.231593 L 10.953781,0.497350 C 11.404249,0.586035 11.843561,0.704207 12.269547,0.849595 L 12.014358,1.550466 L 12.202297,1.618870 L 12.457203,0.917919 C 12.883364,1.082992 13.295533,1.276064 13.691594,1.493985 L 12.943972,2.788940 L 13.117177,2.888940 L 13.864776,1.594093 C 14.253970,1.830807 14.626317,2.092341 14.979933,2.375803 L 14.501325,2.946215 L 14.654534,3.074772 L 15.133127,2.504427 C 15.474119,2.804627 15.795834,3.126395 16.096016,3.467396 L 15.525712,3.945951 L 15.654270,4.099160 L 16.224618,3.620590 C 16.507952,3.974286 16.769417,4.346668 17.006222,4.735800 L 15.711544,5.483308 L 15.811544,5.656513 L 17.106315,4.908992 C 17.323897,5.305046 17.516828,5.717091 17.682171,6.143197 L 16.981614,6.398188 L 17.050018,6.586126 L 17.750583,6.331151 C 17.895532,6.757276 18.013578,7.196503 18.102639,7.646791 L 17.368892,7.776178 L 17.403621,7.973140 L 18.137251,7.843790 C 18.207360,8.303842 18.247504,8.774755 18.250984,9.254521 L 16.767581,8.909921 L 16.767581,9.709921 L 18.250956,9.355690 C 18.246931,9.832246 18.206772,10.300054 18.137174,10.757163 L 17.403621,10.627829 L 17.368892,10.824790 L 18.102551,10.954162 C 18.017727,11.405388 17.899088,11.844703 17.752078,12.270362 L 17.050018,12.014842 L 16.981614,12.202781 L 17.683560,12.458285 C 17.519100,12.884836 17.325712,13.296812 17.107016,13.692387 L 15.811544,12.944456 L 15.711544,13.117661 L 17.006857,13.865523 C 16.770292,14.254929 16.508481,14.627229 16.224728,14.980609 L 15.654270,14.501809 L 15.525712,14.655018 L 16.096265,15.133544 C 15.796056,15.474452 15.474101,15.796154 15.133013,16.096412 L 14.654534,15.526196 L 14.501325,15.654754 L 14.979804,16.224995 C 14.625955,16.508138 14.253546,16.769532 13.864549,17.006494 L 13.117177,15.712028 L 12.943972,15.812028 L 13.691364,17.106572 C 13.295121,17.323914 12.883037,17.516836 12.457096,17.682414 L 12.202297,16.982098 L 12.014358,17.050502 L 12.269361,17.750746 C 11.843143,17.895430 11.403798,18.013519 10.953543,18.102866 L 10.824306,17.369376 L 10.627344,17.404106 L 10.756796,18.137438 C 10.296772,18.207296 9.825786,18.247477 9.345953,18.251225 L 9.690564,16.768066 L 8.890564,16.768066 L 9.244303,18.251195 C 8.767584,18.246856 8.300136,18.206709 7.843361,18.137428 L 7.972656,17.404106 L 7.775694,17.369376 L 7.646361,18.102812 C 7.196066,18.013407 6.756813,17.895336 6.330680,17.750720 L 6.585642,17.050502 L 6.397703,16.982098 L 6.143053,17.682428 C 5.716963,17.516758 5.304645,17.323689 4.908437,17.106370 L 5.656028,15.812028 L 5.482823,15.712028 L 4.739494,16.999385 C 4.346507,16.769284 3.974200,16.507849 3.620348,16.224832 L 4.098675,15.654754 L 3.945466,15.526196 L 3.467146,16.096218 C 3.126420,15.795759 2.804709,15.474059 2.504259,15.133355 L 3.074288,14.655018 L 2.945730,14.501809 L 2.375642,14.980159 C 2.092547,14.626286 1.831070,14.253954 1.594014,13.865026 L 2.888456,13.117661 L 2.788456,12.944456 L 1.493914,13.691841 C 1.276532,13.295689 1.083575,12.883694 0.918015,12.457713 L 1.618386,12.202781 L 1.549982,12.014842 L 0.849589,12.269754 C 0.704763,11.843583 0.586671,11.404388 0.497461,10.954167 L 1.231108,10.824790 L 1.196379,10.627829 L 0.462835,10.757161 C 0.392752,10.297090 0.352554,9.826196 0.349019,9.346463 L 1.832419,9.691048 L 1.832419,8.891048 L 0.349042,9.245232 C 0.353018,8.768654 0.393127,8.300869 0.462749,7.843792 L 1.196379,7.973140 L 1.231108,7.776178 L 0.497361,7.646791 C 0.586421,7.196507 0.704466,6.757282 0.849416,6.331155 L 1.549982,6.586126 L 1.618386,6.398188 L 0.917835,6.143183 C 1.083180,5.717074 1.276107,5.305040 1.493684,4.908994 L 2.788456,5.656513 L 2.888456,5.483308 L 1.593776,4.735803 C 1.830579,4.346676 2.092042,3.974297 2.375378,3.620596 L 2.945730,4.099160 L 3.074288,3.945951 L 2.503988,3.467394 C 2.804172,3.126393 3.125885,2.804628 3.466874,2.504429 L 3.945466,3.074772 L 4.098675,2.946215 L 3.620062,2.375810 C 3.973681,2.092349 4.346036,1.830810 4.735232,1.594093 L 5.482823,2.888940 L 5.656028,2.788940 L 4.908404,1.493991 C 5.304341,1.276146 5.716377,1.083125 6.142597,0.918001 L 6.397703,1.618870 L 6.585642,1.550466 L 6.330548,0.849569 "
       id="path51" />
    <path
       style="fill:none;stroke-width:0.02822222;stroke-linecap:round;stroke-linejoin:round;stroke-opacity:1;stroke:#0000ff;stroke-miterlimit:4;stroke-dasharray:none;fill-opacity:1"
       d="M 8.300000,10.300484 L 10.300000,10.300484 L 10.300000,8.300484 L 8.300000,8.300484 L 8.300000,10.300484 "
       id="path47" />
    <path
       style="fill:#ffffff;stroke-width:0.02822222;stroke-linecap:round;stroke-linejoin:round;stroke-opacity:1;stroke:#0000ff;stroke-miterlimit:4;stroke-dasharray:none;fill-opacity:1"
       d="M 9.306074,0.831597 L 9.110822,1.672903 L 9.506777,1.672903 L 9.306074,0.831597 "
       id="path7" />
    <path
       style="fill:none;stroke-width:0.02822222;stroke-linecap:round;stroke-linejoin:round;stroke-opacity:1;stroke:#0000ff;stroke-miterlimit:4;stroke-dasharray:none;fill-opacity:1"
       d="M 8.450000,10.150484 L 10.150000,10.150484 L 10.150000,8.450484 L 8.450000,8.450484 L 8.450000,10.150484 "
       id="path49" />
    <path
       style="fill:none;stroke-width:0.02822222;stroke-linecap:round;stroke-linejoin:round;stroke-opacity:1;stroke:#0000ff;stroke-miterlimit:4;stroke-dasharray:none;fill-opacity:1"
       d="M 9.800000,10.166025 L 10.300000,9.300000 L 9.800000,8.433975 L 8.800000,8.433975 L 8.300000,9.300000 L 8.800000,10.166025 L 9.800000,10.166025 "
       id="path9" />
    <path
       style="fill:none;stroke-width:0.02822222;stroke-linecap:round;stroke-linejoin:round;stroke-opacity:1;stroke:#0000ff;stroke-miterlimit:4;stroke-dasharray:none;fill-opacity:1"
       d="M 9.700000,9.992820 L 10.100000,9.300000 L 9.700000,8.607180 L 8.900000,8.607180 L 8.500000,9.300000 L 8.900000,9.992820 L 9.700000,9.992820 "
       id="path11" />
    <path
       style="fill:#0000ff;stroke-width:0.02822222;stroke-linecap:round;stroke-linejoin:round;stroke-opacity:1;stroke:#0000ff;stroke-miterlimit:4;stroke-dasharray:none;fill-opacity:1"
       d="M 9.200000,9.441484 L 9.400000,9.441484 L 9.400000,3.141484 L 9.200000,3.141484 L 9.200000,9.441484 "
       id="path13" />
    <path
       style="fill:#ffffff;stroke-width:0.02822222;stroke-linecap:round;stroke-linejoin:round;stroke-opacity:1;stroke:#0000ff;stroke-miterlimit:4;stroke-dasharray:none;fill-opacity:1"
       d="M 17.768887,9.306558 L 16.927581,9.111306 L 16.927581,9.507261 L 17.768887,9.306558 "
       id="path15" />
    <path
       style="fill:#ffffff;stroke-width:0.02822222;stroke-linecap:round;stroke-linejoin:round;stroke-opacity:1;stroke:#0000ff;stroke-miterlimit:4;stroke-dasharray:none;fill-opacity:1"
       d="M 9.293926,17.769372 L 9.489178,16.928066 L 9.093223,16.928066 L 9.293926,17.769372 "
       id="path17" />
    <path
       style="fill:#0000ff;stroke-width:0.02822222;stroke-linecap:round;stroke-linejoin:round;stroke-opacity:1;stroke:#0000ff;stroke-miterlimit:4;stroke-dasharray:none;fill-opacity:1"
       d="M 2.968000,9.363680 L 2.968000,9.980873 L 2.827637,9.980873 C 2.785551,9.936548 2.745255,9.894685 2.706751,9.855285 C 2.668246,9.815885 2.628175,9.777381 2.586536,9.739772 C 2.502811,9.663658 2.435764,9.611722 2.385394,9.583962 C 2.335025,9.556203 2.282976,9.542324 2.229249,9.542324 C 2.201490,9.542324 2.177089,9.546689 2.156046,9.555420 C 2.135002,9.564150 2.117541,9.576127 2.103662,9.591350 C 2.090230,9.607020 2.080156,9.625153 2.073440,9.645749 C 2.066724,9.666344 2.063366,9.688955 2.063366,9.713580 C 2.063366,9.737309 2.066388,9.761375 2.072433,9.785776 C 2.078477,9.810177 2.085976,9.833571 2.094931,9.855957 C 2.102542,9.874762 2.111721,9.892895 2.122466,9.910356 C 2.133212,9.927817 2.142390,9.941921 2.150001,9.952666 L 2.150001,9.960054 L 2.007624,9.960054 C 1.993744,9.932295 1.980201,9.893678 1.966993,9.844204 C 1.953785,9.794730 1.947181,9.747831 1.947181,9.703506 C 1.947181,9.610378 1.971918,9.537399 2.021392,9.484567 C 2.070865,9.431735 2.137913,9.405319 2.222533,9.405319 C 2.261486,9.405319 2.297528,9.409908 2.330660,9.419087 C 2.363791,9.428265 2.394461,9.440913 2.422668,9.457032 C 2.451770,9.473598 2.480648,9.493521 2.509303,9.516803 C 2.537957,9.540085 2.566164,9.564710 2.593923,9.590678 C 2.639592,9.632765 2.687051,9.679664 2.736301,9.731377 C 2.785551,9.783089 2.824503,9.824392 2.853158,9.855285 L 2.853158,9.363680 L 2.968000,9.363680 "
       id="path19" />
    <path
       style="fill:#0000ff;stroke-width:0.02822222;stroke-linecap:round;stroke-linejoin:round;stroke-opacity:1;stroke:#0000ff;stroke-miterlimit:4;stroke-dasharray:none;fill-opacity:1"
       d="M 2.117765,8.602095 L 2.968000,9.034600 L 2.968000,9.177649 L 2.085529,8.719624 L 2.085529,9.236750 L 1.968000,9.236750 L 1.968000,8.602095 L 2.117765,8.602095 "
       id="path21" />
    <path
       style="fill:#ffffff;stroke-width:0.02822222;stroke-linecap:round;stroke-linejoin:round;stroke-opacity:1;stroke:#0000ff;stroke-miterlimit:4;stroke-dasharray:none;fill-opacity:1"
       d="M 0.831113,9.294410 L 1.672419,9.489662 L 1.672419,9.093708 L 0.831113,9.294410 "
       id="path23" />
    <path
       style="fill:#0000ff;stroke-width:0.02822222;stroke-linecap:round;stroke-linejoin:round;stroke-opacity:1;stroke:#0000ff;stroke-miterlimit:4;stroke-dasharray:none;fill-opacity:1"
       d="M 9.453525,15.637507 L 9.941101,15.637507 L 9.941101,15.739589 L 9.759771,15.739589 L 9.759771,16.409837 L 9.941101,16.409837 L 9.941101,16.501173 C 9.872598,16.501173 9.822117,16.510912 9.789657,16.530388 C 9.757197,16.549864 9.738952,16.586689 9.734922,16.640865 L 9.630825,16.640865 L 9.630825,15.739589 L 9.453525,15.739589 L 9.453525,15.637507 "
       id="path25" />
    <path
       style="fill:#0000ff;stroke-width:0.02822222;stroke-linecap:round;stroke-linejoin:round;stroke-opacity:1;stroke:#0000ff;stroke-miterlimit:4;stroke-dasharray:none;fill-opacity:1"
       d="M 8.966621,15.614672 C 9.016319,15.614672 9.061540,15.622060 9.102283,15.636835 C 9.143026,15.651610 9.177725,15.672877 9.206379,15.700636 C 9.234586,15.727500 9.255965,15.759400 9.270516,15.796338 C 9.285068,15.833276 9.292343,15.872340 9.292343,15.913531 C 9.292343,15.967706 9.277904,16.017516 9.249026,16.062960 C 9.220147,16.108404 9.178173,16.144558 9.123102,16.171422 L 9.123102,16.175452 C 9.172352,16.204106 9.208842,16.235447 9.232572,16.269474 C 9.256301,16.303502 9.268166,16.346036 9.268166,16.397077 C 9.268166,16.472295 9.239735,16.534977 9.182874,16.585122 C 9.126012,16.635268 9.053928,16.660341 8.966621,16.660341 C 8.875732,16.660341 8.802865,16.636499 8.748018,16.588816 C 8.693171,16.541133 8.665748,16.480130 8.665748,16.405807 C 8.665748,16.361035 8.678844,16.316710 8.705036,16.272832 C 8.731228,16.228955 8.768949,16.194704 8.818199,16.170079 L 8.818199,16.166049 C 8.759995,16.138738 8.715894,16.105606 8.685896,16.066654 C 8.655898,16.027701 8.640899,15.977556 8.640899,15.916217 C 8.640899,15.830701 8.671904,15.759065 8.733915,15.701308 C 8.795925,15.643551 8.873494,15.614672 8.966621,15.614672 "
       id="path31" />
    <path
       style="fill:#0000ff;stroke-width:0.02822222;stroke-linecap:round;stroke-linejoin:round;stroke-opacity:1;stroke:#0000ff;stroke-miterlimit:4;stroke-dasharray:none;fill-opacity:1"
       d="M 16.110006,9.254850 C 15.930467,9.254850 15.798723,9.228770 15.714774,9.176610 C 15.630825,9.124449 15.588851,9.043970 15.588851,8.935172 C 15.588851,8.825031 15.631609,8.744216 15.717125,8.692728 C 15.802641,8.641239 15.933154,8.615495 16.108663,8.615495 C 16.289097,8.615495 16.421065,8.641575 16.504566,8.693735 C 16.588067,8.745895 16.629818,8.826375 16.629818,8.935172 C 16.629818,9.045313 16.586612,9.126128 16.500201,9.177617 C 16.413789,9.229106 16.283724,9.254850 16.110006,9.254850 "
       id="path33" />
    <path
       style="fill:#0000ff;stroke-width:0.02822222;stroke-linecap:round;stroke-linejoin:round;stroke-opacity:1;stroke:#0000ff;stroke-miterlimit:4;stroke-dasharray:none;fill-opacity:1"
       d="M 16.284620,9.355589 C 16.336109,9.355589 16.383120,9.363984 16.425654,9.380773 C 16.468188,9.397563 16.504902,9.420509 16.535795,9.449612 C 16.565345,9.477371 16.588403,9.511286 16.604969,9.551358 C 16.621535,9.591429 16.629818,9.632061 16.629818,9.673252 C 16.629818,9.719368 16.622095,9.761118 16.606648,9.798503 C 16.591202,9.835889 16.568927,9.868237 16.539825,9.895548 C 16.503111,9.930024 16.454980,9.956775 16.395433,9.975804 C 16.335885,9.994832 16.260666,10.004346 16.169778,10.004346 C 16.086948,10.004346 16.008484,9.995056 15.934385,9.976475 C 15.860286,9.957895 15.798835,9.930471 15.750033,9.894205 C 15.698097,9.855701 15.658473,9.809473 15.631161,9.755522 C 15.603850,9.701570 15.590194,9.634971 15.590194,9.555723 C 15.590194,9.537814 15.591202,9.518786 15.593216,9.498638 C 15.595231,9.478490 15.598925,9.459685 15.604298,9.442224 L 15.732572,9.442224 L 15.732572,9.448940 C 15.726303,9.460133 15.720259,9.477595 15.714439,9.501324 C 15.708618,9.525054 15.705708,9.549231 15.705708,9.573856 C 15.705708,9.661611 15.734586,9.730561 15.792343,9.780706 C 15.850100,9.830852 15.932706,9.859283 16.040161,9.865998 C 16.015983,9.830180 15.998298,9.796041 15.987105,9.763581 C 15.975912,9.731120 15.970315,9.695862 15.970315,9.657805 C 15.970315,9.620644 15.974345,9.586840 15.982404,9.556395 C 15.990463,9.525949 16.006133,9.495280 16.029415,9.464387 C 16.056726,9.428568 16.091313,9.401481 16.133176,9.383124 C 16.175039,9.364767 16.225520,9.355589 16.284620,9.355589 "
       id="path39" />
    <path
       style="fill:#0000ff;stroke-width:0.02822222;stroke-linecap:round;stroke-linejoin:round;stroke-opacity:1;stroke:#0000ff;stroke-miterlimit:4;stroke-dasharray:none;fill-opacity:1"
       d="M 8.891270,2.063850 C 8.867093,2.063850 8.842915,2.066760 8.818738,2.072581 C 8.794561,2.078401 8.770831,2.086013 8.747549,2.095415 C 8.726058,2.104370 8.707366,2.113772 8.691471,2.123622 C 8.675577,2.133472 8.661362,2.142650 8.648825,2.151157 L 8.640766,2.151157 L 8.640766,2.009451 C 8.669869,1.993781 8.709381,1.979566 8.759302,1.966805 C 8.809224,1.954045 8.856795,1.947665 8.902015,1.947665 C 8.947236,1.947665 8.986748,1.952254 9.020551,1.961433 C 9.054355,1.970611 9.084912,1.984826 9.112224,2.004079 C 9.141774,2.025570 9.164048,2.051538 9.179047,2.081983 C 9.194046,2.112429 9.201545,2.148023 9.201545,2.188766 C 9.201545,2.243837 9.183412,2.292191 9.147146,2.333830 C 9.110880,2.375469 9.067451,2.401885 9.016858,2.413078 L 9.016858,2.422480 C 9.037901,2.426510 9.060399,2.433450 9.084353,2.443300 C 9.108306,2.453150 9.130580,2.467701 9.151176,2.486953 C 9.171771,2.506205 9.188561,2.530942 9.201545,2.561164 C 9.214529,2.591386 9.221021,2.628211 9.221021,2.671641 C 9.221021,2.716861 9.213298,2.758388 9.197852,2.796221 C 9.182405,2.834054 9.160578,2.867522 9.132371,2.896624 C 9.103269,2.927069 9.068122,2.950127 9.026931,2.965798 C 8.985741,2.981468 8.938953,2.989304 8.886569,2.989304 C 8.836423,2.989304 8.786726,2.983259 8.737475,2.971171 C 8.688225,2.959082 8.646811,2.944531 8.613231,2.927517 L 8.613231,2.785811 L 8.622633,2.785811 C 8.650840,2.806407 8.688673,2.826107 8.736132,2.844911 C 8.783591,2.863716 8.831051,2.873118 8.878510,2.873118 C 8.905821,2.873118 8.933244,2.868753 8.960780,2.860022 C 8.988315,2.851291 9.011261,2.837076 9.029618,2.817376 C 9.047527,2.797676 9.061183,2.775961 9.070585,2.752232 C 9.079987,2.728502 9.084688,2.698504 9.084688,2.662238 C 9.084688,2.625972 9.079428,2.596199 9.068906,2.572917 C 9.058384,2.549635 9.043721,2.531278 9.024917,2.517846 C 9.006112,2.504414 8.983838,2.495124 8.958093,2.489975 C 8.932349,2.484826 8.904478,2.482252 8.874480,2.482252 L 8.817395,2.482252 L 8.817395,2.370768 L 8.861720,2.370768 C 8.922163,2.370768 8.971301,2.356440 9.009134,2.327786 C 9.046967,2.299131 9.065884,2.257493 9.065884,2.202870 C 9.065884,2.177797 9.060959,2.156194 9.051109,2.138061 C 9.041259,2.119928 9.028722,2.105489 9.013500,2.094743 C 8.996486,2.083103 8.977681,2.075043 8.957086,2.070566 C 8.936490,2.066089 8.914552,2.063850 8.891270,2.063850 "
       id="path41" />
    <path
       style="fill:#0000ff;stroke-width:0.02822222;stroke-linecap:round;stroke-linejoin:round;stroke-opacity:1;stroke:#0000ff;stroke-miterlimit:4;stroke-dasharray:none;fill-opacity:1"
       d="M 10.004769,2.644105 C 10.004769,2.695594 9.996262,2.743053 9.979248,2.786483 C 9.962235,2.829912 9.939401,2.866178 9.910746,2.895281 C 9.880748,2.926174 9.847169,2.949568 9.810007,2.965462 C 9.772846,2.981356 9.731879,2.989304 9.687106,2.989304 C 9.641886,2.989304 9.600807,2.981692 9.563869,2.966469 C 9.526931,2.951247 9.494359,2.928636 9.466152,2.898639 C 9.431677,2.862373 9.404702,2.813906 9.385226,2.753239 C 9.365749,2.692572 9.356011,2.617913 9.356011,2.529263 C 9.356011,2.442404 9.364966,2.363940 9.382875,2.293870 C 9.400784,2.223801 9.428319,2.162798 9.465481,2.110862 C 9.501747,2.060268 9.548534,2.020756 9.605844,1.992326 C 9.663153,1.963895 9.729416,1.949680 9.804635,1.949680 C 9.827021,1.949680 9.847840,1.950799 9.867093,1.953038 C 9.886345,1.955276 9.903359,1.958858 9.918134,1.963783 L 9.918134,2.092057 L 9.912089,2.092057 C 9.900001,2.085341 9.882539,2.079185 9.859705,2.073588 C 9.836871,2.067992 9.812470,2.065193 9.786502,2.065193 C 9.703224,2.065193 9.635953,2.093288 9.584688,2.149478 C 9.533424,2.205668 9.503090,2.289057 9.493688,2.399646 C 9.525476,2.377260 9.558161,2.360022 9.591740,2.347934 C 9.625320,2.335845 9.662033,2.329801 9.701881,2.329801 C 9.740833,2.329801 9.774973,2.333718 9.804299,2.341553 C 9.833625,2.349389 9.864182,2.365171 9.895971,2.388901 C 9.932685,2.416660 9.959996,2.451806 9.977905,2.494341 C 9.995814,2.536875 10.004769,2.586796 10.004769,2.644105 "
       id="path43" />
    <path
       style="fill:#ffffff;stroke-width:0.02822222;stroke-linecap:round;stroke-linejoin:round;stroke-opacity:1;stroke:#0000ff;stroke-miterlimit:4;stroke-dasharray:none;fill-opacity:1"
       d="M 8.797380,16.404464 C 8.797380,16.449237 8.812379,16.486622 8.842377,16.516620 C 8.872375,16.546618 8.914013,16.561617 8.967293,16.561617 C 9.016095,16.561617 9.056055,16.548185 9.087172,16.521321 C 9.118289,16.494458 9.133848,16.458192 9.133848,16.412523 C 9.133848,16.379392 9.125900,16.351409 9.110006,16.328574 C 9.094112,16.305740 9.070270,16.285145 9.038482,16.266788 C 9.024602,16.259177 9.003447,16.248655 8.975016,16.235223 C 8.946585,16.221791 8.920729,16.211270 8.897447,16.203658 C 8.858495,16.233656 8.832079,16.264437 8.818199,16.296002 C 8.804320,16.327567 8.797380,16.363721 8.797380,16.404464 "
       id="path27" />
    <path
       style="fill:#ffffff;stroke-width:0.02822222;stroke-linecap:round;stroke-linejoin:round;stroke-opacity:1;stroke:#0000ff;stroke-miterlimit:4;stroke-dasharray:none;fill-opacity:1"
       d="M 8.778576,15.903457 C 8.778576,15.944648 8.786635,15.977332 8.802753,16.001509 C 8.818871,16.025687 8.849988,16.050312 8.896104,16.075384 C 8.911327,16.083891 8.931587,16.093070 8.956883,16.102920 C 8.982180,16.112770 9.010722,16.124411 9.042511,16.137842 C 9.079672,16.113217 9.108103,16.082884 9.127803,16.046842 C 9.147503,16.010800 9.157353,15.969721 9.157353,15.923605 C 9.157353,15.863161 9.139108,15.813240 9.102619,15.773840 C 9.066129,15.734440 9.020349,15.714740 8.965278,15.714740 C 8.908864,15.714740 8.863644,15.731641 8.829617,15.765445 C 8.795589,15.799248 8.778576,15.845252 8.778576,15.903457 "
       id="path29" />
    <path
       style="fill:#ffffff;stroke-width:0.02822222;stroke-linecap:round;stroke-linejoin:round;stroke-opacity:1;stroke:#0000ff;stroke-miterlimit:4;stroke-dasharray:none;fill-opacity:1"
       d="M 15.805103,9.082923 C 15.838235,9.095907 15.880098,9.105085 15.930691,9.110458 C 15.981284,9.115831 16.041056,9.118517 16.110006,9.118517 C 16.178508,9.118517 16.238056,9.115831 16.288649,9.110458 C 16.339243,9.105085 16.381329,9.095683 16.414909,9.082251 C 16.448936,9.068819 16.474792,9.050350 16.492478,9.026845 C 16.510163,9.003339 16.519005,8.972782 16.519005,8.935172 C 16.519005,8.898011 16.510163,8.867454 16.492478,8.843500 C 16.474792,8.819547 16.448488,8.800630 16.413566,8.786751 C 16.379538,8.773319 16.336556,8.764140 16.284620,8.759215 C 16.232683,8.754290 16.174031,8.751828 16.108663,8.751828 C 16.038817,8.751828 15.980389,8.753955 15.933377,8.758208 C 15.886366,8.762461 15.844280,8.771752 15.807118,8.786079 C 15.772643,8.799063 15.746115,8.817532 15.727535,8.841485 C 15.708954,8.865439 15.699664,8.896668 15.699664,8.935172 C 15.699664,8.972334 15.708506,9.002891 15.726191,9.026845 C 15.743877,9.050798 15.770181,9.069491 15.805103,9.082923 "
       id="path35" />
    <path
       style="fill:#ffffff;stroke-width:0.02822222;stroke-linecap:round;stroke-linejoin:round;stroke-opacity:1;stroke:#0000ff;stroke-miterlimit:4;stroke-dasharray:none;fill-opacity:1"
       d="M 9.868436,2.649478 C 9.868436,2.608287 9.863063,2.573812 9.852318,2.546053 C 9.841572,2.518294 9.824111,2.494564 9.799934,2.474864 C 9.782472,2.460537 9.762660,2.451135 9.740498,2.446658 C 9.718335,2.442180 9.695613,2.439942 9.672331,2.439942 C 9.640990,2.439942 9.610545,2.444643 9.580995,2.454045 C 9.551445,2.463447 9.522342,2.477103 9.493688,2.495012 C 9.492792,2.504862 9.492121,2.514376 9.491673,2.523555 C 9.491225,2.532733 9.491001,2.544262 9.491001,2.558142 C 9.491001,2.627540 9.497829,2.683506 9.511485,2.726040 C 9.525141,2.768574 9.542042,2.800810 9.562190,2.822749 C 9.581442,2.843792 9.601254,2.858567 9.621626,2.867074 C 9.641998,2.875581 9.664048,2.879834 9.687778,2.879834 C 9.741505,2.879834 9.785047,2.860582 9.818402,2.822077 C 9.851758,2.783573 9.868436,2.726040 9.868436,2.649478 "
       id="path45" />
    <path
       style="fill:#ffffff;stroke-width:0.02822222;stroke-linecap:round;stroke-linejoin:round;stroke-opacity:1;stroke:#0000ff;stroke-miterlimit:4;stroke-dasharray:none;fill-opacity:1"
       d="M 16.198656,9.869356 C 16.266711,9.869356 16.322117,9.863088 16.364875,9.850552 C 16.407633,9.838015 16.440653,9.820778 16.463935,9.798839 C 16.485426,9.779139 16.500201,9.759215 16.508260,9.739068 C 16.516319,9.718920 16.520349,9.696757 16.520349,9.672580 C 16.520349,9.617510 16.500649,9.573632 16.461249,9.540948 C 16.421848,9.508264 16.364763,9.491922 16.289993,9.491922 C 16.247906,9.491922 16.213207,9.497295 16.185896,9.508040 C 16.158585,9.518786 16.135079,9.536247 16.115379,9.560424 C 16.101499,9.577438 16.092209,9.596690 16.087508,9.618181 C 16.082807,9.639672 16.080456,9.662730 16.080456,9.687355 C 16.080456,9.716010 16.085493,9.746903 16.095567,9.780035 C 16.105641,9.813167 16.118961,9.842045 16.135527,9.866670 C 16.142242,9.867118 16.151085,9.867677 16.162054,9.868349 C 16.173024,9.869021 16.185224,9.869356 16.198656,9.869356 "
       id="path37" />
    <path
       style="fill:#0000ff;fill-opacity:1;stroke:#0000ff;stroke-width:0.365;stroke-miterlimit:4;stroke-dasharray:none;stroke-opacity:1"
       d="M 28.935743,65.55322 C 25.537056,65.141483 21.716605,63.998452 18.57759,62.45419 15.070467,60.728833 12.588752,58.940935 9.7432913,56.089709 7.7412796,54.083642 6.465769,52.505063 5.1314103,50.38202 -0.45867685,41.487864 -1.4302118,30.527791 2.4996847,20.693016 6.1336199,11.5989 14.023637,4.3574723 23.365572,1.5423836 c 3.296813,-0.99345815 5.951646,-1.36884822 9.680767,-1.36884822 3.704924,0 6.567861,0.43556702 9.886829,1.50418082 5.044775,1.6242754 9.339483,4.2268376 13.055276,7.9114036 5.200745,5.1570372 8.366219,11.4116922 9.497569,18.7662342 0.324404,2.10885 0.322843,7.129537 -0.0029,9.220779 -0.928382,5.960711 -3.269153,11.336215 -6.934195,15.924141 -4.71511,5.902411 -11.540433,10.084293 -18.954685,11.613552 -3.104154,0.640261 -7.503428,0.82162 -10.658522,0.439394 l 2e-6,0 z m 3.862626,-1.015055 c 0,-0.09945 -0.258575,-1.253215 -0.574612,-2.563917 -0.316036,-1.3107 -0.557335,-2.400367 -0.53622,-2.421481 0.02112,-0.02112 0.592665,-0.02157 1.270111,-0.001 l 1.231721,0.03739 -0.563125,2.402597 c -0.309719,1.321429 -0.564253,2.47565 -0.565629,2.564935 -0.0018,0.118696 0.320442,0.161026 1.198793,0.15746 1.151988,-0.0047 3.79116,-0.268304 3.912392,-0.390809 0.03204,-0.03237 -0.04554,-0.628664 -0.172404,-1.325092 -0.219852,-1.206943 -0.219966,-1.266234 -0.0025,-1.266234 0.285878,0 0.331461,0.121943 0.529736,1.417166 0.18364,1.199609 0.148685,1.179263 1.460744,0.850296 2.463816,-0.617739 3.609629,-1.010045 3.550938,-1.21578 -0.03256,-0.114139 -0.235601,-0.684421 -0.4512,-1.267294 -0.368025,-0.994953 -0.377286,-1.063614 -0.151412,-1.122682 0.201156,-0.0526 0.308563,0.127113 0.65532,1.096497 0.228102,0.637676 0.457054,1.185567 0.508783,1.217537 0.110531,0.06831 1.975487,-0.72684 3.485967,-1.486295 l 1.060817,-0.533368 -0.19193,-0.371152 c -0.105561,-0.204134 -0.691055,-1.231074 -1.301097,-2.28209 -0.610043,-1.051017 -1.076343,-1.964051 -1.036225,-2.028965 0.192109,-0.310839 0.473074,0.04456 1.614958,2.042805 0.677967,1.186411 1.303535,2.184304 1.39015,2.217542 0.151661,0.0582 2.752824,-1.655355 3.665016,-2.414382 l 0.443676,-0.369179 -0.802818,-0.953748 c -0.441549,-0.524563 -0.783656,-1.011235 -0.760235,-1.081498 0.107774,-0.32332 0.368256,-0.145844 1.120252,0.763273 l 0.810651,0.980027 0.96688,-0.865353 c 1.133754,-1.014705 2.560272,-2.590358 2.497229,-2.758304 -0.02419,-0.06445 -0.46605,-0.468687 -0.981904,-0.898302 -0.780734,-0.650215 -0.906579,-0.80713 -0.750921,-0.936315 0.152185,-0.126302 0.37149,-0.0026 1.178057,0.664586 l 0.991061,0.819777 0.374496,-0.450191 c 0.554668,-0.666772 2.456919,-3.459889 2.456919,-3.607538 0,-0.07011 -0.996022,-0.697904 -2.213383,-1.395093 -1.598217,-0.915308 -2.200662,-1.32511 -2.167612,-1.474473 0.02517,-0.11377 0.114104,-0.19266 0.197622,-0.175312 0.08352,0.01735 1.113396,0.587153 2.288619,1.266234 1.175222,0.67908 2.169325,1.234691 2.209117,1.234691 0.10435,0 1.071256,-1.946199 1.645092,-3.311257 0.557267,-1.325641 0.621432,-1.190196 -0.804685,-1.698585 -1.094402,-0.390137 -1.271147,-0.510145 -1.060928,-0.720365 0.107807,-0.107806 0.437781,-0.04013 1.266529,0.259741 0.616405,0.223042 1.168552,0.405531 1.22699,0.405531 0.117335,0 0.796265,-2.25165 1.130085,-3.74789 0.255234,-1.143999 0.290959,-1.104922 -1.214961,-1.328966 -1.145781,-0.170464 -1.251848,-0.219657 -1.078466,-0.500195 0.09005,-0.145709 0.308933,-0.138309 1.306287,0.04416 0.658959,0.120558 1.216668,0.200636 1.239352,0.177952 0.116162,-0.116162 0.326521,-1.923134 0.401794,-3.451381 l 0.08513,-1.728399 -0.312707,0.07326 c -0.171989,0.04029 -1.276993,0.305972 -2.455565,0.590399 -1.178571,0.284427 -2.215909,0.517878 -2.305194,0.518778 -0.118594,0.0012 -0.162338,-0.330825 -0.162338,-1.23213 0,-0.678571 0.02928,-1.233766 0.06508,-1.233766 0.03579,0 1.181728,0.262987 2.54652,0.584416 1.364793,0.321428 2.5134,0.584415 2.55246,0.584415 0.171823,0 -0.214507,-4.96387 -0.400831,-5.150195 -0.0318,-0.0318 -0.599639,0.03619 -1.261863,0.151085 -0.985009,0.170902 -1.223636,0.17801 -1.311752,0.03907 -0.05924,-0.09341 -0.108606,-0.200606 -0.1097,-0.238219 -10e-4,-0.03761 0.55739,-0.163549 1.241074,-0.279858 0.683685,-0.11631 1.275067,-0.243477 1.314183,-0.282594 0.185603,-0.185603 -1.078542,-4.758771 -1.31545,-4.758771 -0.08422,0 -0.63597,0.176219 -1.226122,0.391597 -0.590154,0.215379 -1.127313,0.358034 -1.19369,0.317012 -0.319529,-0.197481 -0.01774,-0.420076 1.10783,-0.817118 l 1.228027,-0.433184 -0.207108,-0.540842 c -0.11391,-0.297463 -0.578188,-1.321746 -1.031728,-2.276182 -0.670498,-1.411005 -0.86547,-1.719665 -1.043191,-1.651468 -0.120214,0.04613 -1.172327,0.634408 -2.33803,1.307285 -1.85404,1.070201 -2.134027,1.195697 -2.235788,1.002115 -0.09846,-0.187293 0.230561,-0.420153 2.141488,-1.515619 1.241799,-0.71188 2.257816,-1.342369 2.257816,-1.401086 0,-0.274153 -2.645598,-3.9929 -2.840635,-3.9929 -0.054,0 -0.52338,0.35791 -1.043065,0.795356 -0.796961,0.670843 -0.972059,0.767417 -1.11847,0.616883 -0.145937,-0.150044 -0.01995,-0.308183 0.790915,-0.992781 0.530475,-0.447868 0.964501,-0.862979 0.964501,-0.922468 0,-0.162635 -1.945866,-2.209762 -2.76845,-2.9125182 l -0.72089,-0.6158749 -0.794841,0.944273 c -0.437164,0.5193501 -0.859855,0.9442731 -0.939313,0.9442731 -0.346189,0 -0.188487,-0.352071 0.55779,-1.245282 L 53.217083,8.4268414 52.780454,8.0558258 C 52.290818,7.6397701 50.253208,6.2100785 49.54255,5.7839473 L 49.078939,5.5059525 47.789303,7.7701011 c -0.709299,1.2452817 -1.318856,2.2653719 -1.35457,2.2668679 -0.03572,0.0015 -0.142515,-0.046464 -0.237334,-0.1065775 -0.131751,-0.083527 0.119225,-0.6139809 1.064447,-2.2497927 0.680265,-1.1772729 1.254597,-2.2138387 1.276295,-2.3034797 0.06336,-0.2617676 -4.15756,-2.3268546 -4.42196,-2.1634462 -0.06071,0.037523 -0.297017,0.5899579 -0.52512,1.2276338 -0.349187,0.9761749 -0.453259,1.1493354 -0.658515,1.09566 -0.22892,-0.059864 -0.216686,-0.1386078 0.200631,-1.2914629 0.244427,-0.6752417 0.444413,-1.2521549 0.444413,-1.2820293 0,-0.085154 -2.006204,-0.6728018 -3.483059,-1.0202416 -0.948085,-0.2230431 -1.353554,-0.2715736 -1.385836,-0.1658709 -0.0251,0.082181 -0.113866,0.558511 -0.197258,1.058511 -0.212222,1.2724134 -0.246333,1.3636364 -0.509902,1.3636364 -0.224796,0 -0.225056,-0.049157 -0.0067,-1.2662338 0.124949,-0.6964285 0.205835,-1.3029887 0.179745,-1.3479114 -0.04711,-0.081104 -1.991416,-0.29399 -4.045054,-0.4428991 -0.743465,-0.053908 -1.071429,-0.033687 -1.071429,0.066061 0,0.079062 0.262987,1.2300289 0.584416,2.5577034 0.321429,1.3276746 0.584416,2.4650555 0.584416,2.5275131 0,0.062458 -0.555195,0.1135595 -1.233767,0.1135595 -0.903131,0 -1.23241,-0.043505 -1.228707,-0.1623376 0.0028,-0.089286 0.258628,-1.2435065 0.568546,-2.5649351 0.309918,-1.3214286 0.52503,-2.4452745 0.478026,-2.4974354 -0.08067,-0.089519 -2.700334,0.055021 -4.330852,0.2389542 -0.860682,0.097091 -0.832675,0.015439 -0.551948,1.6091305 0.106948,0.6071429 0.19453,1.1185065 0.194628,1.1363637 9.7e-5,0.017857 -0.109804,0.032468 -0.244228,0.032468 -0.206552,0 -0.278809,-0.1910795 -0.466549,-1.2337662 -0.19983,-1.1098335 -0.250291,-1.2335734 -0.502348,-1.2318466 -0.403785,0.00277 -1.766118,0.3335402 -3.290872,0.7990218 l -1.322357,0.403693 0.445734,1.2313568 c 0.245153,0.6772463 0.445732,1.2467899 0.445732,1.2656528 0,0.018863 -0.104923,0.061734 -0.233163,0.09527 -0.192387,0.05031 -0.308233,-0.1514539 -0.662399,-1.1536843 -0.236079,-0.6680619 -0.47696,-1.214658 -0.535289,-1.214658 -0.349429,0 -4.413304,1.9543207 -4.413304,2.1223607 0,0.07279 0.560875,1.1116862 1.246388,2.3086589 1.120701,1.956853 1.315751,2.4520967 0.965743,2.4520967 -0.06061,0 -0.675581,-0.9788956 -1.3666,-2.1753241 C 17.498337,6.671912 16.893908,5.653973 16.846182,5.6062538 16.743725,5.5038112 15.396677,6.3600473 13.805373,7.5391102 l -1.135854,0.8416009 0.291698,0.362249 c 0.160434,0.1992368 0.53975,0.654177 0.842925,1.0109779 0.458722,0.539861 0.520592,0.674155 0.368674,0.800236 C 14.025037,10.67682 13.834851,10.525114 13.174435,9.7577902 12.725732,9.2364501 12.311238,8.809899 12.253337,8.809899 c -0.129818,0 -3.4809419,3.331462 -3.4809419,3.460518 0,0.05111 0.438686,0.455788 0.9748578,0.899294 0.7780651,0.643593 0.9449951,0.842357 0.8269251,0.984623 -0.168279,0.202764 -0.139645,0.219578 -1.2999371,-0.763356 -0.4025562,-0.341022 -0.7864795,-0.62004 -0.8531628,-0.62004 -0.2118265,0 -3.0168094,3.961695 -2.8833225,4.072339 0.029052,0.02408 1.0609382,0.621382 2.293081,1.327335 1.2321429,0.705953 2.2402594,1.330362 2.2402594,1.387574 0,0.353543 -0.6173112,0.110981 -2.5356738,-0.996352 -1.1866954,-0.684992 -2.2020528,-1.245441 -2.2563498,-1.245441 -0.094721,0 -1.6225151,3.112692 -1.9636676,4.000731 -0.095858,0.249524 -0.1162822,0.472779 -0.048771,0.53312 0.063883,0.0571 0.5982942,0.272 1.1875799,0.47756 0.7967943,0.277943 1.0714285,0.43257 1.0714285,0.603243 0,0.299709 -0.026883,0.29634 -1.2775828,-0.160109 -0.5871569,-0.214286 -1.1257633,-0.38961 -1.1969033,-0.38961 -0.07114,0 -0.1914148,0.160714 -0.2672774,0.357142 -0.2144385,0.555238 -1.1682062,4.347607 -1.1084393,4.407373 0.029283,0.02928 0.6153502,0.150447 1.3023717,0.269255 1.0327433,0.178592 1.2491298,0.256244 1.2491298,0.448263 0,0.283215 -0.00826,0.28333 -1.4467729,0.02015 -0.6376298,-0.116656 -1.1809098,-0.189708 -1.2072889,-0.162338 -0.076681,0.07956 -0.3128345,2.262978 -0.4099799,3.79057 l -0.089231,1.403146 0.3104027,-0.07616 c 0.1707214,-0.04189 1.3623507,-0.32744 2.6480649,-0.634565 L 6.3697977,31.64576 6.40717,32.874441 C 6.427725,33.550213 6.42323,34.124431 6.39718,34.15048 6.371132,34.17653 5.2304114,33.935228 3.8622449,33.614259 2.4940779,33.29329 1.3071552,33.030678 1.2246384,33.030678 c -0.1096607,0 -0.1261473,0.375659 -0.061271,1.396104 0.092557,1.45583 0.3319042,3.702812 0.4022464,3.776269 0.022385,0.02337 0.5326221,-0.04968 1.1338599,-0.162338 1.3972826,-0.261827 1.5571419,-0.260052 1.5038444,0.0167 -0.032754,0.170077 -0.3222827,0.271359 -1.2463933,0.436004 -0.6620506,0.117956 -1.2304775,0.241214 -1.2631707,0.273908 -0.1221346,0.122134 1.0224796,4.460399 1.2400996,4.700169 0.05598,0.06168 0.6340948,-0.07827 1.2847005,-0.311 0.6506057,-0.232727 1.2180764,-0.387985 1.261046,-0.345014 0.2062441,0.206244 -0.148838,0.468041 -1.0781248,0.794888 -0.5602816,0.197061 -1.0709619,0.407882 -1.1348451,0.468492 -0.067898,0.06442 -0.046394,0.288546 0.051763,0.539503 0.3266083,0.835032 1.859523,4.000731 1.9372594,4.000731 0.043373,0 1.0957092,-0.587007 2.3385252,-1.304459 1.6923697,-0.976968 2.2864367,-1.262257 2.3663016,-1.136363 0.058651,0.09245 0.1057635,0.197315 0.1046975,0.23303 -0.0011,0.03571 -0.9568637,0.611987 -2.1239926,1.280606 -1.167129,0.66862 -2.1952694,1.260922 -2.2847565,1.316229 -0.119105,0.07361 0.00295,0.356863 0.4554859,1.057056 0.7752715,1.199544 2.1777812,3.095415 2.2915611,3.097663 0.047096,9.31e-4 0.5053161,-0.348957 1.0182676,-0.777528 0.9878335,-0.825335 1.1015265,-0.882197 1.2081885,-0.604239 0.04055,0.105666 -0.314723,0.493657 -0.8968577,0.979458 -0.7841175,0.65436 -0.9414089,0.845874 -0.8429175,1.026318 0.066598,0.122012 0.8544791,0.945234 1.7508482,1.829382 l 1.62976,1.607544 0.798062,-0.958193 c 0.438934,-0.527005 0.835241,-0.971852 0.880683,-0.988548 0.04544,-0.0167 0.166655,0.02276 0.269358,0.08768 0.149312,0.09438 0.04481,0.282653 -0.521462,0.939446 -0.389509,0.451777 -0.778609,0.912957 -0.864667,1.024843 -0.13293,0.172825 0.0041,0.321918 0.911072,0.990973 1.235064,0.911123 2.882468,1.988008 3.038337,1.986114 0.05892,-7.79e-4 0.625166,-0.904517 1.258323,-2.008447 1.419395,-2.474762 1.417919,-2.4727 1.663716,-2.326598 0.15977,0.09497 -0.03327,0.506323 -1.082969,2.307763 -0.702568,1.205708 -1.277396,2.240186 -1.277396,2.298839 0,0.158081 1.435044,0.922312 3.005288,1.600463 0.760051,0.328248 1.410638,0.596814 1.445748,0.596814 0.03511,0 0.258999,-0.555195 0.49753,-1.233766 0.238531,-0.678572 0.464567,-1.232872 0.502304,-1.231778 0.03774,10e-4 0.142632,0.04897 0.233104,0.1064 0.12673,0.08044 0.06183,0.380557 -0.282724,1.307302 l -0.447215,1.202893 0.457565,0.191181 c 0.55422,0.231569 3.852931,1.086339 4.192372,1.086339 0.203704,0 0.27742,-0.195883 0.464294,-1.233766 0.18774,-1.042687 0.259997,-1.233766 0.466549,-1.233766 0.134424,0 0.244405,0.02408 0.244405,0.05351 0,0.02943 -0.08765,0.511574 -0.194783,1.071429 -0.255936,1.3375 -0.248523,1.454569 0.09738,1.537967 0.595066,0.143472 2.277626,0.290907 3.506493,0.307258 1.003519,0.01335 1.266234,-0.02067 1.266234,-0.163976 z m 0.567264,-2.968526 c 0.18923,-0.803571 0.343552,-1.50487 0.34294,-1.558441 -6.12e-4,-0.05357 -0.351762,-0.0974 -0.780334,-0.0974 -0.428571,0 -0.779722,0.04383 -0.780334,0.0974 -0.0033,0.291595 0.701645,3.01948 0.780334,3.01948 0.05134,0 0.248165,-0.657467 0.437394,-1.461039 z M 61.564603,33.42167 c 1.383766,-0.315405 1.555987,-0.371802 1.452226,-0.475562 -0.12212,-0.122119 -3.060852,-0.795982 -3.137413,-0.719421 -0.100185,0.100186 -0.08294,1.39517 0.01995,1.49806 0.0484,0.04841 0.179898,0.05996 0.292208,0.02567 0.112309,-0.03428 0.730173,-0.182222 1.37303,-0.32875 z M 6.0451224,32.900808 c 0,-0.428571 -0.039725,-0.779221 -0.088278,-0.779221 -0.2476526,0 -2.9790251,0.693016 -3.0727129,0.779622 -0.1061158,0.0981 2.2846494,0.734952 2.8687832,0.764193 0.272188,0.01362 0.2922078,-0.03876 0.2922078,-0.764594 z M 33.762898,5.7904185 C 33.683831,5.4318476 33.314869,3.923705 33.175111,3.3878211 33.105254,3.119964 33.005356,2.9008081 32.953116,2.9008081 c -0.05224,0 -0.233275,0.6282468 -0.402301,1.3961039 -0.169026,0.7678571 -0.33483,1.4691559 -0.368452,1.5584416 -0.04501,0.1195114 0.16202,0.1623376 0.784758,0.1623376 0.738123,0 0.839508,-0.028955 0.795777,-0.2272727 z"
       id="path4706"
       inkscape:connector-curvature="0"
       transform="scale(0.28222224,0.28222224)" />
    <path
       style="fill:#0000ff;fill-opacity:1;stroke:#0000ff;stroke-width:0.01459426;stroke-miterlimit:4;stroke-dasharray:none;stroke-opacity:1"
       d="m 29.406709,29.429861 c -0.0622,0.595723 -0.0087,1.213399 -0.026,1.817644 0.01101,0.487565 -0.02089,0.984086 0.01675,1.466091 0.217289,0.175461 0.299839,-0.297688 0.429066,-0.429846 0.264236,-0.3185 0.111789,-0.749216 0.152129,-1.126209 8.97e-4,-0.393039 -10e-4,-0.787535 0.01938,-1.18102 0.848463,-0.04951 1.713741,-0.02754 2.559137,-0.0865 0.126741,-0.147276 0.112235,-0.597514 -0.198503,-0.491946 -0.970743,0.01062 -1.950319,-0.02124 -2.915536,0.01594 l -0.03643,0.01584 z"
       id="path4725"
       inkscape:connector-curvature="0"
       transform="scale(0.28222224,0.28222224)" />
    <path
       style="fill:#0000ff;fill-opacity:1;stroke:#0000ff;stroke-width:0.01459426;stroke-miterlimit:4;stroke-dasharray:none;stroke-opacity:1"
       d="m 36.375374,33.167453 c -0.184776,0.20924 -0.311735,0.47824 -0.438187,0.725183 0,0.674293 0,1.348585 0,2.022877 -0.467692,-0.0058 -0.946158,-0.008 -1.402307,0.06242 -1.118242,0.01951 -2.251578,0.038 -3.367223,-0.01291 -0.38446,-0.0943 -0.794607,-0.02767 -1.18797,-0.04951 -0.0086,-0.67943 0.01702,-1.363225 -0.01257,-2.039979 -0.146416,-0.19266 -0.194225,-0.482052 -0.399842,-0.621318 -0.234697,-0.0085 -0.163398,0.311226 -0.184476,0.46325 0.0028,0.910477 -0.02179,1.829637 0.01292,2.734596 0.184973,0.138833 0.490978,0.02763 0.723843,0.06337 2.105838,0 4.211676,0 6.317515,0 0.206933,-0.135737 0.05208,-0.478051 0.100038,-0.699803 -0.0098,-0.865443 0.02087,-1.734785 -0.02444,-2.597962 -0.03764,-0.05154 -0.07531,-0.06523 -0.13729,-0.05022 z m -1.659269,2.809754 c 6.6e-5,-8.36e-4 0.0076,-0.0052 0,0 z m -3.502919,0.04428 c 0.0045,0.01095 -0.01004,-0.01638 0,0 z"
       id="path4727"
       inkscape:connector-curvature="0"
       transform="scale(0.28222224,0.28222224)" />
    <path
       style="fill:#0000ff;fill-opacity:1;stroke:#0000ff;stroke-width:0.01459426;stroke-miterlimit:4;stroke-dasharray:none;stroke-opacity:1"
       d="m 29.779843,32.26031 c -0.109278,0.250185 -0.351275,0.473849 -0.373993,0.743379 0.152673,0.217694 0.239416,0.494744 0.431705,0.676765 0.221644,-0.05214 0.09818,-0.364263 0.13729,-0.540568 -0.01139,-0.29673 0.03112,-0.61121 -0.04959,-0.894805 -0.05647,-0.0298 -0.09632,-0.02551 -0.145412,0.01523 z"
       id="path4729"
       inkscape:connector-curvature="0"
       transform="scale(0.28222224,0.28222224)" />
    <path
       style="fill:#0000ff;fill-opacity:1;stroke:#0000ff;stroke-width:0.01459426;stroke-miterlimit:4;stroke-dasharray:none;stroke-opacity:1"
       d="m 33.286277,29.946689 c -0.02961,0.187782 -0.131377,0.625003 0.18982,0.57121 0.294503,0.0062 0.589005,0.01242 0.883507,0.01864 0.45766,0.80549 0.951221,1.593505 1.367431,2.420922 -0.4209,0.825811 -0.911223,1.613957 -1.370242,2.418737 -0.935662,-0.0071 -1.870146,0.04378 -2.802335,-0.01023 -0.468713,-0.808852 -0.975779,-1.603135 -1.38344,-2.446381 0.461603,-0.800518 0.923134,-1.601065 1.384377,-2.40179 0.343375,-0.02051 0.703844,0.04116 1.036311,-0.03178 0.02822,-0.188192 0.130077,-0.628707 -0.193283,-0.567884 -0.42871,0.02163 -0.874919,-0.03987 -1.292539,0.03458 -0.402082,0.707012 -0.827797,1.406554 -1.205697,2.124399 0.0087,0.599884 -0.01821,1.204439 0.01273,1.8014 0.409021,0.682422 0.773298,1.400322 1.213819,2.059034 0.472163,0.09724 0.968778,0.02911 1.449507,0.0503 0.727296,-0.01365 1.463446,0.01258 2.18503,-0.02842 0.292542,-0.38545 0.504406,-0.856766 0.76598,-1.275135 0.135683,-0.299392 0.400659,-0.56103 0.450075,-0.886372 -0.0093,-0.607037 0.01832,-1.218978 -0.01351,-1.823033 -0.398063,-0.666592 -0.763598,-1.362257 -1.181855,-2.010801 -0.458059,-0.06662 -0.950906,-0.0231 -1.422121,-0.048 l -0.03692,0.01536 -0.03665,0.01525 z"
       id="path4731"
       inkscape:connector-curvature="0"
       transform="scale(0.28222224,0.28222224)" />
    <path
       style="fill:#0000ff;fill-opacity:1;stroke:#0000ff;stroke-width:0.01459426;stroke-miterlimit:4;stroke-dasharray:none;stroke-opacity:1"
       d="m 35.981076,32.234851 c -0.09865,0.283806 -0.0164,0.617957 -0.04272,0.921825 0.0237,0.160013 -0.09696,0.637258 0.186259,0.490744 0.106953,-0.244491 0.345859,-0.462322 0.362592,-0.733773 -0.121497,-0.240854 -0.241005,-0.503744 -0.427957,-0.694415 l -0.03921,0.0078 -0.03896,0.0078 z"
       id="path4733"
       inkscape:connector-curvature="0"
       transform="scale(0.28222224,0.28222224)" />
    <path
       style="fill:#0000ff;fill-opacity:1;stroke:#0000ff;stroke-width:0.01459426;stroke-miterlimit:4;stroke-dasharray:none;stroke-opacity:1"
       d="m 33.285183,29.429861 c -0.07794,0.219295 -0.05494,0.578761 0.270703,0.48126 0.786005,0.02253 1.585025,0.0241 2.363027,0.06852 0.03882,0.691731 -0.0033,1.386903 0.03132,2.076293 0.141564,0.224929 0.244338,0.480588 0.415696,0.684106 0.248701,0.04525 0.136015,-0.287134 0.165123,-0.432558 -8.5e-5,-0.947645 0.02563,-1.90392 -0.0099,-2.846038 -0.184973,-0.138833 -0.490978,-0.02763 -0.723843,-0.06337 -0.824111,0.01073 -1.657134,-0.0214 -2.475708,0.01594 l -0.03643,0.01584 z"
       id="path4735"
       inkscape:connector-curvature="0"
       transform="scale(0.28222224,0.28222224)" />
  </g>
</svg>
