<?xml version="1.0" encoding="UTF-8" standalone="no"?>
<svg
   xmlns:dc="http://purl.org/dc/elements/1.1/"
   xmlns:cc="http://creativecommons.org/ns#"
   xmlns:rdf="http://www.w3.org/1999/02/22-rdf-syntax-ns#"
   xmlns:svg="http://www.w3.org/2000/svg"
   xmlns="http://www.w3.org/2000/svg"
   xmlns:sodipodi="http://sodipodi.sourceforge.net/DTD/sodipodi-0.dtd"
   xmlns:inkscape="http://www.inkscape.org/namespaces/inkscape"
   viewBox="0 0 12.188887 19.999998"
   version="1.1"
   x="0px"
   y="0px"
   id="svg2"
   inkscape:version="0.91 r13725"
   sodipodi:docname="Windmill.svg"
   width="12.188887"
   height="19.999998">
  <metadata
     id="metadata16">
    <rdf:RDF>
      <cc:Work
         rdf:about="">
        <dc:format>image/svg+xml</dc:format>
        <dc:type
           rdf:resource="http://purl.org/dc/dcmitype/StillImage" />
        <dc:title></dc:title>
      </cc:Work>
    </rdf:RDF>
  </metadata>
  <defs
     id="defs14" />
  <sodipodi:namedview
     pagecolor="#ffffff"
     bordercolor="#666666"
     borderopacity="1"
     objecttolerance="10"
     gridtolerance="10"
     guidetolerance="10"
     inkscape:pageopacity="0"
     inkscape:pageshadow="2"
     inkscape:window-width="1366"
     inkscape:window-height="705"
     id="namedview12"
     showgrid="false"
     fit-margin-top="0"
     fit-margin-left="0"
     fit-margin-right="0"
     fit-margin-bottom="0"
     inkscape:zoom="23.05"
     inkscape:cx="6.0944427"
     inkscape:cy="10.124532"
     inkscape:window-x="-8"
     inkscape:window-y="-8"
     inkscape:window-maximized="1"
     inkscape:current-layer="svg2" />
  <g
     transform="matrix(0.22222701,0,0,0.22222701,-5.0169073,-212.75195)"
     id="g4"
     style="fill:#ff0000;fill-opacity:1;stroke:#000000;stroke-opacity:1;stroke-width:0.4499903;stroke-miterlimit:4;stroke-dasharray:none">
    <path
       style="color:#000000;font-style:normal;font-variant:normal;font-weight:normal;font-stretch:normal;font-size:medium;line-height:normal;font-family:sans-serif;text-indent:0;text-align:start;text-decoration:none;text-decoration-line:none;text-decoration-style:solid;text-decoration-color:#000000;letter-spacing:normal;word-spacing:normal;text-transform:none;direction:ltr;block-progression:tb;writing-mode:lr-tb;baseline-shift:baseline;text-anchor:start;white-space:normal;clip-rule:nonzero;display:inline;overflow:visible;visibility:visible;opacity:1;isolation:auto;mix-blend-mode:normal;color-interpolation:sRGB;color-interpolation-filters:linearRGB;solid-color:#000000;solid-opacity:1;fill:#ff0000;fill-opacity:1;fill-rule:nonzero;stroke:#000000;stroke-width:0.4499903;stroke-linecap:butt;stroke-linejoin:miter;stroke-miterlimit:4;stroke-dasharray:none;stroke-dashoffset:0;stroke-opacity:1;color-rendering:auto;image-rendering:auto;shape-rendering:auto;text-rendering:auto;enable-background:accumulate"
       d="m 73.741536,957.36315 c -0.055,2.6e-4 -0.11,0.0217 -0.1524,0.064 l -18.8674,18.81251 a 13.424334,15.300732 0 0 0 -0.7121,-0.28393 3.9859863,3.6925394 0 0 0 -3.9792,-3.52662 3.9859863,3.6925394 0 0 0 -3.5556,2.03277 l -20.4049,-15.9132 c -0.4824,-0.37626 -1.1956,-0.41241 -1.5771,0.0767 l -1.1556,1.48114 c -2e-4,2.6e-4 -2e-4,10e-4 -5e-4,0.002 l -0.7157,0.91734 -5e-4,0.001 c -0.073,0.0933 -0.055,0.22751 0.039,0.30121 l 20.5568,16.03256 a 13.424334,15.300732 0 0 0 -5.5629,7.22239 l -3.8248,0 c -0.2625,0 -0.4739,0.2114 -0.4739,0.4739 l 0,0.37892 c 0,0.26254 0.2114,0.47392 0.4739,0.47392 l 1.0057,0 0.8777,4.49626 c 0.023,0.11529 0.069,0.22245 0.1321,0.31798 l -12.4572,12.4216 c -0.4332,0.432 -0.5584,1.1359 -0.1204,1.5751 l 1.3273,1.3309 0.8213,0.8238 5e-4,-5e-4 0,0 c 0.084,0.084 0.2189,0.083 0.3038,0 l 10.5443,-10.51381 -7.4185,42.00191 a 86.50598,38.399047 0 0 0 -0.01,0 l -0.8041,4.6461 -3.8247,0 c -0.7583,0 -1.3689,0.6419 -1.3689,1.439 l 0,1.4741 c 0,0.7971 0.6106,1.439 1.3689,1.439 l 51.5903,0 c 0.7582,0 1.3683,-0.6419 1.3683,-1.439 l 0,-1.4741 c 0,-0.7971 -0.6101,-1.439 -1.3683,-1.439 l -3.4997,0 -0.9595,-5.1972 a 86.50598,38.399047 0 0 0 -0.01,-5e-4 l -0.3637,-1.9947 -0.5511,-2.9851 0.01,0 -6.4122,-35.16816 9.9215,7.73746 c 0.4825,0.3762 1.1962,0.4119 1.5777,-0.077 l 1.0646,-1.3649 0.091,-0.1163 c 5e-4,-8e-4 0,0 0,0 l 0.3251,-0.417 0.1321,-0.1692 0.257,-0.3296 0,0 c 0.073,-0.093 0.055,-0.228 -0.04,-0.3017 l -13.9643,-10.89073 a 13.424334,15.300732 0 0 0 0.018,-0.45765 l 0.1184,0 c 0.088,0 0.1715,-0.0181 0.2504,-0.0452 0.4037,-0.0294 0.767,-0.33564 0.8457,-0.73905 l 0.894,-4.57855 0.6689,0 c 0.2626,0 0.4739,-0.21189 0.4739,-0.47442 l 0,-0.37842 c 0,-0.2625 -0.2113,-0.47443 -0.4739,-0.47441 l -3.8161,0 a 13.424334,15.300732 0 0 0 -3.9594,-5.95355 l 17.5219,-17.47156 c 0.4332,-0.43198 0.5578,-1.1364 0.1198,-1.57562 l -1.2221,-1.22566 -0.9259,-0.92851 -5e-4,5.1e-4 0,-0.002 c -0.042,-0.0419 -0.096,-0.0627 -0.1514,-0.0625 z m 0.2372,1.41461 c 0.081,-0.0123 0.1452,0.006 0.1737,0.035 l 0.4846,0.48609 -0.7868,0.78426 -0.6502,-0.65219 0.5024,-0.50083 c 0.097,-0.0966 0.1952,-0.14007 0.2763,-0.15238 z m -48.6905,0.2814 c 0.082,0.002 0.1847,0.0332 0.2926,0.11733 l 0.5592,0.43632 -0.6364,0.81575 -0.8757,-0.68266 0.4922,-0.63087 c 0.025,-0.0319 0.086,-0.0582 0.1681,-0.0559 z m 49.6261,0.5181 0.5643,0.56633 c 0.057,0.0572 0.076,0.25639 -0.1178,0.44954 l -0.5024,0.50082 -0.7304,-0.73245 0.7863,-0.78425 z m -1.9921,0.13104 0.6501,0.65169 -0.7649,0.76292 -0.6502,-0.65169 0.765,-0.76292 z m -46.4723,0.14577 0.8518,0.66439 -0.6365,0.81625 -0.8518,-0.66438 0.6365,-0.81626 z m -2.0633,0.20165 0.8752,0.68268 -0.5663,0.72584 -0.5588,-0.43582 c -0.2157,-0.16821 -0.2213,-0.36802 -0.1717,-0.43174 l 0.4216,-0.54096 z m 49.4631,0.58261 0.7309,0.73297 -0.765,0.76292 -0.7309,-0.73297 0.765,-0.76292 z m -1.9708,0.11022 0.6501,0.6522 -1.0428,1.03976 -0.6501,-0.6522 1.0428,-1.03976 z m -44.2674,0.0117 1.1612,0.90566 -0.6365,0.81626 -1.1611,-0.90566 0.6364,-0.81626 z m -2.0398,0.21993 0.8518,0.66439 -0.5659,0.72584 -0.8518,-0.66438 0.5659,-0.72585 z m 47.2347,0.69843 0.7309,0.73294 -1.0433,1.04026 -0.7304,-0.73296 1.0428,-1.04025 z m -46.0731,0.20723 1.1617,0.90616 -0.5664,0.72585 -1.1616,-0.90616 0.5663,-0.72585 z m 2.3492,0.0218 0.8904,0.69436 -0.6364,0.81627 -0.8904,-0.69488 0.6364,-0.81575 z m 41.4752,0.15797 0.6502,0.65219 -0.7995,0.79748 -0.6502,-0.65221 0.7995,-0.79746 z m -40.2749,0.77816 0.8518,0.66389 -0.6365,0.81625 -0.8518,-0.66439 0.6365,-0.81575 z m 41.2024,0.15239 0.7309,0.73295 -0.7994,0.79747 -0.731,-0.73347 0.7995,-0.79695 z m -43.2809,0.0371 0.8909,0.69485 -0.5658,0.72585 -0.8909,-0.69486 0.5658,-0.72583 z m 41.2756,0.10717 0.6501,0.65219 -0.7649,0.76242 -0.6502,-0.65169 0.765,-0.76292 z m -38.0355,0.60902 0.8905,0.69436 -0.6365,0.81625 -0.8904,-0.69435 0.6364,-0.81626 z m -2.0398,0.21994 0.8518,0.66438 -0.5659,0.72585 -0.8518,-0.66439 0.5659,-0.72584 z m 41.0028,0.10158 0.7309,0.73296 -0.765,0.76242 -0.7309,-0.73296 0.765,-0.76242 z m -1.9703,0.10972 0.6501,0.65168 -0.8,0.79747 -0.6501,-0.65169 0.8,-0.79746 z m -35.7924,0.50489 0.8904,0.69436 -0.6364,0.81625 -0.8905,-0.69435 0.6365,-0.81626 z m -2.0785,0.18997 0.8904,0.69436 -0.5658,0.72584 -0.8904,-0.69436 0.5658,-0.72584 z m 38.7984,0.23518 0.7309,0.73295 -0.8,0.79746 -0.7309,-0.73295 0.8,-0.79746 z m -2.0054,0.14426 0.6502,0.65219 -0.8,0.79746 -0.6502,-0.65219 0.8,-0.79746 z m -33.5142,0.36672 0.8518,0.6644 -0.6365,0.81624 -0.8518,-0.66438 0.6365,-0.81626 z m -2.0785,0.18947 0.8904,0.69487 -0.5659,0.72533 -0.8904,-0.69435 0.5659,-0.72585 z m 36.5202,0.37435 0.7304,0.73296 -0.7994,0.79746 -0.731,-0.73295 0.8,-0.79747 z m -2.0053,0.14426 0.6502,0.65219 -0.765,0.76241 -0.6502,-0.65168 0.765,-0.76292 z m -31.2753,0.19759 0.9295,0.72483 -0.6364,0.81625 -0.9295,-0.72482 0.6364,-0.81627 z m -2.0394,0.21993 0.8518,0.66439 -0.5658,0.72584 -0.8518,-0.66438 0.5658,-0.72586 z m 34.2422,0.51302 0.7304,0.73296 -0.7644,0.76241 -0.731,-0.73295 0.765,-0.76242 z m -1.9708,0.10972 0.6501,0.65219 -0.8345,0.832 -0.6502,-0.65219 0.8346,-0.832 z m -28.9926,0.12394 0.8904,0.69435 -0.6365,0.81625 -0.8904,-0.69486 0.6365,-0.81574 z m -2.1171,0.15948 0.929,0.72433 -0.5658,0.72584 -0.9291,-0.72482 0.5659,-0.72536 z m 32.0372,0.64661 0.7309,0.73296 -0.8345,0.83251 -0.731,-0.73296 0.8346,-0.83251 z m -28.7199,0.13004 0.8518,0.66438 -0.6364,0.81575 -0.8518,-0.66439 0.6364,-0.81574 z m 26.68,0.0493 0.6497,0.65219 -0.7995,0.79746 -0.6502,-0.65219 0.8,-0.79746 z m -28.7585,0.14018 0.8905,0.69436 -0.5659,0.72584 -0.8904,-0.69435 0.5658,-0.72586 z m 3.2397,0.7162 0.9295,0.72483 -0.6364,0.81574 -0.9296,-0.72482 0.6365,-0.81575 z m 26.4463,0.0742 0.7304,0.73295 -0.7995,0.79696 -0.7309,-0.73296 0.8,-0.79696 z m -2.0053,0.14425 0.6501,0.65169 -0.7649,0.76292 -0.6502,-0.65168 0.765,-0.76293 z m -26.4804,0.002 0.8518,0.66439 -0.5658,0.72584 -0.8518,-0.66438 0.5658,-0.72586 z m 3.2787,0.74668 0.8905,0.69435 -0.6365,0.81574 -0.8904,-0.69434 0.6364,-0.81575 z m -2.1176,0.15897 0.9296,0.72483 -0.5659,0.72584 -0.9295,-0.72482 0.5658,-0.72586 z m 26.2468,0.0229 0.7304,0.73296 -0.7645,0.76242 -0.7309,-0.73245 0.765,-0.76293 z m -1.9709,0.11023 0.6502,0.65169 -0.8345,0.832 -0.6502,-0.65169 0.8345,-0.832 z m -20.9585,0.64356 0.8518,0.66438 -0.6359,0.81626 -0.8518,-0.66438 0.6359,-0.81626 z m -2.078,0.18996 0.8904,0.69436 -0.5658,0.72583 -0.8904,-0.69434 0.5658,-0.72586 z m 23.964,0.0965 0.731,0.73296 -0.8346,0.83201 -0.7309,-0.73296 0.8345,-0.83201 z m -2.0398,0.1793 0.6496,0.6517 -0.7995,0.79746 -0.6501,-0.65169 0.8,-0.79747 z m -18.6845,0.44039 0.8904,0.69435 -0.6365,0.81575 -0.8904,-0.69435 0.6365,-0.81575 z m -2.0394,0.21993 0.8518,0.66439 -0.5658,0.72584 -0.8519,-0.66439 0.5659,-0.72585 z m 21.6514,0.26972 0.7304,0.73295 -0.7995,0.79746 -0.7309,-0.73296 0.8,-0.79746 z m -2.0054,0.14476 0.6497,0.65169 -0.765,0.76293 -0.6496,-0.6517 0.7649,-0.76292 z m -16.4064,0.30172 0.8904,0.69435 -0.6364,0.81575 -0.8904,-0.69435 0.6364,-0.81575 z m -2.078,0.18947 0.8905,0.69434 -0.5664,0.72585 -0.8904,-0.69435 0.5663,-0.72584 z m 19.4114,0.43885 0.7309,0.73295 -0.7649,0.76243 -0.7304,-0.73246 0.7644,-0.76292 z m -1.9703,0.11022 0.6502,0.65169 -0.7995,0.79695 -0.6502,-0.65168 0.7995,-0.79696 z m -14.1628,0.19759 0.8518,0.66438 -0.636,0.81575 -0.8518,-0.66438 0.636,-0.81575 z m -2.078,0.18947 0.8904,0.69434 -0.5663,0.72585 -0.8905,-0.69435 0.5664,-0.72584 z m 17.1683,0.54298 0.7309,0.73295 -0.7995,0.79695 -0.7309,-0.73295 0.7995,-0.79695 z m -2.0053,0.14476 0.6496,0.65168 -0.799,0.79696 -0.6501,-0.65169 0.7995,-0.79695 z m -11.9239,0.0284 0.4008,0.31239 a 3.9859863,3.6925394 0 0 0 -0.1143,0.67454 c -3e-4,0.003 -8e-4,0.006 -10e-4,0.009 a 13.424334,15.300732 0 0 0 -0.4505,0.18693 l -0.4709,-0.36725 0.6359,-0.81575 z m -2.0389,0.21995 0.8519,0.66437 -0.5664,0.72585 -0.8518,-0.66438 0.5663,-0.72584 z m 14.8903,0.68165 0.7309,0.73295 -0.7995,0.79695 -0.7309,-0.73295 0.7995,-0.79695 z m -2.0054,0.14425 0.6502,0.65168 -0.6486,0.64711 a 13.424334,15.300732 0 0 0 -0.6274,-0.39669 l -0.1391,-0.13918 0.7649,-0.76292 z m -11.7237,0.0797 0.2951,0.23009 a 13.424334,15.300732 0 0 0 -0.7578,0.36267 l 0.4627,-0.59276 z m 12.6512,0.85029 0.7309,0.73295 -0.4871,0.4861 a 13.424334,15.300732 0 0 0 -0.8335,-0.63086 l 0.5897,-0.58819 z m 5.244,9.01134 0.2199,0 -0.097,0.49726 a 13.424334,15.300732 0 0 0 -0.1229,-0.49726 z m -26.3056,5.30287 0.134,0.1346 a 13.424334,15.300732 0 0 0 0.083,1.11137 l -0.3205,0.31949 -0.7309,-0.73295 0.8346,-0.83251 z m -1.1129,1.10984 0.7309,0.73296 -0.765,0.76241 -0.7309,-0.73295 0.765,-0.76242 z m 1.3917,0.62883 a 13.424334,15.300732 0 0 0 0.03,0.24127 l -0.1356,-0.13613 0.1051,-0.10514 z m 26.4651,0.1087 0.7782,0.60698 -0.5659,0.72585 -0.024,-0.0188 -0.2082,-1.14185 a 13.424334,15.300732 0 0 0 0.02,-0.17219 z m -26.8486,0.27378 0.3591,0.36012 -0.1244,0.70604 -0.3495,0.34844 -0.6501,-0.65168 0.7649,-0.76292 z m -2.051,0.0284 0.7309,0.73296 -0.8,0.79746 -0.7304,-0.73295 0.7995,-0.79747 z m 29.9876,0.54654 0.8904,0.69436 -0.5658,0.72584 -0.8904,-0.69436 0.5658,-0.72584 z m -28.9794,0.46477 0.6502,0.65219 -0.8,0.79746 -0.6497,-0.65219 0.7995,-0.79746 z m -2.0861,0.0635 0.7309,0.73296 -0.8345,0.832 -0.7309,-0.73296 0.8345,-0.832 z m 32.2658,0.40736 0.9295,0.72484 -0.5663,0.72584 -0.9296,-0.72432 0.5664,-0.72636 z m -1.9937,0.11074 0.8762,0.68368 -0.6095,0.78121 -0.2667,-1.46489 z m -29.2638,0.49321 0.6501,0.65219 -0.8345,0.832 -0.6502,-0.65219 0.8346,-0.832 z m -2.1212,0.098 0.7309,0.73296 -0.7649,0.76292 -0.7309,-0.73296 0.7649,-0.76292 z m 34.6175,0.26412 0.8519,0.66439 -0.5664,0.72635 -0.8518,-0.66438 0.5663,-0.72636 z m -2.0464,0.0701 0.929,0.72432 -0.6365,0.81626 -0.929,-0.72432 0.6365,-0.81626 z m -31.5623,0.67708 0.6501,0.6522 -0.7654,0.76292 -0.6502,-0.65219 0.7655,-0.76293 z m -2.0516,0.029 0.7309,0.73296 -0.8,0.79746 -0.7309,-0.73295 0.8,-0.79747 z m 36.822,0.13004 0.8904,0.69435 -0.5658,0.72635 -0.8909,-0.69485 0.5663,-0.72585 z m -1.9693,0.13003 0.8518,0.66439 -0.6364,0.81625 -0.8518,-0.66439 0.6364,-0.81625 z m -33.8444,0.75124 0.6501,0.6522 -0.8,0.79746 -0.6501,-0.65219 0.8,-0.79747 z m 37.014,0.0549 0.8904,0.69435 -0.5664,0.72584 -0.8904,-0.69434 0.5664,-0.72585 z m -39.1001,0.009 0.7309,0.73296 -0.7995,0.79696 -0.7309,-0.73296 0.7995,-0.79696 z m 37.0917,0.0909 0.8909,0.69487 -0.6364,0.81626 -0.891,-0.69487 0.6365,-0.81626 z m 3.2086,0.83607 0.8518,0.66439 -0.5663,0.72635 -0.8518,-0.66438 0.5663,-0.72636 z m -39.2921,0.0843 0.6502,0.65169 -0.7995,0.7975 -0.6502,-0.65224 0.7995,-0.79695 z m 37.2837,0.0157 0.891,0.69436 -0.637,0.81673 -0.8904,-0.69483 0.6364,-0.81626 z m -18.3035,0.032 c 1.3788,0 2.4889,0.64806 2.4889,1.45319 l 0,3.1244 c 0,0.8051 -1.1101,1.4537 -2.4889,1.4537 -1.3789,0 -2.4889,-0.6486 -2.4889,-1.4537 l 0,-3.1244 c 0,-0.80513 1.11,-1.45319 2.4889,-1.45319 z m -21.0663,0.0152 0.731,0.73295 -0.765,0.76294 -0.7309,-0.73297 0.7649,-0.76292 z m 42.5399,0.75886 0.8904,0.69433 -0.5664,0.7264 -0.8904,-0.6949 0.5664,-0.72583 z m -1.9698,0.13003 0.8518,0.6644 -0.6364,0.8162 -0.8519,-0.6643 0.6365,-0.8163 z m -39.5618,0.12242 0.6502,0.65218 -0.765,0.7629 -0.6502,-0.6522 0.765,-0.76288 z m -2.0516,0.029 0.731,0.73298 -0.7995,0.7974 -0.731,-0.7329 0.7995,-0.79748 z m 44.7834,0.65468 1.1617,0.9062 -0.5664,0.7259 -1.1616,-0.9062 0.5663,-0.7259 z m -2.0084,0.1 0.8905,0.6949 -0.6365,0.8163 -0.8904,-0.6949 0.6364,-0.8163 z m -41.7667,0.2571 0.6502,0.6521 -0.7995,0.7975 -0.6502,-0.6522 0.7995,-0.7974 z m -2.0861,0.063 0.7309,0.7329 -1.0433,1.0403 -0.7309,-0.733 1.0433,-1.0402 z m 45.0531,0.6156 1.1617,0.9061 -0.6365,0.8163 -1.1616,-0.9062 0.6364,-0.8162 z m 2.2791,0.1117 0.8518,0.6644 -0.5658,0.7259 -0.8518,-0.6644 0.5658,-0.7259 z m -46.324,0.284 0.6502,0.6521 -1.0428,1.0398 -0.6502,-0.6517 1.0428,-1.0402 z m -2.3294,0.3062 0.731,0.733 -0.765,0.7624 -0.7309,-0.7329 0.7649,-0.7625 z m 49.8151,0.3155 0.5592,0.4363 c 0.2157,0.1682 0.2214,0.368 0.1717,0.4317 l -0.4216,0.541 -0.8757,-0.6827 0.5664,-0.7263 z m -1.9693,0.13 0.8518,0.6644 -0.6364,0.8163 -0.8518,-0.6644 0.6364,-0.8163 z m -46.8375,0.5659 0.6502,0.6516 -0.765,0.763 -0.6502,-0.6522 0.765,-0.7624 z m -2.0511,0.029 0.731,0.7329 -0.7863,0.7843 -0.5654,-0.5669 c -0.057,-0.057 -0.075,-0.2564 0.1184,-0.4495 l 0.5023,-0.5008 z m 50.0497,0.3118 0.8757,0.6827 -0.4922,0.6309 c -0.05,0.064 -0.2445,0.1072 -0.4602,-0.061 l -0.5597,-0.4364 0.6364,-0.8162 z m -49.0414,0.6995 0.6502,0.6521 -0.5024,0.5009 c -0.1937,0.1931 -0.393,0.174 -0.45,0.1168 l -0.4841,-0.4856 0.7863,-0.7842 z m 24.5431,4.4521 c 1.3788,0 2.4889,0.648 2.4889,1.4532 l 0,3.1248 c 0,0.8052 -1.1101,1.4532 -2.4889,1.4532 -1.3789,0 -2.4889,-0.648 -2.4889,-1.4532 l 0,-3.1248 c 0,-0.8052 1.11,-1.4532 2.4889,-1.4532 z m 0.4698,27.0985 c 2.5409,0 4.5862,1.2833 4.5862,2.8774 l 0,4.3632 -9.1724,0 0,-4.3632 c 0,-1.5941 2.0454,-2.8774 4.5862,-2.8774 z"
       id="path6"
       inkscape:connector-curvature="0" />
  </g>
</svg>
